<?xml version="1.0" encoding="UTF-8" standalone="no"?>
<svg
   xmlns:dc="http://purl.org/dc/elements/1.1/"
   xmlns:cc="http://creativecommons.org/ns#"
   xmlns:rdf="http://www.w3.org/1999/02/22-rdf-syntax-ns#"
   xmlns:svg="http://www.w3.org/2000/svg"
   xmlns="http://www.w3.org/2000/svg"
   viewBox="0 0 793.70667 191.56"
   height="191.56"
   width="793.70667"
   xml:space="preserve"
   id="svg2"
   version="1.1"><metadata
     id="metadata8"><rdf:RDF><cc:Work
         rdf:about=""><dc:format>image/svg+xml</dc:format><dc:type
           rdf:resource="http://purl.org/dc/dcmitype/StillImage" /></cc:Work></rdf:RDF></metadata><defs
     id="defs6"><clipPath
       id="clipPath18"
       clipPathUnits="userSpaceOnUse"><path
         id="path16"
         d="M 0,143.67 H 595.28 V 0 H 0 Z" /></clipPath></defs><g
     transform="matrix(1.3333333,0,0,-1.3333333,0,191.56)"
     id="g10"><g
       id="g12"><g
         clip-path="url(#clipPath18)"
         id="g14"><g
           transform="translate(124.4463,121.4922)"
           id="g20"><path
             id="path22"
             style="fill:#98172e;fill-opacity:1;fill-rule:nonzero;stroke:none"
             d="m 0,0 c -46.327,4.468 -81.294,0 -81.294,0 v -57.679 c 3.691,-39.088 40.303,-43.683 40.653,-43.62 6.539,1.179 37.234,7.353 40.646,43.634 z m -14.286,-10.307 c 3.025,-1.312 4.206,-0.128 5.178,-0.128 2.984,0 3.133,-2.781 3.133,-2.781 0.043,-0.306 0.068,-0.523 0.087,-0.661 -0.019,0.138 -0.049,0.355 -0.091,0.661 -0.064,0.468 -1.423,0.739 -2.382,0.32 -1.339,-0.577 -4.698,-2.5 -5.925,-2.135 z m -0.084,-9.755 c 0,0 0.559,-0.985 5.383,-0.286 2.621,0.385 3.012,-2.712 3.012,-2.712 h -0.004 c -0.646,0.513 -1.943,0.749 -2.824,0.183 -2.926,-1.889 -5.567,-1.909 -5.567,-1.909 z m -25.701,14.825 c 0,0 6.802,3.186 11.752,1.361 6.06,-2.234 13.063,-1.248 13.063,-1.248 v -24.825 c -4.756,-0.321 -14.624,2.387 -17.134,2.387 -5.176,0 -7.681,-2.022 -7.681,-2.022 0,0 0.009,23.499 0,24.347 m -0.888,-27.464 c 2.192,0.31 3.894,-2.091 5.994,-0.913 0.16,-0.946 -0.713,-1.178 -0.713,-1.178 1.36,-0.316 2.01,0.493 2.274,1 0.52,-2.164 -1.661,-2.292 -2.345,-2.416 -0.005,0 1.107,-0.32 1.162,-1.04 0.148,-1.84 1.324,-1.682 1.58,-1.539 -0.039,-0.222 -0.409,-1.326 -1.73,-0.325 -0.228,-0.222 0.362,-0.567 0.472,-1.475 0.154,-1.154 0.119,-2.219 1.446,-2.919 -0.814,-0.651 -1.773,1.035 -1.86,0.838 -0.093,-0.227 1.133,-0.849 -0.217,-4.028 -0.613,0.349 -0.271,0.285 -0.989,1.133 -0.544,0.454 -0.756,0.562 -0.303,-0.192 0.799,-1.001 0.987,-3.269 0.713,-3.886 -0.656,0.287 -0.491,0.814 -1.262,1.524 -0.073,-0.306 0.236,-1.815 1.035,-2.535 1.384,-1.247 1.874,-2.756 1.899,-3.058 0.111,-1.128 -0.249,-2.623 -0.385,-4.082 -0.661,0.093 -1.228,1.972 -1.383,1.868 -0.198,-0.128 0.082,-1.844 1.334,-3.008 0.604,-1.77 0.357,-2.722 0.197,-2.786 -0.212,-0.089 -0.885,1.81 -1.253,1.48 1.783,-4.533 0.535,-6.112 0.064,-7.502 -0.367,1.426 -0.554,2.501 -1.012,4.119 -0.973,-0.76 -1.204,-1.895 -2.396,-2.926 0,1.846 -1.064,6.309 -1.913,7.344 -0.037,0.049 -1.531,-3.994 -2.207,-5.795 -0.885,-2.327 -1.02,-5.246 0,-7.521 -2.196,3.132 -2.432,8.947 -0.54,9.736 0.166,0.415 -0.11,1.785 -0.537,1.617 -0.121,-0.671 -0.039,-1.243 -0.595,-1.898 -1.454,0.424 -0.794,2.2 -0.66,2.791 1.887,2.263 0.705,2.786 0.619,2.727 -0.208,-0.514 -0.383,-1.149 -0.96,-1.386 -1.21,2.077 -0.433,5.346 1.869,7.792 0.097,0.907 -1.03,-0.685 -1.767,-0.626 -0.188,1.755 0.451,4.802 3.696,4.916 -0.622,0.183 -0.955,0.291 -1.099,0.809 0.978,0.143 4.06,0.385 3.55,2.811 -0.289,-0.291 -0.384,-0.725 -1.189,-1.219 -0.54,-0.325 -1.124,-0.354 -1.432,0.124 1.427,0.468 0.959,2.204 -0.91,1.697 -0.569,-0.158 -1.403,0.439 -1.445,1.104 0.414,-0.419 1.258,-0.109 1.743,0.207 2.097,1.366 3.379,-0.611 3.662,-1.035 0.087,0 0.944,1.977 -2.037,2.505 -0.251,0.695 -0.932,1.918 -2.954,1.77 -0.665,2.348 -2.685,1.189 -2.615,0.124 -2.146,1.578 0.036,3.57 0.899,3.875 0.602,-0.049 0.469,-1.952 1.52,-1.627 0.257,0.074 -0.818,1.308 -0.403,1.869 0.964,0.548 0.945,-0.71 1.418,-0.242 0.236,0.829 1.186,1.288 1.965,1.377 m -8.561,-6.683 c -0.646,1.105 0.774,2.155 0.774,2.155 -0.047,-3.096 3.913,-0.971 5.984,-1.958 0.494,-0.226 0.844,-0.665 1.051,-1.124 -2.228,1.534 -6.335,-1.587 -7.809,0.927 m -15.431,34.472 c 0,0 6.472,-0.862 9.136,0.168 9.037,3.486 14.602,-0.409 14.602,-0.409 v -24.411 c 0,0 -3.221,1.745 -7.008,2.002 -3.657,0.241 -11.053,-2.684 -16.73,-2.293 z m -4.232,-5.844 h 3.08 v -3.028 h -3.08 z m 0,-10.558 h 3.08 v -3.028 h -3.08 z m -3.627,11.979 c 3.475,0 3.475,-5.302 0,-5.302 -3.536,0 -3.459,5.302 0,5.302 m 0,-10.589 c 3.475,0 3.499,-5.296 0,-5.296 -3.614,0 -3.614,5.296 0,5.296 m 4.193,-50.504 c -0.95,4.316 -0.925,6.392 -0.703,10.782 0.1,1.996 0.757,5.01 0.461,5.068 -0.288,0.05 -4.809,-11.588 -5.899,-13.872 -1.905,0.646 1.187,10.721 5.114,15.569 0.375,1.549 -2.058,-1.563 -3.508,-2.801 -1.334,-1.134 -3.016,-2.614 -4.853,-2.106 2.358,2.496 7.76,7.156 8.361,8.324 0.506,0.996 -3.685,-3.106 -8.114,-1.582 2.867,1.533 9.555,4.95 9.565,7.328 l -0.062,0.058 c -0.074,0 -5.146,-3.199 -8.443,-1.661 2.454,1.356 10.963,6.761 13.286,8.295 1.101,-0.242 1.546,0.157 1.893,0.404 -0.887,-0.059 -3.832,-0.518 -2.342,2.121 0.572,-2.368 4.703,-0.188 6.186,0.153 4.136,0.952 4.106,-3.467 3.753,-5.297 -0.133,-0.675 1.268,-1.159 1.953,-1.065 -1.181,-2.92 -3.205,-0.168 -3.449,-1.277 -0.097,-0.454 -1.448,-0.809 -1.443,-1.929 0.006,-1.528 0.604,-0.695 0.662,-1.883 0.058,-1.154 -0.491,-0.252 -0.37,-1.5 0.201,-1.977 3.468,0.262 4.822,-0.27 0.674,-0.272 1.122,-0.873 1.783,-0.755 0.193,0.163 0.106,0.907 0.077,1.174 -0.072,0.63 -1.233,0.699 -1.773,1.558 -0.469,0.744 0.535,2.993 1.08,3.654 0.779,-3.709 4.258,-2.55 4.778,-6.451 0.328,-1.104 -1.198,-2.327 0.04,-4.128 -0.92,-0.886 -2.02,-5.113 -0.101,-7.1 -0.328,-0.898 -0.752,-2.974 0.954,-4.188 -0.574,-1.217 -0.445,-2.721 0.042,-4.24 -1.061,-0.006 -0.854,5.972 -7.232,6.158 -0.141,0.05 -0.177,-0.675 0.004,-0.996 0.768,-1.346 1.793,-1.266 1.572,-4.428 -0.072,-1.08 -0.708,0.192 -1.046,0.489 -0.772,0.68 -1.369,0.774 -1.706,2.993 -2.592,-2.026 -2.34,-4.493 -2.178,-5.74 0.006,-0.005 -0.569,1.558 -1.228,3.161 -0.029,0.084 2.636,3.295 3.061,4.054 5.385,9.69 -3.475,-3.131 -3.495,-3.083 -0.473,1.106 -0.892,2.052 -1.171,2.357 0.066,0.129 1.547,1.775 2.212,3.172 4.167,8.665 -2.473,-2.89 -2.713,-2.678 -0.498,0.454 -0.912,1.021 -1.23,0.815 -0.077,-1.328 -0.394,-1.145 -0.303,-2.506 -0.693,-0.928 -2.183,-2.383 -3.223,-3.108 0,0 -0.257,2.407 -0.192,2.49 0.525,0.637 2.572,2.836 2.991,3.492 6.822,10.717 -3.194,-2.578 -3.213,-2.471 -0.069,0.425 -0.622,1.125 -1.201,1.722 0,0 2.212,3.018 2.757,4.137 4.145,8.532 -3.339,-3.782 -3.425,-3.738 -0.176,0.095 -0.195,0.095 -0.403,0.163 -0.207,0.069 0.227,2.461 0.513,3.891 0.569,2.85 -0.941,0.557 -1.35,-3.949 -0.385,-0.066 -1.32,-0.159 -1.672,-0.48 0.226,-1.203 0.51,-0.275 1.013,-1.43 0.607,-1.39 -0.838,-3.66 0.419,-5.321 0.486,-0.642 0.51,-0.532 0.414,-0.952 -0.771,0.056 -1.242,0.07 -1.725,-0.597 m 2.256,-6.775 c -0.974,1.849 -1.359,3.388 -1.879,5.138 0.737,-0.498 1.612,-0.72 2.409,-1.065 0.991,-2.584 0.027,-5.129 -0.53,-4.073 m 52.531,-0.642 c -0.91,-1.321 -1.279,1.243 -0.496,3.72 1.11,0.442 2.226,1.311 2.978,2.292 -0.438,-2.155 -1.18,-4.156 -2.482,-6.012 m 3.908,8.094 c -1.198,-0.4 -1.733,-1.728 -2.663,-2.511 -2.902,-2.865 -7.25,-1.83 -10.68,-3.369 -3.111,-1.128 -5.357,-4.004 -8.62,-4.728 -0.954,-0.311 -1.117,-0.79 -0.505,-0.77 0.36,0.005 2.345,-2.066 5.526,-0.469 1.06,0.534 4.356,2.372 4.912,2.482 -1.78,-1.707 -2.681,-3.221 -4.277,-4.119 -0.973,-0.547 -4.948,-1.967 -8.913,-1.203 -1.758,0.345 -3.11,-1.277 -2.661,-1.243 0.94,0.256 1.995,0.128 2.626,-0.705 1.152,-0.897 2.819,-2.026 4.251,-0.349 0.482,0.556 2.757,1.74 4.895,-0.435 -2.274,0.123 -2.051,-3.975 -6.359,-3.491 -1.6,0.01 -5.124,3.658 -6.131,2.534 -1.782,-2.008 3.833,-3.906 1.399,-6.426 -2.192,-2.273 -4.811,1.816 -4.811,1.816 1.369,-0.578 3.893,-0.948 2.782,1.282 -0.445,0.882 -1.283,1.677 -1.283,3.313 -0.192,0.814 -5.217,-6.469 -8.539,-3.175 -1.304,1.292 -3.95,4.123 -6.344,5.203 6.344,0.542 7.308,-1.998 7.612,-2.407 2.029,-2.737 3.903,0.044 4.337,0.528 0.661,0.754 1.596,1.79 1.263,1.947 -2.459,1.164 -5.272,1.411 -7.369,0.448 4.496,6.181 7.99,0.396 7.99,0.396 0.493,-0.306 -0.125,3.664 -4.572,3.881 -2.776,0.138 -5.219,-2.363 -7.133,-2.358 -1.556,0.005 -6.278,3.192 -7.39,6.022 2.747,-2.052 6.253,-3.236 8.433,-1.933 4.106,2.446 9.279,-1.243 9.525,-0.799 -1.151,0.898 -3.762,4.394 -10.813,2.402 -2.731,-1.574 -3.882,1.169 -5.565,1.213 2.858,2.534 4.839,1.242 5.84,1.164 0.236,0 -1.194,1.178 -2.197,1.277 -7.788,0.813 -12.721,2.953 -12.721,2.953 -0.04,0 0.65,1.574 3.999,0.44 0,0 -3.006,1.839 -2.979,4.202 0.096,1.454 0.801,3.018 -0.313,4.23 4.519,0.183 1.311,-6.124 4.482,-7.742 0.073,-0.029 -0.933,1.504 0.482,2.692 0.655,-1.853 2.266,-2.81 3.402,-3.106 0.27,0.143 0.597,0.71 0.597,0.71 -1.196,1.977 -1.354,4.275 -1.031,6.915 l 0.047,0.024 c 0.256,-0.015 0.691,-0.908 0.999,-1.563 0.656,-1.42 0.641,-3.457 1.955,-5.144 0.727,-0.922 1.182,-1.849 1.833,-2.299 0.283,0.657 0.071,1.786 0.029,2.087 -0.151,1.07 -0.821,2.945 1.012,4.601 0.852,-2.471 2.019,-1.751 2.176,-2.939 0.217,-1.658 0.146,-1.39 -0.021,-2.673 0.085,-1.751 1.68,-2.243 3.096,-3.373 3.196,-1.737 5.317,-2.673 6.707,-4.902 0.68,3.757 -9.458,4.512 -8.152,11.757 -0.136,2.9 0.36,3.141 -1.691,4.906 4.071,-0.118 6.287,-6.795 6.505,-8.018 0.409,-2.235 1.767,-2.353 3.634,-5.278 0.269,-0.092 -3.337,7.783 0.967,14.53 0,0 1.447,-3.502 0.761,-5.8 -0.409,-1.386 -0.028,-2.915 0.05,-3.782 0.076,-0.889 -0.175,3.195 2.894,5.306 0.193,-1.548 1.672,-3.935 0.267,-6.501 -1.706,-3.122 -1.827,-2.002 -1.852,-5.838 0.151,0.069 0.595,2.648 1.769,4.113 2.473,3.092 0.704,4.754 3.119,7.436 0.191,-1.337 0.529,-0.808 0.678,-2.002 0.323,-2.682 -2.476,-5.612 -1.855,-5.523 0.713,0.103 1.855,0.72 2.237,2.752 0,0 1.03,-1.855 0.086,-2.471 -1.707,-1.124 -2.059,-2.327 -1.792,-3.683 1.368,1.636 3.237,3.446 2.915,5.774 0.155,1.405 1.675,1.973 1.979,5.237 0.049,0.542 0.589,1.199 1.134,1.491 -0.236,-1.835 1.188,-3.735 -0.434,-5.978 0.37,-0.197 1.743,1.751 3.743,1.041 -4.019,-0.72 -2.848,-5.08 -5.922,-7.098 -0.93,-0.601 -0.775,-1.286 -1.051,-1.366 2.752,0.158 4.868,3.434 5.235,3.679 2.769,1.87 3.368,2.16 4.476,5.188 0.433,1.149 0.115,1.662 1.651,3.216 0.671,-1.534 -0.303,-4.71 -0.537,-5.39 -0.493,-1.465 -2.236,-2.733 -1.866,-2.733 7.412,3.27 7.315,5.47 9.089,7.807 0.529,0.893 3.165,2.446 4.157,2.594 -0.245,-0.488 -1.268,-1.312 -1.315,-2.194 -0.09,-1.642 -0.622,-2.643 -1.45,-3.956 0.461,-0.571 1.344,1.08 2.254,0.253 m -8.812,-1.322 c -0.965,-0.849 -1.596,-1.149 -1.384,-0.731 0.232,0.474 0.409,0.868 0.54,1.218 0.04,0.124 0.844,-0.487 0.844,-0.487 m -0.637,1.134 c 0.218,0.769 0.218,1.297 0.318,1.978 0.039,0.29 0.049,0.256 0.062,0.498 0.005,0.078 2.095,-1.736 2.212,-1.814 -0.526,-0.657 -0.972,-0.889 -1.47,-1.358 -0.359,0.306 -1.137,0.621 -1.122,0.696 m 11.725,19.356 c -1.876,1.938 -4.034,6.874 -4.921,6.15 -0.107,-0.04 3.57,-5.76 5.382,-9.153 0.919,-1.717 1.671,-4.178 1.737,-6.031 0.288,-9.138 -1.086,-8.439 -1.086,-8.439 -2.141,7.201 -3.147,15.57 -6.268,19.426 -1.245,1.549 3.339,-6.751 3.535,-14.222 -0.881,-0.232 -3.21,-1.165 -3.772,-2.076 0.299,5.034 -1.331,9.981 -1.847,11.174 -1.01,2.328 0.449,-5.415 0.55,-7.2 0.005,-0.073 -8.358,10.746 -3.309,2.407 1.31,-2.155 3.349,-3.57 3.353,-3.605 0.033,-1.504 -0.068,-2.609 -0.352,-3.413 -0.515,-0.414 -11.387,14.464 -5.377,4.162 0.747,-1.278 5.104,-5.144 5.069,-5.222 -0.278,-0.587 -0.767,-1.44 -1.444,-2.072 -0.112,0.115 -2.506,1.88 -2.526,1.988 -0.175,1.149 -0.187,2.234 -1.605,1.421 0,0 -5.354,6.232 -2.873,1.864 1.08,-1.909 1.793,-2.121 2.079,-2.461 0,0 -0.826,-1.13 -1.095,-2.323 -0.105,-0.479 -4.646,5.025 -2.863,1.568 0.57,-1.104 2.641,-2.318 2.622,-2.392 -0.213,-0.725 -0.43,-1.42 -0.659,-1.873 -0.281,-0.577 -4.266,-3.753 -4.261,-3.748 0,0 0.782,2.514 2.475,3.748 0.965,0.704 0.969,0.548 1.611,0.951 -0.015,0.37 -0.374,0.981 -0.838,1.14 -0.582,0.207 -2.466,-0.138 -2.466,-0.138 0.177,0.941 -0.651,2.973 -0.642,5.212 -0.705,-0.074 -1.953,-1.169 -2.25,-1.79 -0.217,-3.704 -1.026,-2.595 -1.779,-5.262 -0.818,1.114 0.058,2.722 -0.747,3.768 -1.101,1.44 -1.267,2.411 -1.434,4.181 0.258,0.144 1.387,1.391 0.359,3.999 -0.167,4.105 1.667,5.673 -1.612,8.547 0.278,0.089 0.475,2.146 0.475,2.151 2.414,-1.288 1.934,1.489 2.878,2.031 1.494,0.873 1.223,1.77 0.55,2.89 4.278,-1.218 -0.19,-4.132 1.743,-4.202 1.403,-0.044 2.343,0.316 2.954,1.258 0.647,0.996 -0.11,1.607 1.702,3.23 0.177,0.153 0.662,1.233 -0.777,1.533 -0.313,0.064 0,1.293 0,1.293 -1.151,-0.977 -1.509,-2.343 -3.363,-1.475 -0.945,0.444 -1.561,0.005 -1.95,-0.183 0,0 -0.196,0.775 0.586,1.036 2.029,0.68 2.53,1.49 2.419,1.928 -0.274,1.056 -0.357,0 -0.298,1.11 0.024,0.444 0.535,1.04 0.96,1.553 1.372,1.657 2.349,1.036 2.697,0.888 0.796,0.617 0.939,0.577 1.68,0.868 1.273,0.504 4.031,-0.33 5.572,-1.046 0.747,-0.335 1.634,-0.537 2.509,-0.344 -0.009,-0.454 -0.323,-0.696 -0.636,-0.785 -0.481,-0.152 -1.055,0 -1.016,-0.355 0.02,-0.202 0.676,-0.242 1.09,-0.355 2.284,-0.616 5.237,-2.663 3.3,-2.234 -0.235,0.049 1.397,-1.218 2.626,-2.865 l 4.351,-4.227 c -0.202,-0.241 -1.725,-0.024 -6.558,4.508 -0.689,-0.612 5.879,-5.562 8.588,-10.814 -0.232,-0.167 -3.61,1.065 -4.828,2.322 m -15.325,38.447 c 0.005,-0.523 0.474,-1.278 0.786,-1.559 0.356,0.267 0.871,0.72 1.633,0.868 0.081,-0.365 0.256,-0.587 0.545,-0.794 l 0.993,1.079 c 0,0 -0.443,0.351 -0.7,0.667 0,0.227 0,2.401 0.097,2.515 -0.747,0.666 -1.295,0.755 -1.618,0.705 -0.599,-0.089 -1.221,-0.863 -1.412,-1.119 -0.149,-0.208 -0.107,-0.464 0,-0.563 0.115,-0.093 0.27,-0.192 0.438,-0.295 -0.029,0.019 -0.057,0.034 -0.081,0.044 -0.281,-0.261 -0.695,-1.031 -0.681,-1.548 m 1.575,-0.691 c -0.268,0.217 -0.958,1.055 -0.451,1.987 -0.069,0.045 -0.145,0.079 -0.212,0.124 0.471,-0.267 1.022,-0.493 1.451,-0.632 0,-0.375 -0.016,-0.71 -0.016,-0.828 0,-0.163 0.016,-0.291 0.025,-0.415 -0.252,-0.014 -0.473,-0.083 -0.797,-0.236 m -1.01,2.624 c -0.091,0.069 -0.102,0.113 0.014,0.295 0.222,0.331 0.476,0.617 0.652,0.602 0.152,0 1.132,-0.518 1.101,-0.794 0.031,-0.197 0.04,-0.607 0.035,-1.021 -0.488,0.178 -1.45,0.627 -1.802,0.918 m -14.79,3.422 c 0.367,-0.01 0.752,0.104 1.149,-0.483 0.466,-0.666 1.921,-3.792 2.269,-5.105 0.167,0.277 1.62,4.478 1.701,4.922 0.106,0.439 0.409,0.863 0.839,0.991 0.438,0.114 0.399,0.301 0.071,0.336 -0.328,0.039 -1.42,-0.054 -1.808,-0.113 -0.394,-0.059 -0.394,-0.252 -0.066,-0.291 0.323,-0.04 0.39,-0.104 0.56,-0.543 0.157,-0.439 -0.632,-2.446 -0.822,-2.915 -0.234,0.346 -1.067,2.18 -1.067,2.427 0,0.178 0.369,0.35 0.525,0.399 0.308,0.089 0.303,0.302 0.072,0.345 -0.652,0.1 -2.945,0.301 -3.354,0.346 -0.288,0.029 -0.424,-0.316 -0.069,-0.316 m 10.553,-2.115 c -0.004,-1.041 0.146,-2.609 0.368,-3.236 0.143,-0.374 0.567,-0.981 0.853,-0.794 0.193,0.119 0.602,0.933 0.733,1.036 0.224,0.182 0.004,0.494 -0.186,0.31 -0.206,-0.187 -0.39,0.099 -0.446,0.291 -0.069,0.188 -0.261,2.481 -0.165,2.525 0,0 1.859,0.227 2.04,0.227 0.125,0 0.13,0.405 0,0.405 -0.233,0 -1.803,-0.03 -1.843,0.054 -0.111,0.341 -0.143,0.75 0.126,1.312 0.136,0.286 -0.126,0.404 -0.227,0.118 -0.096,-0.276 -0.885,-1.361 -1.696,-1.711 -0.419,-0.168 0.508,-0.552 0.443,-0.537 m -2.914,2.012 h 0.355 l 0.433,0.374 v 0.602 l -0.581,0.562 -0.575,-0.493 0.01,-0.69 z m -1.282,-1.668 0.888,-0.507 0.042,-2.392 c 0.068,-0.286 0.303,-0.567 0.655,-0.918 h 0.718 l 0.762,0.997 c -0.555,0.094 -0.782,0.202 -1.171,0.641 l 0.014,2.466 -0.782,0.784 -0.268,-0.03 -1.228,-1.075 c -0.126,-0.187 0.207,-0.187 0.37,0.034 m 3.943,-6.129 c -0.657,0.236 -1.241,0.665 -1.438,1.016 -0.178,-0.148 -0.762,-0.785 -1.093,-0.986 -0.073,0.349 -0.609,0.725 -1.045,0.803 -0.14,-0.152 -1.167,-0.932 -1.63,-1.158 -0.145,-0.07 -0.091,-0.385 0.112,-0.302 0.192,0.079 0.505,0.321 0.872,0.494 0.424,-0.168 0.905,-0.598 0.944,-1.48 0.042,-0.976 -0.468,-2.007 -1.022,-2.476 0.959,0.251 1.084,0.819 1.609,1.5 0.289,-0.434 0.829,-0.952 1.221,-1.174 0.278,0.182 1.062,1.065 1.233,1.247 -0.564,0.154 -1.657,0.726 -1.929,1.337 -0.216,0.448 -0.167,0.661 0.049,1.021 0.193,-0.252 1.517,-0.863 2.117,0.158 m -1.12,-9.479 c -0.197,-0.182 -0.732,-0.049 -0.804,0.128 -0.059,0.198 -0.125,2.461 -0.034,2.501 0,0 0.645,0.014 0.818,0.01 0.136,0 0.146,0.409 0.015,0.409 -0.237,0.005 -0.756,0.054 -0.789,0.148 -0.074,0.212 0.02,0.897 0.153,1.184 0.136,0.281 -0.126,0.404 -0.227,0.128 -0.106,-0.296 -0.784,-1.012 -1.474,-1.347 -0.39,-0.192 0.525,-0.557 0.463,-0.542 -0.014,-1.036 -0.221,-2.728 0.13,-3.265 0.223,-0.33 0.723,-0.548 1.056,-0.414 0.323,0.128 0.732,0.769 0.854,0.878 0.244,0.177 0.037,0.37 -0.161,0.182 m 5.079,-0.379 c -0.085,0.374 0.02,1.78 0.031,2.387 -0.233,0.35 -0.61,0.769 -0.994,1.055 -0.274,-0.247 -0.647,-0.578 -1.076,-1.036 0.324,0.045 0.955,-0.084 0.984,-0.355 0.019,-0.35 0.072,-1.115 0,-1.706 -0.071,-0.597 -1.682,-0.326 -1.7,0.079 -0.036,0.414 0.08,1.603 0.09,2.164 -0.226,0.35 -0.365,0.543 -0.784,0.854 -0.242,-0.247 -0.666,-0.528 -1.065,-0.967 0.328,-0.024 0.601,-0.099 0.762,-0.409 0.163,-0.316 0.027,-1.632 0.046,-2.14 0.025,-0.498 0.329,-0.602 0.718,-1.006 0.387,0.093 1.48,0.547 1.847,0.803 -0.034,-0.404 0.481,-0.858 0.784,-0.952 0.202,0.223 0.424,0.346 0.723,0.622 -0.294,0.192 -0.254,0.222 -0.366,0.607 m -12.913,0.177 c -0.328,-0.153 -0.656,-0.035 -0.685,0.341 -0.029,0.379 -0.029,4.063 0,4.591 -0.254,0 -0.964,0.014 -1.203,0.039 0.021,-0.498 0.202,-4.774 0.147,-5.37 -0.036,-0.341 0.419,-0.696 0.839,-0.982 0.202,0.242 0.641,0.883 1.003,1.155 0.212,0.177 0.067,0.29 -0.101,0.226 m 15.781,9.38 c -1.378,-0.488 -2.231,-1.574 -2.271,-2.861 -0.024,-0.754 0.616,-2.307 1.939,-2.312 0.409,0.389 0.838,0.808 1.267,1.089 0.274,0.489 0.673,1.278 0.641,1.885 -0.034,0.739 -0.488,1.844 -1.576,2.199 m 0.096,-4.374 c -0.251,0.118 -1.185,0.843 -1.398,1.391 -0.278,0.739 -0.278,1.563 0.511,2.041 0.616,-0.227 1.332,-0.833 1.398,-1.391 0.086,-0.72 -0.121,-1.578 -0.511,-2.041 m -11.084,-4.409 c -0.231,-0.158 -0.388,-0.064 -0.776,0.349 0.015,0.228 -0.027,2.067 0.064,2.171 -0.352,0.374 -0.675,0.897 -1.089,0.858 -0.608,-0.054 -1.374,-1.11 -1.567,-1.381 -0.152,-0.197 0.005,-0.952 0.121,-1.045 0.039,-0.04 0.062,-0.04 0.096,-0.075 -0.288,-0.266 -0.794,-0.966 -0.781,-1.474 0.01,-0.528 0.261,-1.031 0.564,-1.312 0.521,0.361 0.844,0.858 1.707,1.189 0.106,-0.4 0.39,-0.464 0.728,-0.715 0.201,0.221 0.933,1.119 1.094,1.277 0.163,0.158 0.072,0.311 -0.161,0.158 m -1.711,-0.227 c -0.234,-0.168 -0.515,-0.316 -0.843,-0.473 -0.258,0.212 -0.636,0.394 -0.178,1.267 0.339,-0.188 0.512,-0.069 1.036,-0.015 -0.005,-0.326 -0.015,-0.626 -0.015,-0.779 m -1.284,1.367 c -0.094,0.073 -0.121,0.773 -0.011,0.95 0.218,0.331 0.361,0.395 0.536,0.395 0.158,-0.01 0.774,-0.429 0.737,-0.71 0.032,-0.187 0.037,-0.572 0.037,-0.962 -0.461,-0.058 -0.784,-0.108 -1.299,0.327 m 9.198,7.185 c 0.265,-0.297 0.54,-0.637 0.949,-0.637 0.393,-0.005 0.808,0.178 0.939,0.345 -0.328,0.262 -1.075,1.051 -1.227,1.199 -0.378,-0.208 -2.02,-1.066 -2.161,-2.047 -0.203,-1.455 0.256,-1.751 0.898,-2.545 0.36,-0.453 0.959,-0.478 1.232,-0.404 0.294,0.207 1.369,1.228 1.49,1.351 0.111,0.129 -0.045,0.242 -0.183,0.118 -0.131,-0.123 -0.078,-0.177 -0.256,-0.202 -0.182,-0.029 -0.92,-0.153 -1.344,0.07 -0.53,0.276 -1.228,0.937 -1.065,1.735 0.116,0.597 0.535,0.838 0.728,1.017 m 5.03,-7.221 c -0.223,0.247 -0.516,0.597 -0.967,0.943 -0.271,-0.183 -1.048,-0.898 -1.379,-1.086 0.477,-0.009 1.184,-0.167 1.209,-0.612 0.015,-0.355 -0.025,-2.588 0,-2.998 0.293,-0.059 0.636,-0.029 1.055,-0.004 0.02,0.315 0.014,2.889 0.02,3.2 0.146,0.079 0.308,0.158 0.395,0.232 0.16,-0.123 0.66,-0.695 0.949,-0.848 0.197,0.153 0.712,0.602 0.939,0.818 0.237,0.237 -0.02,0.391 -0.227,0.197 -0.162,0.194 -0.607,0.558 -1.001,0.84 -0.227,-0.188 -0.697,-0.529 -0.993,-0.682 m 1.994,4.562 c 0.176,-0.054 0.498,-0.104 0.834,-0.123 0.212,-0.029 0.141,0.325 -0.023,0.389 -0.16,0.055 -0.52,0.124 -0.742,0.129 -0.241,0 -0.352,-0.311 -0.069,-0.395 m 0.015,0.769 c 0.18,-0.049 0.515,-0.108 0.838,-0.123 0.222,-0.02 0.151,0.321 -0.009,0.385 -0.173,0.069 -0.535,0.138 -0.765,0.138 -0.227,0 -0.348,-0.325 -0.064,-0.4 m -18.72,-1.311 c 0.752,-0.425 2.014,-0.346 2.964,-0.089 0.357,0.104 0.554,0.123 0.545,-0.183 0,-0.197 0.273,-0.153 0.273,-0.009 0,0.138 0.01,1.607 0.01,1.77 0,0.183 -0.264,0.158 -0.264,0 0,-0.246 0,-0.315 -0.241,-0.666 -0.651,-0.966 -2.289,-0.927 -3.161,0.252 -0.299,0.404 -0.57,0.941 -0.228,1.04 0.348,0.109 1.399,-0.108 2.092,-0.167 0.419,-0.03 1.378,-0.124 1.499,-0.198 0.106,-0.078 0.269,-0.182 0.269,0.03 0.009,0.202 0.009,0.882 0.009,1.09 0,0.202 -0.157,0.103 -0.273,0.034 -0.121,-0.088 -1.147,-0.251 -1.557,-0.33 -0.413,-0.074 -1.68,-0.178 -2.013,-0.064 -0.343,0.113 -0.233,0.804 0.076,1.193 0.883,1.169 2.67,1.09 3.316,0.114 0.222,-0.336 0.222,-0.419 0.222,-0.671 0,-0.158 0.26,-0.173 0.26,0 0.014,0.168 0.019,1.933 0.019,2.076 0,0.139 -0.257,0.192 -0.257,0 0,-0.128 -0.283,-0.202 -0.567,-0.128 -0.555,0.172 -2.17,-0.074 -2.892,-0.469 -0.641,-0.369 -1.628,-1.213 -1.613,-2.273 0.018,-1.746 0.713,-1.894 1.512,-2.352 m -4.182,-16.25 c -0.748,-0.863 0.101,-1.568 0.101,-1.568 -0.309,0.049 -0.752,0.153 -1.035,0.315 -0.055,-0.315 0.374,-0.423 0.577,-0.562 1.58,-0.65 2.621,0.868 4.009,1.14 v 0.059 c -0.93,0.133 -1.663,0.783 -2.51,1.104 -1.182,0.445 -2.43,-0.463 -2.43,-0.606 0,-0.316 0.338,-0.478 1.288,0.118 m 0.988,0.064 c 0.36,-0.103 1.208,-0.582 1.512,-0.784 l -1.512,-0.759 c 0,0 0.419,0.453 0.419,0.779 -0.004,0.444 -0.419,0.764 -0.419,0.764 m -4.674,20.619 h 0.333 l 0.404,0.365 v 0.577 l -0.54,0.553 -0.54,-0.484 0.01,-0.671 z m 1.195,3.452 c 0.193,-0.024 0.457,0.439 -0.715,0.513 -0.212,0.01 -0.542,-0.385 0.715,-0.513 m -0.039,-13.419 c -0.121,-0.187 -0.525,-0.054 -0.642,0.134 0,0.216 -0.206,2.524 -0.115,2.633 -0.333,0.375 -0.905,1.208 -1.293,1.164 -0.561,-0.054 -1.399,-0.858 -1.58,-1.12 -0.138,-0.197 0.039,-1.144 0.146,-1.237 0.029,-0.02 0.044,-0.03 0.071,-0.054 -0.374,-0.385 -0.653,-0.814 -0.653,-1.357 0.022,-0.512 0.192,-1.016 0.712,-1.247 0.467,0.335 1.055,0.749 1.632,0.858 0.278,-0.341 0.711,-0.563 0.97,-0.765 0.178,0.212 0.752,0.676 0.91,0.824 0.151,0.153 0,0.37 -0.158,0.167 m -2.737,-0.133 c -0.227,0.197 -1.055,0.765 -0.319,1.381 0.39,-0.266 0.613,-0.227 1.101,-0.182 -0.021,-0.271 -0.04,-0.513 -0.04,-0.617 0,-0.124 0.053,-0.212 0.081,-0.315 -0.253,-0.089 -0.576,-0.138 -0.823,-0.267 m 0.803,1.455 c -0.423,-0.01 -0.789,0.124 -1.252,0.523 -0.086,0.079 -0.172,0.601 -0.072,0.774 0.202,0.326 0.202,0.424 0.385,0.424 0.136,0 0.989,-0.518 0.945,-0.794 0.029,-0.197 0.014,-0.562 -0.006,-0.927 m 1.995,12.847 c 0.191,0.005 0.338,0.449 -0.722,0.507 -0.207,0.021 -0.53,-0.557 0.722,-0.507 m -4.768,-0.178 c -0.363,-0.305 -0.863,-0.784 -1.327,-1.218 0.185,-0.202 1.201,-0.681 1.773,-0.665 0.858,0.019 1.654,0.463 2.146,0.858 0.892,0.709 0.579,1.459 -0.328,1.992 -0.087,0.05 -0.173,0.069 -0.26,0.084 0.567,0.448 1.06,0.848 1.188,1.006 -0.364,0.251 -0.763,0.858 -1.646,0.897 -0.883,0.035 -1.884,-0.764 -2.207,-1.272 -0.435,-0.665 0.096,-1.248 0.661,-1.682 m 1.58,-1.292 c -0.525,-0.241 -1.465,0.439 -1.609,0.715 0.192,0.168 0.554,0.459 0.959,0.779 0.297,-0.133 0.606,-0.27 0.934,-0.463 0.481,-0.271 0.236,-0.794 -0.284,-1.031 m -0.954,3.467 c 0.278,-0.044 0.89,-0.37 1.253,-0.71 -0.081,-0.059 -0.304,-0.246 -0.551,-0.439 -0.14,-0.025 -0.288,-0.039 -0.438,-0.025 -0.452,0.064 -0.668,0.405 -0.875,0.676 -0.217,0.291 0.34,0.528 0.611,0.498 m 3.908,-7.431 -0.453,0.67 -0.242,-0.035 -1.046,-0.961 c -0.283,-0.257 -0.028,-0.37 0.284,-0.094 l 0.54,-0.326 0.02,-2.263 c 0.054,-0.271 0.293,-0.37 0.627,-0.71 l 0.584,0.503 0.465,0.498 c -0.525,0.103 -0.525,0.069 -0.798,0.315 z m -7.229,3.757 c 0.391,0 0.892,0.518 1.141,0.636 0.526,0.256 0.333,0.518 -0.274,0.38 -1.319,-0.335 -1.932,0.72 -2.066,1.006 0.531,0.542 1.441,1.43 1.99,1.889 -0.363,0.33 -0.515,0.893 -1.161,0.937 -0.565,-0.015 -1.884,-0.656 -2.116,-2.328 -0.217,-1.607 1.287,-2.475 2.486,-2.52 m -0.833,4.306 c 0.144,-0.371 0.529,-0.632 0.741,-0.76 -0.374,-0.37 -0.959,-1.03 -1.203,-1.208 -0.332,1.07 -0.207,1.439 0.462,1.968 m -9.329,-11.324 c 0.192,0.385 0.279,0.514 0.622,0.962 -0.671,-0.109 -1.192,0.01 -1.682,0.385 -1.017,0.784 -0.703,2.051 -0.404,2.48 0.549,0.814 1.324,-0.35 1.464,-0.502 0.177,0.216 0.491,0.522 0.794,0.759 -0.298,0.4 -0.547,0.769 -0.754,1.011 -0.646,-0.232 -1.596,-0.814 -2.005,-1.421 -0.584,-0.892 -0.903,-2.312 0.111,-3.141 0.48,-0.399 0.875,-0.71 1.854,-0.533 m 1.541,3.393 c -0.101,-0.232 0.04,-1.06 0.146,-1.153 0.076,-0.065 0.131,-0.109 0.197,-0.159 -0.375,-0.349 -0.727,-0.646 -0.718,-1.168 0.015,-0.498 0.415,-0.942 0.93,-1.179 0.274,0.42 0.703,0.676 1.161,0.784 0.039,-0.4 0.131,-0.69 0.395,-0.892 0.187,0.207 0.939,0.858 1.085,1.006 0.163,0.147 0.042,0.33 -0.146,0.147 -0.111,-0.098 -0.38,0.055 -0.461,0.183 0,0.217 0,2.515 0.097,2.624 -0.339,0.37 -0.661,1.144 -1.041,1.104 -0.574,-0.049 -1.398,-0.719 -1.645,-1.297 m 1.697,-2.189 c -0.005,-0.124 0,-0.232 0,-0.34 -0.121,-0.03 -0.264,-0.06 -0.434,-0.149 -0.231,0.198 -1.34,0.563 -0.616,1.15 0.448,-0.267 0.621,-0.064 1.05,0.207 0.005,-0.375 0,-0.735 0,-0.868 m -0.674,2.781 c 0.143,-0.01 0.659,-0.636 0.622,-0.912 0.026,-0.148 0.037,-0.43 0.047,-0.72 -0.642,-0.409 -0.844,-0.4 -1.282,0.094 -0.218,0.261 -0.198,0.734 -0.097,0.917 0.198,0.306 0.546,0.621 0.71,0.621 m 1.783,5.751 c 0.023,-0.355 -0.034,-2.521 -0.005,-2.92 0.27,-0.059 0.602,-0.035 0.987,-0.015 0.029,0.316 0.015,3.028 0.015,3.334 0.14,0.079 0.293,0.162 0.363,0.227 0.162,-0.123 0.475,-0.582 0.726,-0.735 0.197,0.148 0.698,0.469 0.915,0.68 0.222,0.223 -0.015,0.385 -0.217,0.193 -0.153,0.173 -0.53,0.567 -0.732,0.804 -0.217,-0.173 -0.713,-0.474 -0.989,-0.631 -0.219,0.251 -0.486,0.251 -0.919,0.586 -0.238,-0.182 -0.77,-0.567 -1.056,-0.917 0.506,-0.148 0.883,-0.172 0.912,-0.606 m -5.017,-3.571 c 0.695,-0.409 1.662,-0.143 2.539,0.114 0.347,0.093 0.395,-0.129 0.559,-0.375 0.284,-0.38 0.516,-0.139 0.309,0.172 -0.076,0.099 -0.222,0.262 -0.232,0.459 0,0.133 0.02,1.519 0.02,1.696 0,0.163 -0.328,0.148 -0.328,0 -0.015,-0.246 0.019,-0.665 -0.202,-1.011 -0.607,-0.937 -1.768,-1.326 -2.579,-0.172 -0.279,0.379 -0.345,0.961 -0.38,1.376 -0.057,0.552 0.363,1.267 0.389,1.331 1.033,1.361 2.474,0.351 2.59,-0.202 0.081,-0.37 0.162,-0.819 0.162,-1.055 -0.01,-0.158 0.328,-0.143 0.338,0.019 0,0.173 0.01,2.259 0.01,2.407 0.005,0.133 -0.278,0.177 -0.283,0 -0.015,-0.33 -0.207,-0.36 -0.464,-0.281 -0.521,0.158 -1.687,0.409 -2.358,0.019 -0.596,-0.35 -1.505,-1.168 -1.491,-2.199 0.017,-1.697 0.658,-1.84 1.401,-2.298 m 7.961,-4.922 c -0.15,-0.147 -0.544,0.198 -0.564,0.222 -0.126,0.143 -0.313,2.116 -0.227,2.16 0,0 1.252,0.153 1.417,0.153 0.124,-0.01 0.144,0.39 0.005,0.395 -0.202,0 -1.156,-0.134 -1.19,-0.04 -0.05,0.208 -0.183,0.912 0.131,1.514 0.147,0.262 -0.006,0.512 -0.102,0.247 -0.11,-0.276 -0.892,-1.489 -1.403,-1.692 -0.414,-0.168 -0.362,-0.267 -0.101,-0.331 0.212,-0.044 0.435,-0.295 0.395,-0.29 -0.047,-1.011 -0.144,-2.259 0.17,-2.781 0.197,-0.341 0.75,-0.686 0.996,-0.469 0.288,0.232 0.506,0.621 0.622,0.72 0.221,0.183 0.039,0.365 -0.149,0.192 m -1.038,-6.904 c -0.254,-0.055 -0.298,-0.103 -0.298,0.054 0,0.296 -0.116,1.642 -0.138,2.5 -0.029,0.858 -0.448,1.11 -0.691,1.234 -0.241,-0.282 -0.794,-0.622 -1.122,-0.898 -0.246,0.178 -0.372,0.587 -0.645,1.021 -0.319,-0.296 -0.566,-0.568 -1.027,-0.932 0.212,-0.247 0.578,-0.557 0.612,-0.981 0.025,-0.43 0.011,-2.412 0.035,-2.915 0.34,0 0.278,-0.034 0.86,-0.01 -0.056,0.335 -0.011,2.914 -0.011,3.285 0.223,0.207 0.253,0.241 0.5,0.423 0.182,-0.158 0.601,-0.246 0.601,-0.522 0,-0.282 0.081,-1.504 -0.014,-1.959 -0.122,-0.547 -0.072,-0.946 0.231,-1.503 0.223,0.252 1.065,0.843 1.253,0.991 0.178,0.157 0.086,0.276 -0.146,0.212 m -5.434,4.271 c -0.491,-0.331 -2.115,-1.016 -2.364,-2.693 -0.218,-1.613 1.309,-2.574 2.041,-2.884 0.182,0.369 0.554,0.971 0.924,1.395 0.277,0.325 -0.032,0.409 -0.278,0.162 -0.338,-0.369 -1.344,-0.019 -1.61,0.464 0.483,0.37 1.751,1.425 2.302,1.879 -0.365,0.34 -0.924,1.194 -1.015,1.677 m -1.47,-3.304 c -0.459,0.576 -0.708,1.514 0.676,2.362 0.152,-0.375 0.616,-1.09 0.828,-1.214 -0.362,-0.364 -1.258,-0.971 -1.504,-1.148 m 9.762,6.233 c -0.283,0.316 -0.39,0.572 -0.451,0.927 -0.059,0.375 -0.368,0.346 -0.368,0 0,-0.33 0.077,-1.494 0.136,-1.765 0.062,-0.281 0.343,-0.187 0.37,0.024 0.03,0.203 0.165,0.257 0.348,0.272 0.399,0.039 1.04,-0.208 1.753,-0.144 0.843,0.06 1.504,1.367 1.141,2.388 -0.34,0.971 -1.419,0.798 -2.147,1.03 -0.666,0.183 -0.944,0.602 -0.212,1.08 0.853,0.553 1.918,-0.33 2.019,-0.518 0.158,-0.286 0.289,-0.28 0.289,0.089 0.019,0.799 -0.049,0.345 -0.131,1.1 -0.029,0.271 -0.222,0.296 -0.244,0.03 -0.015,-0.262 -0.338,-0.178 -0.579,-0.178 -0.243,0.005 -0.959,0.114 -1.576,-0.227 -0.395,-0.232 -1.293,-0.932 -0.787,-1.776 0.291,-0.492 2.02,-0.892 2.444,-1.173 0.433,-0.286 0.53,-1.006 0.116,-1.341 -0.511,-0.409 -1.903,-0.065 -2.121,0.182 m 2.005,-1.657 c -0.153,-0.301 -0.405,-0.582 -0.859,-0.789 0.277,-0.242 0.642,-0.553 0.879,-0.71 0.274,0.311 0.525,0.591 0.838,0.888 -0.313,0.064 -0.671,0.217 -0.858,0.611 m -1.628,-4.665 c -0.366,-0.394 -0.579,-0.212 -0.853,0.049 -0.131,0.153 -0.182,1.569 -0.087,1.613 0,0 0.684,0.093 0.849,0.093 0.128,0 0.119,0.395 -0.02,0.395 -0.202,0 -0.811,-0.005 -0.848,0.093 -0.076,0.198 0.121,1.15 0.158,1.578 0.025,0.307 -0.139,0.4 -0.217,0.12 -0.086,-0.282 -0.742,-1.49 -1.132,-1.776 -0.328,-0.242 0.39,-0.582 0.323,-0.562 0.025,-1.016 -0.121,-2.057 0.222,-2.575 0.222,-0.315 0.901,-0.552 1.021,-0.247 0.111,0.311 0.626,0.943 0.742,1.046 0.212,0.188 0.025,0.361 -0.158,0.173 m 2.848,-0.069 -0.014,2.076 -0.661,0.972 -0.251,-0.035 -1.041,-0.971 c -0.274,-0.242 -0.033,-0.355 0.286,-0.09 l 0.687,-0.359 0.016,-2.194 c 0.061,-0.267 0.303,-0.336 0.636,-0.676 l 0.434,0.438 0.448,0.503 c -0.507,0.094 -0.271,0.084 -0.54,0.336 m 2.819,6.125 c 0.278,0.37 -0.005,0.592 -0.198,0.168 -0.15,-0.331 -0.949,0.029 -1.242,0.305 -0.383,0.365 -0.625,1.312 -0.318,1.647 0.312,0.336 0.764,0.183 1.344,0.198 0.38,0.019 0.461,0.374 0.524,0.552 -0.182,0.089 -0.458,0.247 -0.823,0.463 -0.372,-0.241 -0.944,-0.729 -1.195,-0.936 -0.309,-0.261 -0.946,-1.164 -0.597,-2.136 0.354,-1.001 1.179,-1.312 1.792,-1.361 0.187,0.341 0.525,0.863 0.713,1.1" /></g><g
           transform="translate(141.251,49.8564)"
           id="g24"><path
             id="path26"
             style="fill:#98172e;fill-opacity:1;fill-rule:nonzero;stroke:none"
             d="m 0,0 c 0,-10.682 5.132,-18.217 11.757,-22.769 6.044,-4.059 13.165,-5.548 20.614,-5.548 5.296,0 11.261,1.243 13.078,1.909 0.915,0.33 1.909,0.656 2.898,0.823 1.243,1.573 3.395,7.037 3.975,11.343 -0.334,0.582 -1.571,0.745 -2.15,0.33 -1.904,-4.882 -6.626,-11.84 -17.303,-11.84 -13.579,0 -24.592,9.606 -24.592,26.99 0,17.142 10.766,25.17 23.431,25.17 12.003,0 15.731,-6.46 16.975,-12.087 0.574,-0.498 1.821,-0.414 2.231,0.162 -0.664,5.051 -1.075,10.268 -1.157,12.172 -0.746,-0.079 -1.323,0.084 -2.318,0.33 -3.893,1.08 -10.186,1.988 -14.657,1.988 -8.607,0 -16.305,-2.318 -22.349,-7.033 C 4.14,17.054 0,9.188 0,0 m 105.307,-0.251 c 3.974,0 4.14,-0.164 4.14,-2.649 v -11.673 c 0,-8.694 0,-9.523 -5.051,-10.351 l -1.57,-0.247 c -0.501,-0.492 -0.333,-1.819 0.162,-2.07 3.646,0.167 6.626,0.251 10.019,0.251 3.228,0 6.044,-0.084 10.018,-0.251 0.496,0.251 0.662,1.74 0.168,2.07 l -1.989,0.247 c -4.805,0.582 -4.969,1.657 -4.969,10.351 v 29.807 c 0,8.689 0.164,9.932 4.969,10.43 l 1.735,0.162 c 0.501,0.336 0.335,1.825 -0.16,2.072 -3.728,-0.168 -6.544,-0.247 -9.772,-0.247 -3.393,0 -6.211,0.079 -10.019,0.247 -0.495,-0.247 -0.663,-1.736 -0.162,-2.072 l 1.57,-0.162 c 4.885,-0.498 5.051,-1.741 5.051,-10.43 V 5.71 c 0,-2.568 -0.166,-2.647 -4.14,-2.647 H 81.633 c -3.976,0 -4.143,0.079 -4.143,2.647 v 9.524 c 0,8.689 0.167,9.932 4.971,10.43 l 1.57,0.162 c 0.493,0.336 0.334,1.825 -0.167,2.072 -3.56,-0.168 -6.374,-0.247 -9.599,-0.247 -3.561,0 -6.379,0.162 -10.433,0.247 -0.5,-0.247 -0.663,-1.736 -0.168,-2.072 l 2.15,-0.162 c 4.308,-0.331 4.89,-1.741 4.89,-10.43 v -29.807 c 0,-8.694 -0.168,-9.523 -4.804,-10.351 l -1.408,-0.247 c -0.495,-0.492 -0.327,-1.819 0.166,-2.07 3.228,0.083 6.046,0.251 9.607,0.251 3.225,0 6.039,-0.084 10.514,-0.251 0.493,0.251 0.66,1.74 0.16,2.07 l -2.399,0.247 c -4.636,0.497 -5.05,1.657 -5.05,10.351 V -2.9 c 0,2.485 0.167,2.649 4.143,2.649 z m 38.247,-14.159 c 0,-8.774 -0.165,-9.932 -5.05,-10.514 l -2.069,-0.247 c -0.496,-0.492 -0.329,-1.819 0.166,-2.07 4.141,0.167 6.953,0.251 10.431,0.251 3.31,0 6.128,-0.084 10.263,-0.251 0.501,0.251 0.666,1.74 0.168,2.07 l -2.071,0.247 c -4.885,0.582 -5.05,1.74 -5.05,10.514 v 29.475 c 0,8.779 0.165,10.185 5.05,10.599 l 2.071,0.162 c 0.498,0.336 0.333,1.825 -0.168,2.072 -4.135,-0.168 -6.953,-0.247 -10.263,-0.247 -3.478,0 -6.29,0.079 -10.431,0.247 -0.495,-0.247 -0.662,-1.736 -0.166,-2.072 l 2.069,-0.162 c 4.885,-0.414 5.05,-1.82 5.05,-10.599 z M 167.809,0 c 0,-10.682 5.139,-18.217 11.756,-22.769 6.047,-4.059 13.168,-5.548 20.621,-5.548 5.295,0 11.258,1.243 13.078,1.909 0.912,0.33 1.903,0.656 2.894,0.823 1.243,1.573 3.398,7.037 3.976,11.343 -0.331,0.582 -1.574,0.745 -2.151,0.33 -1.904,-4.882 -6.623,-11.84 -17.305,-11.84 -13.576,0 -24.583,9.606 -24.583,26.99 0,17.142 10.76,25.17 23.425,25.17 12.002,0 15.731,-6.46 16.974,-12.087 0.576,-0.498 1.819,-0.414 2.235,0.162 -0.663,5.051 -1.077,10.268 -1.161,12.172 -0.745,-0.079 -1.326,0.084 -2.317,0.33 -3.891,1.08 -10.185,1.988 -14.651,1.988 -8.611,0 -16.315,-2.318 -22.356,-7.033 C 171.952,17.054 167.809,9.188 167.809,0 m 98.272,-19.04 c 0.66,-1.987 1.075,-3.478 1.075,-4.391 0,-0.827 -1.16,-1.325 -2.894,-1.493 l -2.404,-0.247 c -0.581,-0.414 -0.497,-1.735 0.164,-2.07 2.402,0.083 5.548,0.251 9.523,0.251 3.724,0 6.623,-0.084 10.017,-0.251 0.413,0.335 0.582,1.656 0,2.07 l -2.235,0.247 c -3.56,0.419 -4.636,1.657 -7.037,8.778 l -11.343,33.284 c -1.243,3.639 -2.564,7.446 -3.639,11.095 -0.167,0.572 -0.75,0.74 -1.244,0.74 -0.912,-1.075 -2.317,-2.565 -4.304,-3.147 0.247,-1.321 -0.251,-2.889 -1.411,-5.878 l -8.443,-22.349 c -3.476,-9.277 -5.795,-14.658 -7.283,-18.464 -1.16,-2.979 -2.979,-3.891 -4.967,-4.059 l -2.732,-0.247 c -0.498,-0.414 -0.33,-1.735 0.163,-2.07 2.238,0.083 5.218,0.251 7.949,0.251 3.892,-0.084 6.456,-0.084 8.611,-0.251 0.745,0.335 0.745,1.656 0.163,2.07 l -2.733,0.247 c -1.987,0.168 -2.401,0.666 -2.401,1.657 0,0.913 0.582,3.147 1.825,6.874 l 2.895,8.69 c 0.583,1.741 1.08,1.987 3.146,1.987 h 12.502 c 2.485,0 2.814,-0.246 3.393,-2.065 z m -14.819,33.031 c 0.912,2.481 1.741,4.468 1.987,4.883 h 0.167 c 0.494,-0.992 1.238,-3.23 1.904,-5.218 l 4.468,-13.493 c 0.745,-2.234 0.582,-2.564 -1.82,-2.564 h -10.183 c -2.318,0 -2.401,0.083 -1.736,1.986 z m 84.941,-27.903 c 0,4.226 0.078,6.545 3.561,6.954 l 1.322,0.167 c 0.582,0.499 0.497,1.742 -0.079,2.071 -2.733,-0.167 -5.553,-0.246 -8.778,-0.246 -4.883,0 -9.439,0.079 -11.836,0.246 -0.582,-0.246 -0.666,-1.74 0,-2.071 l 3.639,-0.414 c 5.134,-0.576 5.385,-1.08 5.385,-8.028 v -3.315 c 0,-2.648 -0.414,-4.138 -0.829,-4.719 -0.917,-1.406 -3.975,-2.485 -9.109,-2.485 -16.643,0 -24.839,12.506 -24.839,28.4 0,12.417 7.042,23.839 23.099,23.839 8.443,0 14.657,-2.81 16.975,-11.751 0.493,-0.498 1.991,-0.415 2.238,0.246 -0.749,4.966 -1.247,9.277 -1.247,12.003 -0.991,-0.163 -3.556,0.419 -5.134,0.745 -1.405,0.335 -5.79,1.243 -10.513,1.243 -12.502,0 -20.699,-3.887 -26.242,-9.685 -5.133,-5.465 -7.452,-12.586 -7.452,-19.619 0,-7.288 2.65,-13.828 7.615,-18.793 6.376,-6.461 15.401,-9.193 25.25,-9.193 4.472,0 10.435,0.996 14.824,2.156 1.568,0.409 3.057,0.743 4.053,0.743 0.335,0.247 0.335,0.745 0.079,0.991 -1.48,0.583 -1.982,2.571 -1.982,5.879 z m 45.943,-14.405 c 15.987,0 28.731,12.171 28.731,28.894 0,14.573 -9.606,28.396 -28.731,28.396 -17.053,0 -29.472,-12.664 -29.472,-29.224 0,-14.898 11.097,-28.066 29.472,-28.066 m 1.074,2.565 c -16.304,0 -22.261,15.898 -22.261,28.153 0,18.129 11.171,24.007 19.786,24.007 15.812,0 21.857,-14.735 21.857,-28.395 0,-16.309 -9.44,-23.765 -19.382,-23.765" /></g><g
           transform="translate(311.7578,98.9746)"
           id="g28"><path
             id="path30"
             style="fill:#98172e;fill-opacity:1;fill-rule:nonzero;stroke:none"
             d="m 0,0 -0.972,0.148 c -1.79,0.212 -1.874,0.404 -1.874,4.113 v 12.284 c 0,3.729 0.118,4.005 1.855,4.148 L -0.055,20.772 0,20.807 c 0.172,0.117 0.261,0.36 0.242,0.66 -0.011,0.118 -0.055,0.523 -0.346,0.661 l -0.059,0.03 -0.064,-0.005 c -1.632,-0.059 -2.845,-0.099 -4.265,-0.099 -1.48,0 -2.669,0.035 -4.335,0.099 l -0.065,0.005 -0.061,-0.03 c -0.288,-0.138 -0.333,-0.543 -0.343,-0.666 -0.019,-0.295 0.069,-0.538 0.242,-0.655 l 0.056,-0.035 0.928,-0.079 c 1.743,-0.143 1.861,-0.419 1.861,-4.148 V 4.261 c 0,-3.709 -0.084,-3.901 -1.866,-4.113 L -9.029,0.03 -9.094,-0.03 c -0.197,-0.197 -0.227,-0.522 -0.188,-0.759 0.041,-0.257 0.156,-0.449 0.323,-0.528 l 0.062,-0.029 h 0.07 c 1.753,0.069 2.904,0.103 4.335,0.103 1.366,0 2.554,-0.034 4.265,-0.103 h 0.064 l 0.059,0.029 c 0.291,0.138 0.335,0.543 0.346,0.666 C 0.261,-0.355 0.172,-0.113 0,0" /></g><g
           transform="translate(295.748,121.0923)"
           id="g32"><path
             id="path34"
             style="fill:#98172e;fill-opacity:1;fill-rule:nonzero;stroke:none"
             d="M 0,0 -0.072,0.045 -0.155,0.04 c -1.132,-0.064 -2.033,-0.104 -3.541,-0.104 -1.219,0 -2.353,0.03 -4.057,0.104 H -7.807 L -7.859,0.025 c -0.2,-0.079 -0.337,-0.261 -0.387,-0.523 -0.057,-0.306 0.039,-0.621 0.237,-0.788 l 0.067,-0.06 0.66,-0.074 c 1.186,-0.148 1.788,-0.325 1.948,-0.572 0.414,-0.651 0.648,-3.2 0.648,-6.993 v -7.383 c 0,-0.335 0,-0.724 -0.022,-0.986 -1.195,1.238 -2.443,2.639 -4.004,4.379 l -4.796,5.386 c -3.415,3.827 -5.368,6.337 -5.807,7.461 l -0.077,0.198 -0.212,-0.035 c -0.414,-0.059 -0.973,-0.099 -1.545,-0.099 -0.608,0 -2.439,0 -3.879,0.104 l -0.069,0.005 -0.067,-0.035 c -0.188,-0.093 -0.313,-0.281 -0.353,-0.522 -0.046,-0.286 0.036,-0.587 0.213,-0.76 l 0.064,-0.069 0.678,-0.079 c 0.916,-0.118 1.605,-0.374 1.972,-0.745 0.65,-0.705 0.694,-1.341 0.694,-2.302 V -14.75 c 0,-1.667 0.004,-5.572 -0.424,-6.682 -0.082,-0.177 -0.375,-0.415 -1.308,-0.543 l -1.025,-0.108 -0.067,-0.069 c -0.15,-0.148 -0.227,-0.394 -0.207,-0.656 0.02,-0.261 0.138,-0.478 0.313,-0.607 l 0.077,-0.054 0.091,0.005 c 1.201,0.069 2.126,0.104 3.575,0.104 1.167,0 2.333,-0.03 4.024,-0.104 l 0.091,-0.005 0.072,0.054 c 0.16,0.119 0.271,0.301 0.306,0.519 0.037,0.25 -0.025,0.512 -0.175,0.714 l -0.072,0.099 -1.191,0.108 c -0.829,0.075 -1.41,0.267 -1.551,0.528 -0.372,0.656 -0.587,3.211 -0.587,7.008 v 7.525 c 0,0.617 0.013,1.272 0.072,1.741 0.549,-0.616 1.465,-1.691 2.283,-2.667 0.565,-0.666 1.085,-1.283 1.422,-1.668 l 8.005,-9.108 c 2.663,-3.023 3.936,-4.523 4.4,-5.183 l 0.081,-0.114 h 0.135 c 0.451,0 0.793,0.212 0.905,0.562 l 0.019,0.055 -0.004,0.059 c -0.05,0.399 -0.107,1.771 -0.107,6.007 v 8.709 c -0.004,1.77 -0.014,5.444 0.492,6.519 0.044,0.094 0.458,0.385 1.73,0.582 l 0.572,0.079 0.064,0.069 c 0.168,0.163 0.249,0.434 0.218,0.7 C 0.308,-0.325 0.182,-0.118 0,0" /></g><g
           transform="translate(264.8047,121.0923)"
           id="g36"><path
             id="path38"
             style="fill:#98172e;fill-opacity:1;fill-rule:nonzero;stroke:none"
             d="M 0,0 -0.069,0.045 -0.155,0.04 c -1.199,-0.064 -2.126,-0.104 -3.609,-0.104 -1.321,0 -2.603,0.035 -3.917,0.104 L -7.768,0.045 -7.842,-0.004 C -8,-0.113 -8.11,-0.311 -8.145,-0.542 c -0.037,-0.262 0.03,-0.508 0.182,-0.686 l 0.07,-0.083 0.969,-0.074 c 0.793,-0.065 1.334,-0.277 1.517,-0.592 0.403,-0.711 0.626,-3.201 0.626,-7.008 v -3.97 c 0,-4.063 -1.152,-8.911 -6.636,-8.911 -4.601,0 -6.741,2.84 -6.741,8.946 v 7.451 c 0,3.67 0.121,3.931 1.827,4.084 l 0.893,0.069 0.061,0.044 c 0.173,0.113 0.256,0.346 0.236,0.636 -0.014,0.242 -0.11,0.533 -0.337,0.651 l -0.059,0.025 h -0.067 c -1.637,-0.064 -2.793,-0.104 -4.231,-0.104 -1.421,0 -2.637,0.04 -4.269,0.104 h -0.066 l -0.059,-0.025 c -0.227,-0.113 -0.324,-0.409 -0.338,-0.646 -0.023,-0.295 0.064,-0.528 0.237,-0.641 l 0.054,-0.044 0.934,-0.069 c 1.709,-0.153 1.825,-0.414 1.825,-4.084 v -8.142 c 0,-4.172 0.858,-6.746 2.782,-8.344 1.521,-1.297 3.753,-1.958 6.626,-1.958 2.716,0 5.318,1.001 6.783,2.604 1.669,1.79 2.482,4.547 2.482,8.423 v 3.901 c 0,1.746 0,5.844 0.461,6.924 0.161,0.35 0.753,0.617 1.505,0.676 l 0.94,0.074 0.069,0.088 c 0.157,0.188 0.228,0.469 0.186,0.721 C 0.283,-0.286 0.173,-0.108 0,0" /></g><g
           transform="translate(164.0967,122.0303)"
           id="g40"><path
             id="path42"
             style="fill:#98172e;fill-opacity:1;fill-rule:nonzero;stroke:none"
             d="M 0,0 C -0.086,0 -0.212,-0.01 -0.323,-0.06 L -0.409,-0.094 -0.456,-0.168 C -0.9,-0.942 -1.087,-1.002 -2.914,-1.002 h -14.26 c -1.547,0 -2.239,0.079 -2.385,0.854 l -0.014,0.078 -0.062,0.06 c -0.096,0.093 -0.252,0.143 -0.473,0.143 -0.082,0 -0.366,-0.01 -0.516,-0.109 l -0.091,-0.064 -0.019,-0.113 c -0.245,-1.371 -0.752,-3.551 -1.305,-5.095 l -0.035,-0.108 0.05,-0.099 c 0.207,-0.414 0.914,-0.616 1.295,-0.335 l 0.053,0.04 0.032,0.068 c 0.348,0.794 0.676,1.544 1.485,2.293 0.762,0.696 2.483,0.785 4.063,0.785 h 1.899 c 0.769,0 0.769,0 0.769,-0.834 v -15.426 c 0,-3.738 -0.212,-3.896 -1.893,-4.044 l -1.243,-0.108 -0.117,-0.034 c -0.206,-0.124 -0.322,-0.385 -0.307,-0.686 0.009,-0.232 0.101,-0.528 0.328,-0.637 l 0.061,-0.029 h 0.065 c 2.11,0.064 3.388,0.104 4.788,0.104 1.342,0 2.458,-0.035 4.508,-0.104 h 0.066 l 0.062,0.029 c 0.226,0.109 0.323,0.419 0.338,0.671 0.019,0.301 -0.072,0.538 -0.242,0.646 l -1.228,0.148 c -1.722,0.148 -1.827,0.375 -1.827,4.044 v 15.466 c 0,0.35 0,0.685 0.054,0.74 0.062,0.054 0.434,0.054 0.683,0.054 h 2.448 c 1.847,0 3.105,-0.262 3.842,-0.804 0.33,-0.247 0.612,-1.119 0.76,-2.342 l 0.01,-0.075 0.049,-0.059 c 0.125,-0.153 0.36,-0.246 0.626,-0.246 0.324,0 0.602,0.138 0.712,0.365 l 0.031,0.069 -0.005,0.073 c -0.102,0.997 0.14,3.773 0.509,5.154 l 0.025,0.094 -0.043,0.088 C 0.5,-0.021 0.115,0 0,0" /></g><g
           transform="translate(195.8906,98.9746)"
           id="g44"><path
             id="path46"
             style="fill:#98172e;fill-opacity:1;fill-rule:nonzero;stroke:none"
             d="M 0,0 -0.944,0.148 C -2.692,0.36 -2.776,0.547 -2.776,4.192 v 12.423 c 0,3.668 0.1,3.906 1.827,4.078 l 0.721,0.074 0.122,0.04 c 0.172,0.117 0.261,0.354 0.241,0.655 -0.004,0.123 -0.054,0.528 -0.337,0.666 l -0.062,0.03 -0.064,-0.005 C -2,22.083 -3.137,22.054 -4.394,22.054 c -1.495,0 -2.695,0.04 -4.155,0.099 l -0.071,0.005 -0.062,-0.03 c -0.282,-0.138 -0.333,-0.543 -0.339,-0.661 -0.019,-0.3 0.068,-0.543 0.241,-0.656 l 0.775,-0.118 c 1.764,-0.172 1.864,-0.41 1.864,-4.078 v -3.97 c 0,-0.839 0,-0.839 -1.459,-0.839 h -9.863 c -1.46,0 -1.46,0 -1.46,0.839 v 3.97 c 0,3.668 0.102,3.906 1.834,4.078 l 0.652,0.074 0.121,0.044 c 0.172,0.113 0.256,0.356 0.242,0.651 -0.011,0.123 -0.06,0.528 -0.344,0.666 l -0.061,0.03 -0.064,-0.005 c -1.57,-0.07 -2.727,-0.099 -3.99,-0.099 -0.905,0 -1.686,0.025 -2.544,0.054 -0.553,0.016 -1.137,0.035 -1.798,0.05 h -0.062 l -0.061,-0.03 c -0.281,-0.133 -0.333,-0.537 -0.338,-0.661 -0.019,-0.3 0.066,-0.537 0.236,-0.656 l 0.062,-0.039 0.964,-0.079 c 1.521,-0.113 1.793,-0.429 1.793,-4.078 V 4.192 c 0,-3.59 -0.069,-3.743 -1.782,-4.049 l -0.666,-0.118 -0.062,-0.055 c -0.197,-0.197 -0.228,-0.522 -0.19,-0.759 0.04,-0.251 0.16,-0.449 0.328,-0.528 l 0.054,-0.029 h 0.072 c 0.468,0.014 0.924,0.029 1.378,0.044 0.814,0.03 1.657,0.059 2.616,0.059 1.292,0 2.394,-0.029 4.372,-0.103 h 0.066 l 0.062,0.029 c 0.227,0.109 0.323,0.419 0.339,0.671 0.013,0.295 -0.073,0.538 -0.244,0.646 l -1.121,0.148 c -1.651,0.177 -1.864,0.341 -1.864,4.044 V 9.06 c 0,0.838 0,0.838 1.46,0.838 H -7.6 c 1.459,0 1.459,0 1.459,-0.838 V 4.192 c 0,-3.664 -0.036,-3.743 -1.878,-4.044 L -8.761,0.03 -8.822,-0.035 c -0.199,-0.196 -0.223,-0.522 -0.188,-0.754 0.046,-0.257 0.162,-0.449 0.328,-0.528 l 0.062,-0.029 0.071,0.005 c 1.65,0.069 2.853,0.098 4.155,0.098 1.364,0 2.562,-0.04 4.166,-0.098 l 0.065,-0.005 0.061,0.029 c 0.289,0.138 0.333,0.543 0.344,0.666 C 0.262,-0.355 0.172,-0.113 0,0" /></g><g
           transform="translate(364.8555,103.2749)"
           id="g48"><path
             id="path50"
             style="fill:#98172e;fill-opacity:1;fill-rule:nonzero;stroke:none"
             d="M 0,0 C -0.177,0 -0.325,-0.044 -0.443,-0.128 L -0.532,-0.227 C -1.519,-2.205 -2.411,-3.206 -2.859,-3.452 -3.6,-3.827 -4.646,-3.94 -7.16,-3.94 c -2.876,0 -3.611,0.34 -3.975,0.705 -0.494,0.518 -0.587,1.642 -0.587,3.408 v 4.862 c 0,0.666 0,0.666 0.873,0.666 h 2.002 c 1.203,0 2.101,-0.03 2.589,-0.163 C -5.779,5.42 -5.532,5.109 -5.38,4.424 L -5.069,3.082 -5.02,2.969 c 0.128,-0.153 0.374,-0.247 0.651,-0.247 0.311,0 0.572,0.119 0.686,0.321 l 0.034,0.059 v 0.069 c 0,0.335 -0.03,0.785 -0.059,1.277 -0.04,0.631 -0.079,1.347 -0.079,2.037 0,0.725 0.039,1.46 0.079,2.111 0.029,0.528 0.059,1.001 0.059,1.376 v 0.064 L -3.683,10.1 c -0.114,0.197 -0.375,0.32 -0.686,0.32 -0.277,0 -0.523,-0.093 -0.651,-0.246 L -5.35,8.635 C -5.503,7.851 -5.701,7.733 -6.001,7.634 -6.371,7.511 -7.406,7.442 -8.847,7.442 h -2.002 c -0.873,0 -0.873,0 -0.873,0.7 v 6.9 c 0,1.114 0,1.114 0.775,1.114 h 2.474 c 1.465,0 2.585,-0.034 3.29,-0.202 1.574,-0.395 1.885,-1.386 2.363,-2.895 l 0.069,-0.207 0.05,-0.084 c 0.113,-0.148 0.31,-0.222 0.561,-0.222 0.237,0 0.568,0.079 0.72,0.306 l 0.055,0.084 -0.044,0.503 c -0.183,2.012 -0.346,3.718 -0.533,4.241 l -0.079,0.227 -0.232,-0.06 c -0.385,-0.094 -2.524,-0.094 -4.592,-0.094 h -6.489 c -1.327,0 -2.466,0.03 -4.054,0.104 h -0.07 l -0.063,-0.029 c -0.281,-0.139 -0.331,-0.543 -0.34,-0.661 -0.021,-0.306 0.068,-0.543 0.241,-0.656 l 0.671,-0.114 c 1.761,-0.211 1.869,-0.438 1.869,-4.083 V -0.104 c 0,-3.737 -0.217,-3.905 -1.899,-4.048 l -1.232,-0.114 -0.065,-0.064 c -0.197,-0.197 -0.227,-0.523 -0.197,-0.754 0.044,-0.256 0.167,-0.449 0.334,-0.533 l 0.05,-0.034 0.074,0.005 c 1.997,0.068 3.191,0.103 4.681,0.103 h 3.106 c 3.008,0 6.037,-0.035 9.243,-0.103 l 0.167,-0.005 0.074,0.152 c 0.464,0.972 1.327,3.649 1.573,4.858 l 0.02,0.089 -0.039,0.073 C 0.661,-0.143 0.297,0 0,0" /></g><g
           transform="translate(221.1133,103.2749)"
           id="g52"><path
             id="path54"
             style="fill:#98172e;fill-opacity:1;fill-rule:nonzero;stroke:none"
             d="M 0,0 C -0.17,0 -0.323,-0.044 -0.444,-0.128 L -0.53,-0.227 c -0.989,-1.978 -1.879,-2.979 -2.328,-3.225 -0.743,-0.375 -1.788,-0.488 -4.298,-0.488 -2.872,0 -3.615,0.34 -3.98,0.705 -0.488,0.518 -0.584,1.642 -0.584,3.408 v 4.862 c 0,0.666 0,0.666 0.872,0.666 h 2 c 1.206,0 2.106,-0.03 2.592,-0.163 0.479,-0.123 0.728,-0.429 0.877,-1.114 L -5.07,3.082 -5.016,2.969 c 0.129,-0.153 0.37,-0.247 0.649,-0.247 0.313,0 0.569,0.119 0.685,0.321 l 0.03,0.059 v 0.069 c 0,0.335 -0.025,0.785 -0.054,1.277 -0.035,0.631 -0.082,1.347 -0.082,2.037 0,0.725 0.047,1.46 0.082,2.111 0.029,0.528 0.054,1.001 0.054,1.376 v 0.064 l -0.03,0.064 c -0.116,0.197 -0.372,0.32 -0.685,0.32 -0.279,0 -0.52,-0.093 -0.649,-0.246 L -5.349,8.635 C -5.504,7.851 -5.696,7.733 -6,7.634 -6.366,7.511 -7.402,7.442 -8.848,7.442 h -2 c -0.872,0 -0.872,0 -0.872,0.7 v 6.9 c 0,1.114 0,1.114 0.767,1.114 h 2.485 c 1.465,0 2.584,-0.034 3.282,-0.202 1.576,-0.395 1.889,-1.386 2.367,-2.895 l 0.067,-0.207 0.049,-0.084 c 0.118,-0.148 0.313,-0.222 0.562,-0.222 0.238,0 0.57,0.079 0.723,0.306 l 0.05,0.084 -0.045,0.507 c -0.178,2.008 -0.34,3.714 -0.525,4.237 l -0.082,0.227 -0.231,-0.06 c -0.385,-0.094 -2.525,-0.094 -4.597,-0.094 h -6.485 c -1.326,0 -2.463,0.03 -4.054,0.104 h -0.071 l -0.06,-0.029 c -0.283,-0.139 -0.335,-0.543 -0.339,-0.661 -0.02,-0.306 0.066,-0.543 0.239,-0.656 l 0.67,-0.114 c 1.763,-0.211 1.87,-0.438 1.87,-4.083 V -0.104 c 0,-3.737 -0.218,-3.905 -1.9,-4.048 l -1.232,-0.114 -0.066,-0.064 c -0.201,-0.197 -0.228,-0.523 -0.191,-0.759 0.039,-0.251 0.16,-0.444 0.328,-0.528 l 0.055,-0.034 0.071,0.005 c 1.991,0.068 3.191,0.103 4.68,0.103 h 3.107 c 3.011,0 6.029,-0.035 9.237,-0.103 l 0.17,-0.005 0.077,0.152 c 0.463,0.967 1.328,3.64 1.57,4.858 l 0.02,0.089 -0.035,0.073 C 0.66,-0.143 0.298,0 0,0" /></g><g
           transform="translate(341.8945,121.0981)"
           id="g56"><path
             id="path58"
             style="fill:#98172e;fill-opacity:1;fill-rule:nonzero;stroke:none"
             d="M 0,0 -0.074,0.039 -0.148,0.034 c -1.154,-0.069 -2.219,-0.104 -3.333,-0.104 -1.351,0 -2.654,0.04 -3.567,0.104 L -7.131,0.039 -7.2,0 c -0.188,-0.114 -0.325,-0.34 -0.346,-0.612 -0.028,-0.271 0.06,-0.533 0.237,-0.68 l 0.06,-0.06 0.699,-0.074 c 1.209,-0.137 1.322,-0.389 1.322,-0.389 0,-0.227 -0.039,-0.578 -0.295,-1.253 -0.592,-1.499 -2.239,-5.454 -3.202,-7.723 -0.255,-0.582 -0.576,-1.346 -0.931,-2.189 -0.661,-1.549 -1.449,-3.438 -2.13,-4.922 -1.638,3.748 -3.137,7.511 -4.656,11.357 -1.015,2.476 -1.593,4.276 -1.696,4.725 0.049,0.113 0.345,0.257 1.381,0.394 l 0.592,0.079 0.059,0.055 c 0.177,0.147 0.266,0.399 0.236,0.68 -0.025,0.272 -0.147,0.498 -0.345,0.612 l -0.069,0.039 -0.078,-0.005 c -1.53,-0.069 -2.742,-0.104 -4.159,-0.104 -1.44,0 -2.539,0.035 -3.57,0.104 l -0.084,0.005 -0.074,-0.045 c -0.201,-0.128 -0.33,-0.359 -0.35,-0.621 -0.02,-0.266 0.069,-0.518 0.247,-0.665 l 0.064,-0.06 0.706,-0.074 c 1.336,-0.158 1.794,-0.774 2.574,-2.667 l 6.075,-14.968 c 0.721,-1.79 1.253,-3.329 1.573,-4.557 l 0.03,-0.128 0.124,-0.049 c 0.197,-0.084 0.403,-0.123 0.621,-0.123 0.197,0 0.385,0.049 0.522,0.147 l 0.08,0.05 0.029,0.088 c 0.592,1.855 2.248,5.923 3.581,8.976 l 1.853,4.246 c 1.604,3.624 2.939,6.357 3.852,7.905 0.439,0.706 0.902,1.021 1.583,1.08 l 1.134,0.074 0.074,0.074 C 0.311,-1.09 0.341,-0.765 0.311,-0.543 0.281,-0.292 0.168,-0.099 0,0" /></g><g
           transform="translate(513.8887,121.5811)"
           id="g60"><path
             id="path62"
             style="fill:#98172e;fill-opacity:1;fill-rule:nonzero;stroke:none"
             d="m 0,0 c -7.151,0 -12.547,-5.351 -12.547,-12.442 0,-5.948 4.311,-11.959 12.547,-11.959 6.973,0 12.24,5.291 12.24,12.304 C 12.24,-6.273 8.409,0 0,0 m 0.453,-22.804 c -7.121,0 -9.024,7.211 -9.024,11.466 0,7.186 4.305,9.735 7.989,9.735 6.519,0 8.837,-6.229 8.837,-11.564 0,-7.117 -4.201,-9.637 -7.802,-9.637" /></g><g
           transform="translate(549.3066,116.3291)"
           id="g64"><path
             id="path66"
             style="fill:#98172e;fill-opacity:1;fill-rule:nonzero;stroke:none"
             d="m 0,0 c -0.069,1.248 -0.108,2.855 -0.108,4.537 v 0.33 L -0.429,4.798 C -0.848,4.699 -2.973,4.699 -5.024,4.699 h -6.352 c -1.298,0 -2.452,0.03 -3.985,0.104 l -0.064,0.005 -0.07,-0.03 c -0.28,-0.143 -0.325,-0.547 -0.335,-0.67 -0.02,-0.301 0.069,-0.538 0.241,-0.656 l 0.666,-0.109 c 1.746,-0.212 1.835,-0.399 1.835,-4.088 v -12.418 c 0,-3.644 -0.089,-3.837 -1.835,-4.048 l -0.957,-0.109 -0.063,-0.069 c -0.194,-0.193 -0.227,-0.513 -0.183,-0.744 0.039,-0.262 0.153,-0.454 0.32,-0.538 l 0.06,-0.03 h 0.074 c 1.608,0.064 2.772,0.099 4.296,0.099 1.396,0 2.589,-0.035 4.58,-0.099 h 0.07 l 0.058,0.03 c 0.229,0.113 0.327,0.419 0.342,0.666 0.014,0.305 -0.074,0.537 -0.247,0.651 l -1.297,0.147 c -1.756,0.148 -1.859,0.375 -1.859,4.044 v 4.799 c 0,0.666 0,0.666 0.872,0.666 h 2.347 c 1.214,0 2.112,-0.025 2.574,-0.158 0.484,-0.153 0.746,-0.474 0.928,-1.125 l 0.364,-1.43 0.065,-0.054 c 0.341,-0.291 1.075,-0.276 1.292,0.054 l 0.045,0.07 v 0.078 c 0,0.36 -0.025,0.819 -0.054,1.331 -0.045,0.627 -0.084,1.337 -0.084,2.017 0,0.696 0.039,1.441 0.078,2.092 0.031,0.532 0.06,1.021 0.06,1.395 v 0.079 l -0.045,0.064 c -0.163,0.247 -0.518,0.277 -0.655,0.277 -0.287,0 -0.538,-0.099 -0.671,-0.257 l -0.36,-1.489 C -3.166,-5.587 -3.397,-5.671 -3.659,-5.765 -4.024,-5.889 -5.09,-5.958 -6.51,-5.958 h -2.347 c -0.872,0 -0.872,0 -0.872,0.666 v 7.274 c 0,1.12 0,1.12 0.773,1.12 h 2.102 c 1.424,0 2.554,0 3.279,-0.197 1.479,-0.39 1.919,-1.382 2.215,-3.073 l 0.019,-0.089 0.074,-0.064 c 0.133,-0.113 0.321,-0.173 0.518,-0.173 0.266,0 0.592,0.109 0.721,0.356 l 0.033,0.069 z" /></g><g
           transform="translate(483.8154,121.0923)"
           id="g68"><path
             id="path70"
             style="fill:#98172e;fill-opacity:1;fill-rule:nonzero;stroke:none"
             d="M 0,0 -0.069,0.045 -0.158,0.04 c -2.456,-0.143 -3.895,-0.143 -6.489,0 L -6.717,0.045 -6.785,0.01 c -0.188,-0.098 -0.321,-0.291 -0.366,-0.532 -0.039,-0.276 0.045,-0.567 0.232,-0.75 l 0.065,-0.069 0.709,-0.079 c 0.67,-0.084 1.085,-0.247 1.209,-0.34 -0.114,-0.488 -1.312,-2.732 -2.046,-4.089 l -0.159,-0.295 c -0.828,-1.603 -1.79,-3.334 -2.998,-5.415 -0.912,1.642 -1.8,3.447 -2.658,5.198 -0.34,0.69 -0.676,1.376 -1.011,2.047 -0.247,0.497 -1.031,2.263 -1.041,2.534 0,0.069 0.159,0.208 1.223,0.36 l 0.538,0.084 0.065,0.064 c 0.182,0.183 0.26,0.523 0.191,0.819 -0.059,0.241 -0.206,0.41 -0.414,0.478 l -0.049,0.02 -0.05,-0.005 c -0.843,-0.069 -2.08,-0.104 -3.669,-0.104 -1.597,0 -2.86,0.03 -3.979,0.104 l -0.084,0.005 -0.069,-0.039 c -0.167,-0.099 -0.282,-0.282 -0.326,-0.513 -0.039,-0.277 0.03,-0.563 0.188,-0.75 l 0.063,-0.079 1.06,-0.187 c 0.913,-0.148 1.372,-0.232 2.535,-2.476 l 4.069,-7.94 c 0.976,-1.878 1.08,-2.263 1.08,-4.157 v -1.756 c 0,-3.743 -0.088,-3.935 -1.835,-4.123 l -1.168,-0.108 -0.064,-0.069 c -0.197,-0.197 -0.227,-0.518 -0.187,-0.755 0.043,-0.251 0.158,-0.444 0.325,-0.528 l 0.059,-0.029 h 0.069 c 1.859,0.069 3.067,0.104 4.507,0.104 1.402,0 2.638,-0.04 4.685,-0.104 h 0.07 l 0.059,0.029 c 0.162,0.084 0.285,0.277 0.326,0.534 0.039,0.236 0.009,0.552 -0.193,0.749 l -0.064,0.074 -1.41,0.108 c -1.598,0.119 -1.825,0.38 -1.825,4.118 v 1.79 c 0,2.589 0.068,2.846 1.587,5.459 l 2.171,3.758 c 0.197,0.341 0.388,0.671 0.567,0.987 1.357,2.372 2.337,4.083 3.802,4.335 l 1.04,0.187 0.055,0.044 c 0.177,0.158 0.266,0.405 0.247,0.671 C 0.325,-0.359 0.198,-0.128 0,0" /></g><g
           transform="translate(408.165,110.6724)"
           id="g72"><path
             id="path74"
             style="fill:#98172e;fill-opacity:1;fill-rule:nonzero;stroke:none"
             d="m 0,0 -2.762,1.726 c -1.045,0.651 -2.805,2.037 -2.805,4.015 0,1.336 0.498,3.565 3.84,3.565 3.039,0 3.971,-1.978 4.434,-3.699 L 2.763,5.503 C 2.87,5.375 3.058,5.296 3.285,5.296 c 0.26,0 0.611,0.109 0.76,0.336 L 4.094,5.701 V 5.78 c 0,1.406 -0.296,3.383 -0.642,4.3 L 3.393,10.253 H 3.205 c -0.236,0 -0.699,0.059 -1.138,0.197 -0.825,0.222 -2.117,0.459 -3.28,0.459 -4.359,0 -7.299,-2.491 -7.299,-6.195 0,-3.151 2.407,-5.213 3.847,-6.159 l 3.274,-2.14 c 2.382,-1.534 2.713,-3.122 2.713,-4.611 0,-1.84 -1.253,-3.694 -4.045,-3.694 -3.501,0 -5.019,2.687 -5.68,4.946 l -0.039,0.074 c -0.099,0.153 -0.287,0.242 -0.523,0.242 -0.226,0 -0.563,-0.094 -0.74,-0.34 l -0.05,-0.074 0.006,-0.094 c 0.063,-1.558 0.508,-4.108 0.961,-4.941 l 0.029,-0.069 0.07,-0.035 c 0.675,-0.394 2.564,-1.312 5.513,-1.312 4.557,0 7.614,2.673 7.614,6.648 C 4.438,-4.088 2.989,-1.849 0,0" /></g><g
           transform="translate(393.8047,98.521)"
           id="g76"><path
             id="path78"
             style="fill:#98172e;fill-opacity:1;fill-rule:nonzero;stroke:none"
             d="m 0,0 -0.074,0.015 c -0.824,0.059 -1.657,0.394 -2.234,0.907 -2.373,1.988 -4.261,4.897 -6.875,9.109 -0.182,0.296 -0.207,0.424 -0.203,0.488 1.145,0.473 4.385,2.165 4.385,5.962 0,2.895 -1.637,4.355 -3.008,5.065 -1.726,0.937 -3.945,1.065 -5.879,1.065 -3.166,0 -5.612,-0.083 -7.722,-0.276 l -0.094,-0.025 c -0.202,-0.103 -0.331,-0.325 -0.35,-0.597 -0.031,-0.295 0.084,-0.581 0.276,-0.724 l 0.054,-0.039 1.169,-0.144 c 1.129,-0.138 1.292,-0.38 1.292,-3.773 V 4.65 c 0,-3.649 -0.09,-3.841 -1.835,-4.053 l -0.966,-0.114 -0.069,-0.079 c -0.197,-0.227 -0.212,-0.552 -0.168,-0.784 0.049,-0.231 0.162,-0.404 0.321,-0.488 l 0.059,-0.029 0.074,0.004 c 1.534,0.064 2.786,0.104 4.295,0.104 1.43,0 2.629,-0.04 4.098,-0.104 l 0.07,-0.004 0.058,0.029 c 0.257,0.128 0.316,0.464 0.336,0.597 0.034,0.306 -0.05,0.572 -0.217,0.709 l -0.06,0.05 -0.797,0.109 c -1.772,0.251 -1.84,0.399 -1.84,4.053 v 4.346 c 0,0.497 0,0.497 1.356,0.497 1.32,0 1.776,-0.32 2.234,-0.991 0.517,-0.765 1.129,-1.726 1.72,-2.663 0.617,-0.972 1.204,-1.899 1.662,-2.55 2.368,-3.373 4.159,-4.458 7.354,-4.458 0.665,0 1.252,0.064 1.598,0.188 l 0.084,0.039 c 0.162,0.129 0.241,0.335 0.211,0.538 C 0.286,-0.222 0.167,-0.069 0,0 m -15.904,20.17 c 0,0.78 0,0.838 1.977,0.838 3.876,0 5.252,-2.716 5.252,-5.045 0,-1.913 -0.517,-3.205 -1.623,-4.068 -0.98,-0.745 -2.327,-0.844 -3.383,-0.844 -1.563,0 -2.042,0.06 -2.184,0.109 -0.039,0.138 -0.039,0.543 -0.039,0.942 z" /></g><g
           transform="translate(428.1182,119.6724)"
           id="g80"><path
             id="path82"
             style="fill:#98172e;fill-opacity:1;fill-rule:nonzero;stroke:none"
             d="M 0,0 0.937,0.074 0.992,0.109 C 1.163,0.227 1.253,0.463 1.233,0.765 1.223,0.888 1.179,1.292 0.897,1.435 L 0.834,1.465 0.765,1.46 C -0.868,1.391 -2.081,1.356 -3.501,1.356 -4.98,1.356 -6.17,1.391 -7.836,1.46 L -7.91,1.465 -7.969,1.435 C -8.25,1.292 -8.295,0.883 -8.304,0.759 -8.324,0.463 -8.235,0.227 -8.063,0.109 L -8.009,0.074 -7.082,0 c 1.766,-0.148 1.864,-0.385 1.864,-4.152 v -12.28 c 0,-3.714 -0.084,-3.911 -1.864,-4.123 l -0.956,-0.109 -0.065,-0.068 c -0.197,-0.197 -0.231,-0.513 -0.186,-0.749 0.039,-0.257 0.152,-0.45 0.32,-0.534 l 0.059,-0.029 h 0.074 c 1.75,0.069 2.909,0.099 4.335,0.099 1.37,0 2.516,-0.03 4.266,-0.099 h 0.069 l 0.063,0.029 c 0.282,0.143 0.326,0.548 0.336,0.666 0.02,0.301 -0.07,0.538 -0.241,0.651 l -0.981,0.143 c -1.782,0.212 -1.865,0.409 -1.865,4.123 v 12.28 C -1.854,-0.385 -1.75,-0.148 0,0" /></g><g
           transform="translate(457.0615,122.0303)"
           id="g84"><path
             id="path86"
             style="fill:#98172e;fill-opacity:1;fill-rule:nonzero;stroke:none"
             d="m 0,0 c -0.084,0 -0.212,-0.01 -0.32,-0.06 l -0.089,-0.029 -0.049,-0.079 c -0.444,-0.774 -0.626,-0.834 -2.461,-0.834 h -14.257 c -1.549,0 -2.239,0.079 -2.383,0.854 l -0.014,0.078 -0.06,0.064 c -0.098,0.089 -0.256,0.139 -0.472,0.139 -0.084,0 -0.366,-0.01 -0.519,-0.109 l -0.093,-0.059 -0.02,-0.118 c -0.237,-1.382 -0.749,-3.561 -1.302,-5.095 l -0.034,-0.108 0.053,-0.099 c 0.208,-0.419 0.908,-0.621 1.292,-0.335 l 0.055,0.04 0.03,0.068 c 0.35,0.8 0.681,1.549 1.484,2.288 0.76,0.701 2.485,0.79 4.063,0.79 h 1.904 c 0.765,0 0.765,0 0.765,-0.834 v -15.426 c 0,-3.738 -0.212,-3.896 -1.893,-4.044 l -1.243,-0.108 -0.115,-0.034 c -0.206,-0.124 -0.325,-0.385 -0.31,-0.692 0.009,-0.231 0.104,-0.522 0.331,-0.631 l 0.059,-0.029 h 0.064 c 2.111,0.064 3.388,0.104 4.788,0.104 1.351,0 2.457,-0.035 4.508,-0.104 h 0.069 l 0.059,0.029 c 0.286,0.144 0.325,0.548 0.336,0.666 0.019,0.301 -0.07,0.538 -0.238,0.651 l -1.232,0.148 c -1.716,0.148 -1.825,0.375 -1.825,4.044 v 15.47 c 0,0.346 0,0.681 0.053,0.736 0.066,0.054 0.436,0.054 0.687,0.054 h 2.445 c 1.85,0 3.108,-0.262 3.848,-0.804 0.325,-0.247 0.606,-1.119 0.755,-2.342 l 0.01,-0.075 0.043,-0.059 c 0.129,-0.153 0.365,-0.246 0.627,-0.246 0.33,0 0.606,0.138 0.714,0.365 l 0.031,0.069 v 0.073 C 0.04,-4.631 0.282,-1.85 0.65,-0.469 l 0.026,0.094 -0.044,0.088 C 0.509,-0.03 0.144,0 0,0" /></g></g></g></g></svg>