<?xml version="1.0" encoding="UTF-8"?>
<svg width="680px" height="139px" viewBox="0 0 680 139" version="1.1" xmlns="http://www.w3.org/2000/svg" xmlns:xlink="http://www.w3.org/1999/xlink">
    <title>uchicago</title>
    <g id="Page-1" stroke="none" stroke-width="1" fill="none" fill-rule="evenodd">
        <g id="uchicago" transform="translate(339.8535, 69.78) scale(1, -1) translate(-339.8535, -69.78)translate(0.5364, 0.9227)" fill="#98172E" fill-rule="nonzero">
            <g id="g20" transform="translate(0, -0)">
                <path d="M108.391997,135.066994 C46.6226655,141.024327 0,135.066994 0,135.066994 L0,58.1616624 C4.92133321,6.04433034 53.737332,-0.082336173 54.2039986,0.000823661927 C62.9226651,1.57366379 103.849331,9.80566358 108.398664,58.180329 L108.391997,135.066994 Z M89.3439978,121.324327 C93.377331,119.574994 94.9519976,121.153661 96.2479976,121.153661 C100.226664,121.153661 100.425331,117.445661 100.425331,117.445661 C100.482664,117.037661 100.515997,116.748328 100.541331,116.564328 C100.515997,116.748328 100.475997,117.037661 100.419997,117.445661 C100.334664,118.069661 98.5226642,118.430994 97.2439976,117.872328 C95.4586643,117.102994 90.9799977,114.538994 89.3439978,115.025661 L89.3439978,121.324327 Z M89.2319978,108.317661 C89.2319978,108.317661 89.9773311,107.004328 96.4093309,107.936328 C99.9039975,108.449661 100.425331,104.320328 100.425331,104.320328 L100.419997,104.320328 C99.5586642,105.004328 97.8293309,105.318995 96.6546643,104.564328 C92.753331,102.045661 89.2319978,102.018995 89.2319978,102.018995 L89.2319978,108.317661 Z M54.9639986,128.084327 C54.9639986,128.084327 64.0333317,132.332327 70.6333316,129.898994 C78.7133314,126.920327 88.0506645,128.234994 88.0506645,128.234994 L88.0506645,95.1349948 C81.7093313,94.7069948 68.5519983,98.3176614 65.2053317,98.3176614 C58.3039985,98.3176614 54.9639986,95.6216614 54.9639986,95.6216614 C54.9639986,95.6216614 54.9759986,126.953661 54.9639986,128.084327 M53.7799987,91.4656615 C56.7026652,91.8789949 58.9719985,88.6776616 61.7719985,90.2483282 C61.9853318,88.9869949 60.8213318,88.6776616 60.8213318,88.6776616 C62.6346651,88.2563283 63.5013317,89.3349949 63.8533317,90.0109949 C64.5466651,87.1256616 61.6386651,86.954995 60.7266651,86.7896617 C60.7199985,86.7896617 62.2026651,86.362995 62.2759984,85.402995 C62.4733318,82.9496618 64.0413317,83.1603284 64.3826651,83.3509951 C64.3306651,83.0549951 63.8373317,81.5829951 62.0759984,82.9176618 C61.7719985,82.6216618 62.5586651,82.1616618 62.7053318,80.9509951 C62.9106651,79.4123285 62.8639984,77.9923285 64.6333317,77.0589952 C63.5479984,76.1909953 62.2693318,78.4389952 62.1533318,78.1763285 C62.0293318,77.8736619 63.6639984,77.0443286 61.8639985,72.805662 C61.0466651,73.2709953 61.5026651,73.185662 60.5453318,74.3163286 C59.8199985,74.921662 59.5373318,75.0656619 60.1413318,74.0603286 C61.2066651,72.725662 61.4573318,69.7016621 61.0919985,68.8789954 C60.2173318,69.2616621 60.4373318,69.9643287 59.4093318,70.9109954 C59.3119985,70.5029954 59.7239985,68.4909954 60.7893318,67.5309955 C62.6346651,65.8683288 63.2879984,63.8563289 63.3213318,63.4536622 C63.4693317,61.9496623 62.9893318,59.956329 62.8079984,58.0109957 C61.9266651,58.1349957 61.1706651,60.640329 60.9639985,60.5016623 C60.6999985,60.3309956 61.0733318,58.0429957 62.7426651,56.4909957 C63.5479984,54.1309958 63.2186651,52.8616625 63.0053318,52.7763292 C62.7226651,52.6576625 61.8253318,55.1896624 61.3346651,54.7496625 C63.7119984,48.7056626 62.0479984,46.6003293 61.4199985,44.746996 C60.9306651,46.6483293 60.6813318,48.0816626 60.0706652,50.2389959 C58.7733319,49.2256626 58.4653319,47.7123293 56.8759986,46.3376627 C56.8759986,48.7989959 55.4573319,54.7496625 54.325332,56.1296624 C54.2759986,56.1949958 52.2839987,50.8043292 51.3826654,48.4029959 C50.2026654,45.3003294 50.0226654,41.4083295 51.3826654,38.3749962 C48.4546655,42.5509961 48.1399988,50.3043292 50.6626654,51.3563292 C50.8839987,51.9096625 50.5159987,53.7363291 49.9466654,53.5123292 C49.7853321,52.6176625 49.8946654,51.8549959 49.1533321,50.9816626 C47.2146655,51.5469959 48.0946655,53.9149958 48.2733321,54.7029958 C50.7893321,57.720329 49.2133321,58.4176624 49.0986654,58.3389957 C48.8213321,57.6536624 48.5879988,56.8069957 47.8186655,56.4909957 C46.2053322,59.260329 47.2413322,63.6189956 50.3106654,66.8803288 C50.4399987,68.0896621 48.9373321,65.9669955 47.9546655,66.0456622 C47.7039988,68.3856621 48.5559988,72.4483287 52.8826653,72.6003287 C52.053332,72.8443287 51.609332,72.9883287 51.417332,73.6789953 C52.721332,73.869662 56.8306652,74.1923286 56.1506653,77.4269952 C55.7653319,77.0389952 55.6386653,76.4603286 54.565332,75.8016619 C53.845332,75.3683286 53.0666653,75.3296619 52.6559987,75.9669953 C54.5586653,76.5909952 53.9346653,78.9056619 51.4426654,78.2296619 C50.6839987,78.0189952 49.5719988,78.8149952 49.5159988,79.7016618 C50.0679987,79.1429952 51.1933321,79.5563285 51.8399987,79.9776618 C54.6359986,81.7989951 56.3453319,79.1629952 56.7226652,78.5976619 C56.8386652,78.5976619 57.9813319,81.2336618 54.0066653,81.9376618 C53.6719987,82.8643284 52.7639987,84.494995 50.0679987,84.2976617 C49.1813321,87.4283283 46.4879988,85.882995 46.5813322,84.462995 C43.7199989,86.566995 46.6293322,89.2229949 47.7799988,89.6296616 C48.5826655,89.5643283 48.4053321,87.026995 49.8066654,87.4603283 C50.1493321,87.558995 48.7159988,89.2043283 49.2693321,89.9523282 C50.5546654,90.6829949 50.5293321,89.0056616 51.1599987,89.6296616 C51.4746654,90.7349949 52.741332,91.3469949 53.7799987,91.4656615 M42.3653323,82.5549951 C41.503999,84.0283284 43.3973322,85.4283284 43.3973322,85.4283284 C43.3346656,81.3003285 48.6146655,84.1336617 51.3759987,82.8176618 C52.0346654,82.5163284 52.501332,81.9309951 52.777332,81.3189951 C49.8066654,83.3643284 44.3306656,79.2029952 42.3653323,82.5549951 M21.7906661,128.517661 C21.7906661,128.517661 30.4199992,127.368327 33.9719992,128.741661 C46.0213322,133.38966 53.441332,128.196327 53.441332,128.196327 L53.441332,95.6483281 C53.441332,95.6483281 49.1466654,97.9749947 44.0973322,98.3176614 C39.2213324,98.6389947 29.3599993,94.7389948 21.7906661,95.2603281 L21.7906661,128.517661 Z M16.1479996,120.725661 L20.2546662,120.725661 L20.2546662,116.688328 L16.1479996,116.688328 L16.1479996,120.725661 Z M16.1479996,106.648328 L20.2546662,106.648328 L20.2546662,102.610995 L16.1479996,102.610995 L16.1479996,106.648328 Z M11.3119997,122.620327 C15.9453329,122.620327 15.9453329,115.550994 11.3119997,115.550994 C6.59733317,115.550994 6.69999983,122.620327 11.3119997,122.620327 M11.3119997,108.501661 C15.9453329,108.501661 15.9773329,101.440328 11.3119997,101.440328 C6.49333317,101.440328 6.49333317,108.501661 11.3119997,108.501661 M16.9026662,41.1629961 C15.6359996,46.9176627 15.6693329,49.6856626 15.9653329,55.5389958 C16.0986663,58.200329 16.9746662,62.2189956 16.5799996,62.2963289 C16.1959996,62.3629956 10.1679997,46.8456627 8.71466645,43.8003294 C6.17466651,44.6616627 10.2973331,58.0949957 15.5333329,64.5589955 C16.0333329,66.6243288 12.789333,62.4749956 10.8559997,60.824329 C9.07733311,59.312329 6.8346665,57.3389957 4.38533322,58.016329 C7.52933315,61.344329 14.7319996,67.5576621 15.5333329,69.1149954 C16.2079996,70.4429954 10.6199997,64.9736622 4.71466655,67.0056621 C8.53733312,69.0496621 17.4546662,73.605662 17.4679996,76.7763286 L17.3853332,76.8536619 C17.2866662,76.8536619 10.5239997,72.5883287 6.12799985,74.6389953 C9.39999977,76.4469952 20.7453328,83.6536617 23.8426661,85.698995 C25.310666,85.3763284 25.9039994,85.9083283 26.366666,86.2376617 C25.1839994,86.158995 21.2573328,85.546995 23.2439994,89.0656616 C24.0066661,85.9083283 29.5146659,88.8149949 31.4919992,89.2696616 C37.0066657,90.5389949 36.9666657,84.646995 36.4959991,82.2069951 C36.3186658,81.3069951 38.1866657,80.6616618 39.099999,80.7869951 C37.5253324,76.8936619 34.8266658,80.5629951 34.5013325,79.0843285 C34.3719991,78.4789952 32.5706659,78.0056619 32.5773325,76.5123286 C32.5853325,74.4749953 33.3826658,75.5856619 33.4599992,74.001662 C33.5373325,72.4629953 32.8053325,73.665662 32.9666658,72.001662 C33.2346658,69.3656621 37.5906657,72.3509953 39.395999,71.641662 C40.2946657,71.2789954 40.891999,70.4776621 41.7733323,70.6349954 C42.0306656,70.8523287 41.9146656,71.8443287 41.875999,72.2003287 C41.779999,73.0403287 40.231999,73.1323287 39.511999,74.277662 C38.8866657,75.2696619 40.2253323,78.2683285 40.951999,79.1496618 C41.9906656,74.2043286 46.6293322,75.7496619 47.3226655,70.5483287 C47.7599988,69.0763288 45.7253322,67.4456621 47.3759988,65.0443289 C46.1493322,63.8629956 44.6826655,58.2269957 47.2413322,55.5776624 C46.8039988,54.3803291 46.2386655,51.6123292 48.5133321,49.9936626 C47.7479988,48.3709959 47.9199988,46.3656627 48.5693321,44.3403294 C47.1546655,44.3323294 47.4306655,52.3029959 38.9266657,52.5509958 C38.7386657,52.6176625 38.6906657,51.6509959 38.931999,51.2229959 C39.955999,49.4283293 41.3226656,49.5349959 41.027999,45.318996 C40.931999,43.8789961 40.083999,45.574996 39.6333323,45.970996 C38.603999,46.8776627 37.8079991,47.002996 37.3586657,49.9616626 C33.9026658,47.2603293 34.2386658,43.9709961 34.4546658,42.3083294 C34.4626658,42.3016628 33.6959992,44.3856627 32.8173325,46.522996 C32.7786658,46.634996 36.3319991,50.9163292 36.8986657,51.9283292 C44.0786656,64.8483289 32.2653325,47.7536626 32.2386659,47.8176626 C31.6079992,49.2923293 31.0493326,50.5536626 30.6773326,50.9603292 C30.7653326,51.1323292 32.7399992,53.3269958 33.6266658,55.1896624 C39.1826657,66.7429955 30.3293326,51.3363292 30.0093326,51.6189959 C29.3453326,52.2243292 28.7933326,52.9803292 28.3693326,52.7056625 C28.266666,50.9349959 27.8439993,51.1789959 27.9653326,49.3643293 C27.0413327,48.126996 25.054666,46.186996 23.6679994,45.2203294 C23.6679994,45.2203294 23.3253328,48.4296626 23.4119994,48.5403293 C24.1119994,49.3896626 26.8413327,52.3216625 27.3999993,53.1963292 C36.4959991,67.4856621 23.1413328,49.7589959 23.1159994,49.9016626 C23.0239994,50.4683292 22.2866661,51.4016625 21.5146661,52.1976625 C21.5146661,52.1976625 24.4639994,56.2216624 25.190666,57.7136624 C30.7173326,69.0896621 20.7386661,52.6709958 20.6239995,52.7296625 C20.3893328,52.8563292 20.3639995,52.8563292 20.0866662,52.9469958 C19.8106662,53.0389958 20.3893328,56.2283291 20.7706661,58.1349957 C21.5293328,61.9349956 19.5159995,58.8776624 18.9706662,52.8696625 C18.4573329,52.7816625 17.2106662,52.6576625 16.7413329,52.2296625 C17.0426662,50.6256626 17.4213329,51.8629959 18.0919995,50.3229959 C18.9013329,48.4696626 16.9746662,45.442996 18.6506662,43.2283294 C19.2986662,42.3723294 19.3306662,42.5189961 19.2026662,41.9589961 C18.1746662,42.0336628 17.5466662,42.0523294 16.9026662,41.1629961 M19.9106662,32.129663 C18.6119995,34.5949963 18.0986662,36.6469962 17.4053329,38.9803295 C18.3879995,38.3163295 19.5546662,38.0203295 20.6173328,37.5603296 C21.9386661,34.1149963 20.6533328,30.7216631 19.9106662,32.129663 M89.9519978,31.273663 C88.7386644,29.5123298 88.2466645,32.9309963 89.2906644,36.2336629 C90.7706644,36.8229962 92.2586644,37.9816629 93.261331,39.2896628 C92.677331,36.4163296 91.6879977,33.7483296 89.9519978,31.273663 M95.1626643,42.0656628 C93.565331,41.5323295 92.8519977,39.7616628 91.6119977,38.7176629 C87.7426645,34.897663 81.9453313,36.2776629 77.3719981,34.225663 C73.2239982,32.721663 70.2293316,28.8869964 65.878665,27.9216631 C64.6066651,27.5069965 64.3893317,26.8683298 65.2053317,26.8949965 C65.6853317,26.9016632 68.3319983,24.1403299 72.5733315,26.2696632 C73.9866648,26.9816632 78.3813314,29.4323298 79.1226647,29.5789964 C76.7493314,27.3029965 75.5479981,25.2843299 73.4199982,24.0869966 C72.1226649,23.3576632 66.822665,21.46433 61.5359985,22.4829966 C59.1919985,22.9429966 57.3893319,20.78033 57.9879986,20.8256633 C59.2413319,21.1669966 60.6479985,20.99633 61.4893318,19.8856633 C63.0253318,18.6896634 65.2479984,17.1843301 67.1573317,19.42033 C67.7999983,20.1616633 70.8333316,21.7403299 73.6839982,18.84033 C70.6519982,19.00433 70.9493316,13.5403302 65.2053317,14.1856635 C63.0719984,14.1989968 58.3733319,19.0629967 57.0306652,17.5643301 C54.6546653,14.8869968 62.1413318,12.3563302 58.8959985,8.99633027 C55.9733319,5.96566368 52.481332,11.4176635 52.481332,11.4176635 C54.3066653,10.6469969 57.6719986,10.1536636 56.1906653,13.1269968 C55.5973319,14.3029968 54.4799986,15.3629968 54.4799986,17.5443301 C54.2239986,18.6296634 47.5239988,8.91899694 43.0946656,13.3109968 C41.355999,15.0336634 37.8279991,18.80833 34.6359991,20.24833 C43.0946656,20.9709966 44.3799989,17.5843301 44.7853322,17.0389967 C47.4906655,13.3896635 49.9893321,17.0976634 50.5679987,17.7429967 C51.449332,18.74833 52.6959987,20.1296633 52.2519987,20.3389966 C48.9733321,21.8909966 45.2226655,22.2203299 42.4266656,20.93633 C48.4213321,29.1776631 53.0799987,21.46433 53.0799987,21.46433 C53.737332,21.05633 52.913332,26.3496632 46.9839988,26.6389965 C43.2826656,26.8229965 40.0253323,23.4883299 37.4733324,23.4949966 C35.3986658,23.5016632 29.1026659,27.7509965 27.6199993,31.5243297 C31.2826659,28.7883298 35.9573324,27.2096631 38.863999,28.9469964 C44.3386656,32.2083297 51.2359987,27.2896631 51.5639987,27.8816631 C50.0293321,29.0789964 46.5479988,33.7403296 37.1466657,31.0843297 C33.5053325,28.9856631 31.9706659,32.6429963 29.7266659,32.701663 C33.5373325,36.0803296 36.1786658,34.357663 37.5133324,34.253663 C37.8279991,34.253663 35.9213324,35.8243296 34.5839991,35.9563296 C24.1999994,37.0403296 17.6226662,39.8936628 17.6226662,39.8936628 C17.5693329,39.8936628 18.4893329,41.9923294 22.9546661,40.4803295 C22.9546661,40.4803295 18.9466662,42.9323294 18.9826662,46.082996 C19.1106662,48.0216626 20.0506662,50.1069959 18.5653329,51.7229959 C24.5906661,51.9669959 20.3133328,43.5576627 24.5413327,41.4003295 C24.6386661,41.3616628 23.2973328,43.4056627 25.1839994,44.9896627 C26.0573327,42.5189961 28.2053326,41.2429961 29.7199993,40.8483295 C30.0799992,41.0389961 30.5159992,41.7949961 30.5159992,41.7949961 C28.9213326,44.430996 28.7106659,47.494996 29.1413326,51.0149959 L29.2039993,51.0469959 C29.5453326,51.0269959 30.1253326,49.8363292 30.5359992,48.9629959 C31.4106659,47.0696626 31.3906659,44.3536627 33.1426658,42.1043294 C34.1119991,40.8749961 34.7186658,39.6389962 35.5866658,39.0389962 C35.9639991,39.9149962 35.6813324,41.4203295 35.6253324,41.8216628 C35.4239991,43.2483294 34.5306658,45.7483293 36.9746657,47.9563293 C38.1106657,44.6616627 39.6666657,45.6216627 39.875999,44.0376627 C40.1653323,41.8269961 40.0706657,42.1843294 39.847999,40.4736628 C39.9613323,38.1389962 42.0879989,37.4829962 43.9759989,35.9763296 C48.2373321,33.6603297 51.0653321,32.4123297 52.9186653,29.4403298 C53.825332,34.449663 40.307999,35.4563296 42.0493323,45.1163294 C41.867999,48.9829959 42.5293323,49.3043293 39.7946657,51.6576625 C45.2226655,51.5003292 48.1773321,42.5976628 48.4679988,40.9669961 C49.0133321,37.9869962 50.8239987,37.8296629 53.313332,33.929663 C53.6719987,33.8069963 48.8639988,44.3069961 54.6026653,53.3029958 C54.6026653,53.3029958 56.5319986,48.6336626 55.6173319,45.5696627 C55.0719986,43.7216627 55.5799986,41.6829961 55.6839986,40.5269961 C55.7853319,39.3416628 55.4506653,44.786996 59.5426652,47.6016626 C59.7999985,45.5376627 61.7719985,42.3549961 59.8986652,38.9336629 C57.6239986,34.7709963 57.4626652,36.2643296 57.4293319,31.149663 C57.6306652,31.241663 58.2226652,34.6803296 59.7879985,36.6336629 C63.0853318,40.7563295 60.7266651,42.9723294 63.9466651,46.5483293 C64.2013317,44.7656627 64.6519984,45.470996 64.850665,43.8789961 C65.2813317,40.3029962 61.5493318,36.3963296 62.3773318,36.5149962 C63.3279984,36.6523296 64.850665,37.4749962 65.3599984,40.1843295 C65.3599984,40.1843295 66.7333317,37.7109962 65.474665,36.8896629 C63.1986651,35.3909963 62.7293318,33.7869963 63.0853318,31.9789964 C64.9093317,34.1603296 67.4013316,36.5736629 66.9719983,39.6776628 C67.178665,41.5509961 69.2053316,42.3083294 69.6106649,46.6603293 C69.6759983,47.382996 70.3959982,48.258996 71.1226649,48.6483293 C70.8079982,46.2016627 72.7066648,43.6683294 70.5439982,40.6776628 C71.0373316,40.4149961 72.8679982,43.0123294 75.5346648,42.0656628 C70.1759982,41.1056628 71.7373315,35.2923296 67.638665,32.601663 C66.398665,31.8003297 66.6053317,30.8869964 66.2373317,30.7803297 C69.9066649,30.9909964 72.7279982,35.3589963 73.2173315,35.6856629 C76.9093314,38.1789962 77.7079981,38.5656629 79.1853314,42.6029961 C79.7626647,44.1349961 79.3386647,44.818996 81.3866646,46.890996 C82.2813313,44.8456627 80.9826646,40.6109961 80.6706646,39.7043295 C80.0133313,37.7509962 77.6893314,36.0603296 78.1826647,36.0603296 C88.0653311,40.4203295 87.9359978,43.3536627 90.3013311,46.4696627 C91.0066644,47.6603293 94.521331,49.7309959 95.8439976,49.9283292 C95.5173309,49.2776626 94.153331,48.178996 94.0906643,47.002996 C93.9706643,44.8136627 93.261331,43.4789961 92.157331,41.7283294 C92.7719977,40.9669961 93.949331,43.1683294 95.1626643,42.0656628 M83.4133312,40.3029962 C82.1266646,39.1709962 81.2853313,38.7709962 81.567998,39.3283295 C81.8773313,39.9603295 82.1133313,40.4856628 82.2879979,40.9523295 C82.3413313,41.1176628 83.4133312,40.3029962 83.4133312,40.3029962 M82.5639979,41.8149961 C82.8546646,42.8403294 82.8546646,43.5443294 82.9879979,44.4523294 C83.0399979,44.838996 83.0533313,44.7936627 83.0706646,45.1163294 C83.0773313,45.2203294 85.8639979,42.8016628 86.0199978,42.6976628 C85.3186645,41.8216628 84.7239979,41.5123295 84.0599979,40.8869961 C83.5813312,41.2949961 82.5439979,41.7149961 82.5639979,41.8149961 M98.1973309,67.6229955 C95.6959976,70.2069954 92.8186643,76.7883286 91.6359977,75.8229953 C91.493331,75.7696619 96.3959976,68.1429955 98.8119975,63.6189956 C100.037331,61.3296623 101.039997,58.048329 101.127997,55.5776624 C101.511997,43.3936627 99.6799975,44.3256627 99.6799975,44.3256627 C96.8253309,53.9269958 95.4839976,65.0856622 91.3226644,70.2269954 C89.6626644,72.2923287 95.7746643,61.2256623 96.0359976,51.2643292 C94.861331,50.9549959 91.7559977,49.7109959 91.0066644,48.4963293 C91.405331,55.2083291 89.2319978,61.8043289 88.5439978,63.3949956 C87.1973312,66.4989955 89.1426644,56.1749958 89.2773311,53.7949958 C89.2839978,53.6976625 78.1333314,68.1229955 84.8653312,57.0043291 C86.6119978,54.1309958 89.3306644,52.2443292 89.3359978,52.1976625 C89.3799978,50.1923292 89.2453311,48.7189959 88.8666644,47.646996 C88.1799978,47.094996 73.6839982,66.9323288 81.6973313,53.1963292 C82.6933313,51.4923292 88.5026645,46.3376627 88.4559978,46.2336627 C88.0853311,45.450996 87.4333311,44.3136627 86.5306645,43.4709961 C86.3813312,43.6243294 83.1893313,45.9776627 83.1626646,46.1216627 C82.9293313,47.6536626 82.9133313,49.1003293 81.0226646,48.0163293 C81.0226646,48.0163293 73.8839982,56.3256624 77.1919981,50.5016626 C78.631998,47.9563293 79.5826647,47.6736626 79.963998,47.2203293 C79.963998,47.2203293 78.8626647,45.7136627 78.503998,44.1229961 C78.363998,43.4843294 72.3093315,50.8229959 74.6866648,46.2136627 C75.4466648,44.7416627 78.207998,43.1229961 78.1826647,43.0243294 C77.8986647,42.0576628 77.6093314,41.1309961 77.3039981,40.5269961 C76.9293314,39.7576628 71.6159982,35.5229963 71.6226649,35.5296551 C71.6226649,35.5296551 72.6653315,38.8816629 74.9226648,40.5269961 C76.2093314,41.4656628 76.2146648,41.2576628 77.0706647,41.7949961 C77.0506647,42.2883294 76.5719981,43.1029961 75.9533314,43.3149961 C75.1773315,43.5909961 72.6653315,43.1309961 72.6653315,43.1309961 C72.9013315,44.3856627 71.7973315,47.094996 71.8093315,50.0803292 C70.8693316,49.9816626 69.2053316,48.5216626 68.8093316,47.6936626 C68.5199983,42.7549961 67.4413316,44.2336627 66.4373317,40.6776628 C65.346665,42.1629961 66.514665,44.3069961 65.4413317,45.7016627 C63.9733317,47.6216626 63.7519984,48.9163293 63.5293317,51.2763292 C63.8733317,51.4683292 65.378665,53.1309958 64.0079984,56.6083291 C63.7853317,62.0816623 66.230665,64.1723289 61.8586651,68.0043288 C62.2293318,68.1229955 62.4919984,70.8656621 62.4919984,70.8723287 C65.710665,69.1549954 65.070665,72.857662 66.3293317,73.5803287 C68.3213316,74.7443286 67.9599983,75.9403286 67.062665,77.4336619 C72.7666648,75.8096619 66.8093317,71.9243287 69.3866649,71.8309954 C71.2573316,71.7723287 72.5106649,72.2523287 73.3253315,73.5083287 C74.1879981,74.8363286 73.1786648,75.6509953 75.5946648,77.8149952 C75.8306648,78.0189952 76.4773314,79.4589952 74.5586648,79.8589952 C74.1413315,79.9443285 74.5586648,81.5829951 74.5586648,81.5829951 C73.0239982,80.2803285 72.5466649,78.4589952 70.0746649,79.6163285 C68.8146649,80.2083285 67.9933316,79.6229952 67.474665,79.3723285 C67.474665,79.3723285 67.2133317,80.4056618 68.2559983,80.7536618 C70.9613316,81.6603285 71.6293315,82.7403284 71.4813315,83.3243284 C71.1159982,84.7323284 71.0053316,83.3243284 71.0839982,84.8043284 C71.1159982,85.3963284 71.7973315,86.190995 72.3639982,86.874995 C74.1933315,89.0843283 75.4959981,88.2563283 75.9599981,88.058995 C77.0213314,88.8816616 77.2119981,88.8283283 78.199998,89.2163283 C79.8973313,89.8883282 83.5746646,88.7763283 85.6293312,87.8216616 C86.6253312,87.374995 87.8079978,87.1056616 88.9746644,87.362995 C88.9626644,86.7576617 88.5439978,86.434995 88.1266645,86.3163283 C87.4853311,86.1136617 86.7199978,86.3163283 86.7719978,85.842995 C86.7986645,85.5736617 87.6733311,85.5203284 88.2253311,85.3696617 C91.2706644,84.5483284 95.2079976,81.8189951 92.625331,82.3909951 C92.3119977,82.4563284 94.4879976,80.7669951 96.1266643,78.5709952 L101.927997,72.9349953 C101.658664,72.613662 99.6279975,72.9029953 93.1839977,78.9456619 C92.265331,78.1296619 101.022664,71.5296551 104.634664,64.5269955 C104.325331,64.3043289 99.8213308,65.9469955 98.1973309,67.6229955 M77.7639981,118.885661 C77.7706647,118.188328 78.395998,117.181661 78.811998,116.806994 C79.2866647,117.162994 79.9733313,117.766994 80.9893313,117.964328 C81.0973313,117.477661 81.3306646,117.181661 81.715998,116.905661 L83.0399979,118.344328 C83.0399979,118.344328 82.4493313,118.812328 82.1066646,119.233661 C82.1066646,119.536328 82.1066646,122.434994 82.2359979,122.586994 C81.239998,123.474994 80.5093313,123.593661 80.0786647,123.526994 C79.279998,123.408327 78.4506647,122.376327 78.195998,122.034994 C77.9973314,121.757661 78.0533314,121.416327 78.195998,121.284327 C78.3493314,121.160327 78.555998,121.028327 78.779998,120.890994 C78.7413314,120.916327 78.703998,120.936327 78.671998,120.949661 C78.2973314,120.601661 77.7453314,119.574994 77.7639981,118.885661 M79.863998,117.964328 C79.5066647,118.253661 78.5866647,119.370994 79.2626647,120.613661 C79.1706647,120.673661 79.0693314,120.718994 78.979998,120.778994 C79.607998,120.422994 80.3426647,120.121661 80.9146646,119.936327 C80.9146646,119.436328 80.8933313,118.989661 80.8933313,118.832328 C80.8933313,118.614994 80.9146646,118.444328 80.9266646,118.278994 C80.5906647,118.260328 80.295998,118.168328 79.863998,117.964328 M78.5173314,121.462994 C78.395998,121.554994 78.3813314,121.613661 78.535998,121.856327 C78.831998,122.297661 79.1706647,122.678994 79.4053313,122.658994 C79.607998,122.658994 80.9146646,121.968327 80.8733313,121.600327 C80.9146646,121.337661 80.9266646,120.790994 80.919998,120.238994 C80.2693313,120.476327 78.9866647,121.074994 78.5173314,121.462994 M58.7973319,126.025661 C59.2866652,126.012327 59.7999985,126.164327 60.3293318,125.381661 C60.9506651,124.493661 62.8906651,120.325661 63.3546651,118.574994 C63.5773317,118.944328 65.514665,124.545661 65.622665,125.137661 C65.7639984,125.722994 66.1679983,126.288327 66.7413317,126.458994 C67.3253317,126.610994 67.2733317,126.860327 66.8359983,126.906994 C66.398665,126.958994 64.942665,126.834994 64.4253317,126.756327 C63.8999984,126.677661 63.8999984,126.420327 64.3373317,126.368327 C64.7679984,126.314994 64.8573317,126.229661 65.0839984,125.644327 C65.2933317,125.058994 64.2413317,122.382994 63.9879984,121.757661 C63.6759984,122.218994 62.5653318,124.664327 62.5653318,124.993661 C62.5653318,125.230994 63.0573318,125.460327 63.2653318,125.525661 C63.6759984,125.644327 63.6693317,125.928327 63.3613317,125.985661 C62.4919984,126.118994 59.4346652,126.386994 58.8893319,126.446994 C58.5053319,126.485661 58.3239985,126.025661 58.7973319,126.025661 M72.8679982,123.205661 C72.8626648,121.817661 73.0626648,119.726994 73.3586648,118.890994 C73.5493315,118.392328 74.1146648,117.582994 74.4959981,117.832328 C74.7533315,117.990994 75.2986648,119.076328 75.4733314,119.213661 C75.7719981,119.456328 75.4786648,119.872327 75.2253315,119.626994 C74.9506648,119.377661 74.7053315,119.758994 74.6306648,120.014994 C74.5386648,120.265661 74.2826648,123.322994 74.4106648,123.381661 C74.4106648,123.381661 76.8893314,123.684327 77.1306647,123.684327 C77.2973314,123.684327 77.3039981,124.224327 77.1306647,124.224327 C76.8199981,124.224327 74.7266648,124.184327 74.6733315,124.296327 C74.5253315,124.750994 74.4826648,125.296327 74.8413315,126.045661 C75.0226648,126.426994 74.6733315,126.584327 74.5386648,126.202994 C74.4106648,125.834994 73.3586648,124.388327 72.2773315,123.921661 C71.7186649,123.697661 72.9546648,123.185661 72.8679982,123.205661 M68.9826649,125.888327 L69.4559983,125.888327 L70.0333316,126.386994 L70.0333316,127.189661 L69.2586649,127.938994 L68.4919983,127.281661 L68.5053316,126.361661 L68.9826649,125.888327 Z M67.2733317,123.664327 L68.4573316,122.988327 L68.5133316,119.798994 C68.6039983,119.417661 68.9173316,119.042994 69.3866649,118.574994 L70.3439982,118.574994 L71.3599982,119.904327 C70.6199982,120.029661 70.3173316,120.173661 69.7986649,120.758994 L69.8173316,124.046994 L68.7746649,125.092327 L68.4173316,125.052327 L66.7799983,123.618994 C66.6119983,123.369661 67.0559983,123.369661 67.2733317,123.664327 M72.5306649,115.492328 C71.6546649,115.806994 70.8759982,116.378994 70.6133316,116.846994 C70.3759982,116.649661 69.5973316,115.800328 69.1559983,115.532328 C69.0586649,115.997661 68.3439983,116.498994 67.762665,116.602994 C67.5759983,116.400328 66.206665,115.360328 65.5893317,115.058994 C65.3959984,114.965661 65.4679984,114.545661 65.738665,114.656328 C65.994665,114.761661 66.4119983,115.084328 66.9013317,115.314994 C67.466665,115.090994 68.1079983,114.517661 68.1599983,113.341661 C68.2159983,112.040328 67.5359983,110.665661 66.7973317,110.040328 C68.0759983,110.374994 68.242665,111.132328 68.9426649,112.040328 C69.3279983,111.461661 70.0479982,110.770994 70.5706649,110.474994 C70.9413316,110.717661 71.9866649,111.894994 72.2146649,112.137661 C71.4626649,112.342994 70.0053316,113.105661 69.6426649,113.920328 C69.3546649,114.517661 69.4199983,114.801661 69.7079983,115.281661 C69.9653316,114.945661 71.7306649,114.130994 72.5306649,115.492328 M71.0373316,102.853661 C70.7746649,102.610995 70.0613316,102.788328 69.9653316,103.024328 C69.8866649,103.288328 69.7986649,106.305661 69.9199983,106.358994 C69.9199983,106.358994 70.7799982,106.377661 71.0106649,106.372328 C71.1919982,106.372328 71.2053316,106.917661 71.0306649,106.917661 C70.7146649,106.924328 70.0226649,106.989661 69.9786649,107.114994 C69.8799983,107.397661 70.0053316,108.310994 70.1826649,108.693661 C70.3639982,109.068328 70.0146649,109.232328 69.8799983,108.864328 C69.7386649,108.469661 68.8346649,107.514994 67.914665,107.068328 C67.394665,106.812328 68.614665,106.325661 68.5319983,106.345661 C68.5133316,104.964328 68.2373316,102.708328 68.7053316,101.992328 C69.0026649,101.552328 69.6693316,101.261661 70.1133316,101.440328 C70.5439982,101.610995 71.0893316,102.465661 71.2519982,102.610995 C71.5773315,102.846995 71.3013316,103.104328 71.0373316,102.853661 M77.8093314,102.348328 C77.6959981,102.846995 77.8359981,104.721661 77.8506647,105.530995 C77.5399981,105.997661 77.0373314,106.556328 76.5253314,106.937661 C76.1599981,106.608328 75.6626648,106.166995 75.0906648,105.556328 C75.5226648,105.616328 76.3639981,105.444328 76.4026648,105.082995 C76.4279981,104.616328 76.4986648,103.596328 76.4026648,102.808328 C76.3079981,102.012328 74.1599981,102.373661 74.1359981,102.913661 C74.0879981,103.465661 74.2426648,105.050995 74.2559981,105.798995 C73.9546648,106.265661 73.7693315,106.522994 73.2106648,106.937661 C72.8879982,106.608328 72.3226649,106.233661 71.7906649,105.648328 C72.2279982,105.616328 72.5919982,105.516328 72.8066648,105.102995 C73.0239982,104.681661 72.8426648,102.926995 72.8679982,102.249661 C72.9013315,101.585661 73.3066648,101.446995 73.8253315,100.908328 C74.3413315,101.032328 75.7986648,101.637661 76.2879981,101.978995 C76.2426648,101.440328 76.9293314,100.834995 77.3333314,100.709661 C77.6026647,101.006995 77.8986647,101.170995 78.2973314,101.538995 C77.9053314,101.794995 77.9586647,101.834995 77.8093314,102.348328 M60.5919985,102.584328 C60.1546652,102.380328 59.7173318,102.537661 59.6786652,103.038995 C59.6399985,103.544328 59.6399985,108.456328 59.6786652,109.160328 C59.3399985,109.160328 58.3933319,109.178994 58.0746652,109.212328 C58.1026652,108.548328 58.3439985,102.846995 58.2706652,102.052328 C58.2226652,101.597661 58.8293319,101.124328 59.3893318,100.742995 C59.6586652,101.065661 60.2439985,101.920328 60.7266651,102.282995 C61.0093318,102.518995 60.8159985,102.669661 60.5919985,102.584328 M81.6333313,115.090994 C79.795998,114.440328 78.6586647,112.992328 78.6053314,111.276328 C78.5733314,110.270994 79.4266647,108.200328 81.1906646,108.193661 C81.735998,108.712328 82.3079979,109.270994 82.8799979,109.645661 C83.2453313,110.297661 83.7773312,111.349661 83.7346646,112.158994 C83.6893312,113.144328 83.0839979,114.617661 81.6333313,115.090994 M81.7613313,109.258994 C81.4266646,109.416328 80.1813313,110.382994 79.8973313,111.113661 C79.5266647,112.098994 79.5266647,113.197661 80.5786647,113.834994 C81.399998,113.532328 82.3546646,112.724328 82.4426646,111.980328 C82.5573313,111.020328 82.2813313,109.876328 81.7613313,109.258994 M66.982665,103.380328 C66.674665,103.169661 66.4653317,103.294995 65.9479984,103.845661 C65.9679984,104.149661 65.9119984,106.601661 66.0333317,106.740328 C65.5639984,107.238994 65.1333317,107.936328 64.5813317,107.884328 C63.7706651,107.812328 62.7493318,106.404328 62.4919984,106.042995 C62.2893318,105.780328 62.4986651,104.773661 62.6533318,104.649661 C62.7053318,104.596328 62.7359984,104.596328 62.7813318,104.549661 C62.3973318,104.194995 61.7226651,103.261661 61.7399985,102.584328 C61.7533318,101.880328 62.0879984,101.209661 62.4919984,100.834995 C63.1866651,101.316328 63.6173317,101.978995 64.7679984,102.420328 C64.9093317,101.886995 65.2879984,101.801661 65.738665,101.466995 C66.006665,101.761661 66.982665,102.958995 67.1973317,103.169661 C67.414665,103.380328 67.2933317,103.584328 66.982665,103.380328 M64.7013317,103.077661 C64.3893317,102.853661 64.0146651,102.656328 63.5773317,102.446995 C63.2333318,102.729661 62.7293318,102.972328 63.3399984,104.136328 C63.7919984,103.885661 64.0226651,104.044328 64.7213317,104.116328 C64.714665,103.681661 64.7013317,103.281661 64.7013317,103.077661 M62.9893318,104.900328 C62.8639984,104.997661 62.8279984,105.930995 62.9746651,106.166995 C63.2653318,106.608328 63.4559984,106.693661 63.6893317,106.693661 C63.8999984,106.680328 64.7213317,106.121661 64.6719984,105.746995 C64.714665,105.497661 64.7213317,104.984328 64.7213317,104.464328 C64.1066651,104.386995 63.6759984,104.320328 62.9893318,104.900328 M75.2533315,114.480328 C75.6066648,114.084328 75.9733314,113.630994 76.5186648,113.630994 C77.0426647,113.624328 77.5959981,113.868328 77.7706647,114.090994 C77.3333314,114.440328 76.3373314,115.492328 76.1346648,115.689661 C75.6306648,115.412328 73.4413315,114.268328 73.2533315,112.960328 C72.9826648,111.020328 73.5946648,110.625661 74.4506648,109.566994 C74.9306648,108.962994 75.7293314,108.929661 76.0933314,109.028328 C76.4853314,109.304328 77.9186647,110.665661 78.079998,110.829661 C78.227998,111.001661 78.019998,111.152328 77.8359981,110.986994 C77.6613314,110.822994 77.7319981,110.750994 77.4946647,110.717661 C77.2519981,110.678994 76.2679981,110.513661 75.7026648,110.810994 C74.9959981,111.178994 74.0653315,112.060328 74.2826648,113.124328 C74.4373315,113.920328 74.9959981,114.241661 75.2533315,114.480328 M81.959998,104.852328 C81.6626646,105.181661 81.271998,105.648328 80.6706646,106.109661 C80.3093313,105.865661 79.2733314,104.912328 78.831998,104.661661 C79.467998,104.649661 80.4106647,104.438995 80.443998,103.845661 C80.463998,103.372328 80.4106647,100.394995 80.443998,99.848328 C80.8346646,99.7696613 81.291998,99.8096613 81.8506646,99.8429947 C81.8773313,100.262995 81.8693313,103.694995 81.8773313,104.109661 C82.0719979,104.214995 82.2879979,104.320328 82.4039979,104.418995 C82.6173313,104.254995 83.2839979,103.492328 83.6693312,103.288328 C83.9319979,103.492328 84.6186646,104.090995 84.9213312,104.378995 C85.2373312,104.694995 84.8946645,104.900328 84.6186646,104.641661 C84.4026646,104.900328 83.8093312,105.385661 83.2839979,105.761661 C82.9813313,105.510995 82.3546646,105.056328 81.959998,104.852328 M84.6186646,110.934994 C84.8533312,110.862994 85.2826645,110.796328 85.7306645,110.770994 C86.0133312,110.732328 85.9186645,111.204328 85.6999979,111.289661 C85.4866645,111.362994 85.0066645,111.454994 84.7106645,111.461661 C84.3893312,111.461661 84.2413312,111.046994 84.6186646,110.934994 M84.6386646,111.960328 C84.8786645,111.894994 85.3253312,111.816328 85.7559979,111.796328 C86.0519978,111.769661 85.9573312,112.224328 85.7439979,112.309661 C85.5133312,112.401661 85.0306645,112.493661 84.7239979,112.493661 C84.4213312,112.493661 84.2599979,112.060328 84.6386646,111.960328 M59.6786652,110.212328 C60.6813318,109.645661 62.3639984,109.750994 63.6306651,110.093661 C64.1066651,110.232328 64.3693317,110.257661 64.3573317,109.849661 C64.3573317,109.586994 64.7213317,109.645661 64.7213317,109.837661 C64.7213317,110.021661 64.734665,111.980328 64.734665,112.197661 C64.734665,112.441661 64.3826651,112.408328 64.3826651,112.197661 C64.3826651,111.869661 64.3826651,111.777661 64.0613317,111.309661 C63.1933318,110.021661 61.0093318,110.073661 59.8466652,111.645661 C59.4479985,112.184328 59.0866652,112.900328 59.5426652,113.032328 C60.0066652,113.177661 61.4079985,112.888328 62.3319984,112.809661 C62.8906651,112.769661 64.1693317,112.644328 64.3306651,112.545661 C64.4719984,112.441661 64.6893317,112.302994 64.6893317,112.585661 C64.7013317,112.854994 64.7013317,113.761661 64.7013317,114.038994 C64.7013317,114.308328 64.4919984,114.176328 64.3373317,114.084328 C64.1759984,113.966994 62.8079984,113.749661 62.2613318,113.644328 C61.7106651,113.545661 60.0213318,113.406994 59.5773318,113.558994 C59.1199985,113.709661 59.2666652,114.630994 59.6786652,115.149661 C60.8559985,116.708328 63.2386651,116.602994 64.0999984,115.301661 C64.3959984,114.853661 64.3959984,114.742994 64.3959984,114.406994 C64.3959984,114.196328 64.742665,114.176328 64.742665,114.406994 C64.7613317,114.630994 64.7679984,116.984328 64.7679984,117.174994 C64.7679984,117.360328 64.4253317,117.430994 64.4253317,117.174994 C64.4253317,117.004328 64.0479984,116.905661 63.6693317,117.004328 C62.9293318,117.233661 60.7759985,116.905661 59.8133318,116.378994 C58.9586652,115.886994 57.6426652,114.761661 57.6626652,113.348328 C57.6866652,111.020328 58.6133319,110.822994 59.6786652,110.212328 M54.1026653,88.5456616 C53.105332,87.394995 54.237332,86.454995 54.237332,86.454995 C53.825332,86.5203283 53.2346653,86.658995 52.857332,86.874995 C52.7839987,86.454995 53.3559987,86.310995 53.6266653,86.1256617 C55.7333319,85.258995 57.1213319,87.282995 58.9719985,87.6456616 L58.9719985,87.7243283 C57.7319986,87.9016616 56.7546652,88.7683283 55.6253319,89.1963283 C54.049332,89.7896616 52.385332,88.5789949 52.385332,88.3883283 C52.385332,87.966995 52.8359987,87.750995 54.1026653,88.5456616 M55.4199986,88.6309949 C55.8999986,88.4936616 57.0306652,87.854995 57.4359986,87.5856616 L55.4199986,86.5736617 C55.4199986,86.5736617 55.9786653,87.1776616 55.9786653,87.6123283 C55.9733319,88.2043283 55.4199986,88.6309949 55.4199986,88.6309949 M49.1879988,116.122994 L49.6319988,116.122994 L50.1706654,116.609661 L50.1706654,117.378994 L49.4506654,118.116328 L48.7306654,117.470994 L48.7439988,116.576328 L49.1879988,116.122994 Z M50.7813321,120.725661 C51.0386654,120.693661 51.3906654,121.310994 49.8279988,121.409661 C49.5453321,121.422994 49.1053321,120.896327 50.7813321,120.725661 M50.7293321,102.833661 C50.5679987,102.584328 50.0293321,102.761661 49.8733321,103.012328 C49.8733321,103.300328 49.5986654,106.377661 49.7199988,106.522994 C49.2759988,107.022994 48.5133321,108.133661 47.9959988,108.074994 C47.2479988,108.002994 46.1306655,106.930994 45.8893322,106.581661 C45.7053322,106.318995 45.9413322,105.056328 46.0839988,104.932328 C46.1226655,104.905661 46.1426655,104.892328 46.1786655,104.860328 C45.6799989,104.346995 45.3079989,103.774995 45.3079989,103.050995 C45.3373322,102.368328 45.5639989,101.696328 46.2573322,101.388328 C46.8799988,101.834995 47.6639988,102.386995 48.4333321,102.532328 C48.8039988,102.077661 49.3813321,101.781661 49.7266654,101.512328 C49.9639988,101.794995 50.7293321,102.413661 50.9399987,102.610995 C51.1413321,102.814995 50.9399987,103.104328 50.7293321,102.833661 M47.0799988,102.656328 C46.7773322,102.918995 45.6733322,103.676328 46.6546655,104.497661 C47.1746655,104.142995 47.4719988,104.194995 48.1226655,104.254995 C48.0946655,103.893661 48.0693321,103.570995 48.0693321,103.432328 C48.0693321,103.266995 48.1399988,103.149661 48.1773321,103.012328 C47.8399988,102.893661 47.4093321,102.828328 47.0799988,102.656328 M48.1506655,104.596328 C47.5866655,104.582995 47.0986655,104.761661 46.4813322,105.293661 C46.3666655,105.398995 46.2519988,106.094995 46.3853322,106.325661 C46.6546655,106.760328 46.6546655,106.890994 46.8986655,106.890994 C47.0799988,106.890994 48.2173321,106.200328 48.1586655,105.832328 C48.1973321,105.569661 48.1773321,105.082995 48.1506655,104.596328 M50.8106654,121.725661 C51.0653321,121.732327 51.2613321,122.324327 49.8479988,122.401661 C49.5719988,122.429661 49.1413321,121.658994 50.8106654,121.725661 M44.4533322,121.488327 C43.9693322,121.081661 43.3026656,120.442994 42.6839989,119.864327 C42.9306656,119.594994 44.2853322,118.956328 45.0479989,118.977661 C46.1919988,119.002994 47.2533322,119.594994 47.9093321,120.121661 C49.0986654,121.066994 48.6813321,122.066994 47.4719988,122.777661 C47.3559988,122.844327 47.2413322,122.869661 47.1253322,122.889661 C47.8813321,123.486994 48.5386655,124.020327 48.7093321,124.230994 C48.2239988,124.565661 47.6919988,125.374994 46.5146655,125.426994 C45.3373322,125.473661 44.0026656,124.408327 43.5719989,123.730994 C42.9919989,122.844327 43.6999989,122.066994 44.4533322,121.488327 M46.5599988,119.765661 C45.8599989,119.444328 44.6066656,120.350994 44.4146656,120.718994 C44.6706655,120.942994 45.1533322,121.330994 45.6933322,121.757661 C46.0893322,121.580327 46.5013322,121.397661 46.9386655,121.140327 C47.5799988,120.778994 47.2533322,120.081661 46.5599988,119.765661 M45.2879989,124.388327 C45.6586655,124.329661 46.4746655,123.894994 46.9586655,123.441661 C46.8506655,123.362994 46.5533322,123.113661 46.2239988,122.856327 C46.0373322,122.822994 45.8399989,122.804327 45.6399989,122.822994 C45.0373322,122.908327 44.7493322,123.362994 44.4733322,123.724327 C44.1839989,124.112327 44.9266655,124.428327 45.2879989,124.388327 M50.4986654,114.480328 L49.8946654,115.373661 L49.5719988,115.326994 L48.1773321,114.045661 C47.7999988,113.702994 48.1399988,113.552328 48.5559988,113.920328 L49.2759988,113.485661 L49.3026654,110.468328 C49.3746654,110.106994 49.6933321,109.974994 50.1386654,109.521661 L50.9173321,110.192328 L51.537332,110.856328 C50.8373321,110.993661 50.8373321,110.948328 50.4733321,111.276328 L50.4986654,114.480328 Z M40.859999,119.489661 C41.3813323,119.489661 42.0493323,120.180327 42.3813323,120.337661 C43.0826656,120.678994 42.8253323,121.028327 42.0159989,120.844327 C40.2573323,120.397661 39.439999,121.804327 39.2613324,122.185661 C39.9693323,122.908327 41.1826656,124.092327 41.9146656,124.704327 C41.4306656,125.144327 41.227999,125.894994 40.3666657,125.953661 C39.6133323,125.933661 37.8546657,125.078994 37.5453324,122.849661 C37.2559991,120.706994 39.2613324,119.549661 40.859999,119.489661 M39.7493323,125.230994 C39.9413323,124.736327 40.4546657,124.388327 40.7373323,124.217661 C40.2386657,123.724327 39.4586657,122.844327 39.1333324,122.606994 C38.6906657,124.033661 38.8573324,124.525661 39.7493323,125.230994 M27.310666,110.132328 C27.566666,110.645661 27.682666,110.817661 28.1399993,111.414994 C27.2453327,111.269661 26.550666,111.428328 25.8973327,111.928328 C24.5413327,112.973661 24.9599994,114.662994 25.358666,115.234994 C26.090666,116.320328 27.1239993,114.768328 27.310666,114.565661 C27.546666,114.853661 27.9653326,115.261661 28.3693326,115.577661 C27.9719993,116.110994 27.6399993,116.602994 27.3639993,116.925661 C26.502666,116.616328 25.2359994,115.840328 24.690666,115.030994 C23.9119994,113.841661 23.4866661,111.948328 24.838666,110.842994 C25.478666,110.310994 26.0053327,109.896328 27.310666,110.132328 M29.3653326,114.656328 C29.2306659,114.346994 29.4186659,113.242994 29.5599993,113.118994 C29.6613326,113.032328 29.7346659,112.973661 29.8226659,112.906994 C29.3226659,112.441661 28.8533326,112.045661 28.8653326,111.349661 C28.8853326,110.685661 29.4186659,110.093661 30.1053326,109.777661 C30.4706659,110.337661 31.0426659,110.678994 31.6533325,110.822994 C31.7053325,110.289661 31.8279992,109.902994 32.1799992,109.633661 C32.4293325,109.909661 33.4319992,110.777661 33.6266658,110.974994 C33.8439992,111.170994 33.6826658,111.414994 33.4319992,111.170994 C33.2839992,111.040328 32.9253325,111.244328 32.8173325,111.414994 C32.8173325,111.704328 32.8173325,114.768328 32.9466658,114.913661 C32.4946659,115.406994 32.0653325,116.438994 31.5586659,116.385661 C30.7933326,116.320328 29.6946659,115.426994 29.3653326,114.656328 M31.6279992,111.737661 C31.6213325,111.572328 31.6279992,111.428328 31.6279992,111.284328 C31.4666659,111.244328 31.2759992,111.204328 31.0493326,111.085661 C30.7413326,111.349661 29.2626659,111.836328 30.2279992,112.618994 C30.8253326,112.262994 31.0559992,112.533661 31.6279992,112.894994 C31.6346659,112.394994 31.6279992,111.914994 31.6279992,111.737661 M30.7293326,115.445661 C30.9199992,115.432328 31.6079992,114.597661 31.5586659,114.229661 C31.5933325,114.032328 31.6079992,113.656328 31.6213325,113.269661 C30.7653326,112.724328 30.4959992,112.736328 29.9119993,113.394994 C29.6213326,113.742994 29.6479993,114.373661 29.7826659,114.617661 C30.0466659,115.025661 30.5106659,115.445661 30.7293326,115.445661 M33.1066658,123.113661 C33.1373325,122.640327 33.0613325,119.752327 33.0999992,119.220328 C33.4599992,119.141661 33.9026658,119.173661 34.4159991,119.200328 C34.4546658,119.621661 34.4359991,123.237661 34.4359991,123.645661 C34.6226658,123.750994 34.8266658,123.861661 34.9199991,123.948327 C35.1359991,123.784327 35.5533324,123.172327 35.8879991,122.968327 C36.1506658,123.165661 36.8186657,123.593661 37.1079991,123.874994 C37.4039991,124.172327 37.0879991,124.388327 36.8186657,124.132327 C36.6146658,124.362994 36.1119991,124.888327 35.8426658,125.204327 C35.5533324,124.973661 34.8919991,124.572327 34.5239991,124.362994 C34.2319991,124.697661 33.8759992,124.697661 33.2986658,125.144327 C32.9813325,124.901661 32.2719992,124.388327 31.8906659,123.921661 C32.5653325,123.724327 33.0679992,123.692327 33.1066658,123.113661 M26.4173327,118.352328 C27.3439993,117.806994 28.6333326,118.161661 29.8026659,118.504328 C30.2653326,118.628328 30.3293326,118.332328 30.5479992,118.004328 C30.9266659,117.497661 31.2359992,117.818994 30.9599992,118.233661 C30.8586659,118.365661 30.6639992,118.582994 30.6506659,118.845661 C30.6506659,119.022994 30.6773326,120.870994 30.6773326,121.106994 C30.6773326,121.324327 30.2399992,121.304327 30.2399992,121.106994 C30.2199992,120.778994 30.2653326,120.220327 29.9706659,119.758994 C29.1613326,118.509661 27.6133326,117.990994 26.5319993,119.529661 C26.1599993,120.034994 26.0719993,120.810994 26.0253327,121.364327 C25.9493327,122.100327 26.5093327,123.053661 26.5439993,123.138994 C27.9213326,124.953661 29.8426659,123.606994 29.9973326,122.869661 C30.1053326,122.376327 30.2133326,121.777661 30.2133326,121.462994 C30.1999992,121.252327 30.6506659,121.272327 30.6639992,121.488327 C30.6639992,121.718994 30.6773326,124.500327 30.6773326,124.697661 C30.6839992,124.874994 30.3066659,124.933661 30.2999992,124.697661 C30.2799992,124.257661 30.0239992,124.217661 29.6813326,124.322994 C28.9866659,124.533661 27.4319993,124.868327 26.5373327,124.348327 C25.742666,123.881661 24.5306661,122.790994 24.5493327,121.416327 C24.5719994,119.153661 25.426666,118.962994 26.4173327,118.352328 M37.0319991,111.789661 C36.8319991,111.593661 36.3066658,112.053661 36.2799991,112.085661 C36.1119991,112.276328 35.8626658,114.906994 35.9773324,114.965661 C35.9773324,114.965661 37.6466657,115.169661 37.8666657,115.169661 C38.031999,115.156328 38.0586657,115.689661 37.8733324,115.696328 C37.6039991,115.696328 36.3319991,115.517661 36.2866658,115.642994 C36.2199991,115.920328 36.0426658,116.858994 36.4613324,117.661661 C36.6573324,118.010994 36.4533324,118.344328 36.3253324,117.990994 C36.1786658,117.622994 35.1359991,116.005661 34.4546658,115.734994 C33.9026658,115.510994 33.9719992,115.378994 34.3199991,115.293661 C34.6026658,115.234994 34.8999991,114.900328 34.8466658,114.906994 C34.7839991,113.558994 34.6546658,111.894994 35.0733325,111.198994 C35.3359991,110.744328 36.0733324,110.284328 36.4013324,110.573661 C36.7853324,110.882994 37.0759991,111.401661 37.2306657,111.533661 C37.5253324,111.777661 37.2826657,112.020328 37.0319991,111.789661 M35.6479991,102.584328 C35.3093325,102.510995 35.2506658,102.446995 35.2506658,102.656328 C35.2506658,103.050995 35.0959991,104.845661 35.0666658,105.989661 C35.0279991,107.133661 34.4693325,107.469661 34.1453325,107.634994 C33.8239992,107.258994 33.0866658,106.805661 32.6493325,106.437661 C32.3213325,106.674994 32.1533325,107.220328 31.7893325,107.798994 C31.3639992,107.404328 31.0346659,107.041661 30.4199992,106.556328 C30.7026659,106.226995 31.1906659,105.813661 31.2359992,105.248328 C31.2693326,104.674995 31.2506659,102.032328 31.2826659,101.361661 C31.7359992,101.361661 31.6533325,101.316328 32.4293325,101.348328 C32.3546659,101.794995 32.4146659,105.233661 32.4146659,105.728328 C32.7119992,106.004328 32.7519992,106.049661 33.0813325,106.292328 C33.3239992,106.081661 33.8826658,105.964328 33.8826658,105.596328 C33.8826658,105.220328 33.9906658,103.590995 33.8639992,102.984328 C33.7013325,102.254995 33.7679992,101.722995 34.1719991,100.980328 C34.4693325,101.316328 35.5919991,102.104328 35.8426658,102.301661 C36.0799991,102.510995 35.9573324,102.669661 35.6479991,102.584328 M28.402666,108.278994 C27.7479993,107.837661 25.582666,106.924328 25.250666,104.688328 C24.9599994,102.537661 26.9959993,101.256328 27.9719993,100.842995 C28.214666,101.334995 28.7106659,102.137661 29.2039993,102.702995 C29.5733326,103.136328 29.1613326,103.248328 28.8333326,102.918995 C28.382666,102.426995 27.0413327,102.893661 26.686666,103.537661 C27.330666,104.030995 29.0213326,105.437661 29.7559993,106.042995 C29.2693326,106.496328 28.5239993,107.634994 28.402666,108.278994 M26.442666,103.873661 C25.830666,104.641661 25.498666,105.892328 27.3439993,107.022994 C27.546666,106.522994 28.1653326,105.569661 28.4479993,105.404328 C27.9653326,104.918995 26.770666,104.109661 26.442666,103.873661 M39.4586657,112.184328 C39.0813324,112.605661 38.9386657,112.946994 38.8573324,113.420328 C38.7786657,113.920328 38.3666657,113.881661 38.3666657,113.420328 C38.3666657,112.980328 38.4693324,111.428328 38.547999,111.066994 C38.6306657,110.692328 39.0053324,110.817661 39.0413324,111.098994 C39.0813324,111.369661 39.2613324,111.441661 39.5053323,111.461661 C40.0373323,111.513661 40.891999,111.184328 41.8426656,111.269661 C42.9666656,111.349661 43.8479989,113.092328 43.3639989,114.453661 C42.9106656,115.748328 41.471999,115.517661 40.5013323,115.826994 C39.6133323,116.070994 39.2426657,116.629661 40.2186657,117.266994 C41.355999,118.004328 42.7759989,116.826994 42.9106656,116.576328 C43.1213323,116.194994 43.2959989,116.202994 43.2959989,116.694994 C43.3213323,117.760328 43.2306656,117.154994 43.1213323,118.161661 C43.0826656,118.522994 42.8253323,118.556328 42.7959989,118.201661 C42.7759989,117.852328 42.3453323,117.964328 42.0239989,117.964328 C41.699999,117.970994 40.7453323,118.116328 39.9226657,117.661661 C39.395999,117.352328 38.1986657,116.418994 38.8733324,115.293661 C39.2613324,114.637661 41.5666656,114.104328 42.1319989,113.729661 C42.7093323,113.348328 42.8386656,112.388328 42.2866656,111.941661 C41.6053323,111.396328 39.7493323,111.854994 39.4586657,112.184328 M42.1319989,109.974994 C41.927999,109.573661 41.591999,109.198994 40.9866656,108.922994 C41.355999,108.600328 41.8426656,108.185661 42.1586656,107.976328 C42.5239989,108.390994 42.8586656,108.764328 43.2759989,109.160328 C42.8586656,109.245661 42.3813323,109.449661 42.1319989,109.974994 M39.9613323,103.754995 C39.4733323,103.229661 39.1893324,103.472328 38.823999,103.820328 C38.6493324,104.024328 38.5813324,105.912328 38.707999,105.970995 C38.707999,105.970995 39.619999,106.094995 39.839999,106.094995 C40.0106657,106.094995 39.9986657,106.621661 39.8133323,106.621661 C39.543999,106.621661 38.731999,106.614994 38.6826657,106.745661 C38.5813324,107.009661 38.843999,108.278994 38.8933324,108.849661 C38.9266657,109.258994 38.707999,109.382994 38.603999,109.009661 C38.4893324,108.633661 37.6146657,107.022994 37.0946657,106.641661 C36.6573324,106.318995 37.6146657,105.865661 37.5253324,105.892328 C37.5586657,104.537661 37.3639991,103.149661 37.8213324,102.458995 C38.1173324,102.038995 39.0226657,101.722995 39.1826657,102.129661 C39.3306657,102.544328 40.0173323,103.386995 40.171999,103.524328 C40.4546657,103.774995 40.2053323,104.005661 39.9613323,103.754995 M43.7586656,103.662995 L43.7399989,106.430994 L42.8586656,107.726994 L42.5239989,107.680328 L41.135999,106.385661 C40.7706656,106.062995 41.091999,105.912328 41.5173323,106.265661 L42.4333323,105.786995 L42.4546656,102.861661 C42.5359989,102.505661 42.8586656,102.413661 43.3026656,101.960328 L43.8813322,102.544328 L44.4786656,103.214995 C43.8026656,103.340328 44.1173322,103.326995 43.7586656,103.662995 M47.5173321,111.829661 C47.8879988,112.322994 47.5106655,112.618994 47.2533322,112.053661 C47.0533322,111.612328 45.9879989,112.092328 45.5973322,112.460328 C45.0866655,112.946994 44.7639989,114.209661 45.1733322,114.656328 C45.5893322,115.104328 46.1919988,114.900328 46.9653322,114.920328 C47.4719988,114.945661 47.5799988,115.418994 47.6639988,115.656328 C47.4213321,115.774994 47.0533322,115.985661 46.5666655,116.273661 C46.0706655,115.952328 45.3079989,115.301661 44.9733322,115.025661 C44.5613322,114.677661 43.7119989,113.473661 44.1773322,112.177661 C44.6493322,110.842994 45.7493322,110.428328 46.5666655,110.362994 C46.8159988,110.817661 47.2666655,111.513661 47.5173321,111.829661" id="path22"></path>
            </g>
            <g id="g24" transform="translate(130.7983, 1.7966)">
                <path d="M0,37.7559991 C0,23.5133327 6.8426665,13.4666663 15.6759996,7.39733315 C23.7346661,1.98533328 33.2293325,0 43.1613323,0 C50.2226654,0 58.1759985,1.65733329 60.5986652,2.54533327 C61.8186651,2.98533326 63.1439984,3.41999991 64.4626651,3.64266658 C66.1199983,5.73999986 68.9893316,13.025333 69.7626649,18.7666662 C69.3173316,19.5426662 67.6679983,19.7599995 66.8959983,19.2066662 C64.3573317,12.697333 58.0613319,3.41999991 43.8253322,3.41999991 C25.7199994,3.41999991 11.0359997,16.2279996 11.0359997,39.4066657 C11.0359997,62.2626651 25.390666,72.9666648 42.2773323,72.9666648 C58.2813319,72.9666648 63.2519984,64.3533317 64.910665,56.8506652 C65.6759984,56.1866653 67.338665,56.2986653 67.8853316,57.0666652 C67,63.8013317 66.4519983,70.7573316 66.342665,73.2959982 C65.3479984,73.1906648 64.5786651,73.4079982 63.2519984,73.7359982 C58.0613319,75.1759981 49.6706654,76.3866648 43.7093322,76.3866648 C32.2333325,76.3866648 21.9693328,73.2959982 13.9106663,67.0093317 C5.51999986,60.4946652 0,50.0066654 0,37.7559991 M140.40933,37.4213324 C145.707996,37.4213324 145.92933,37.2026657 145.92933,33.8893325 L145.92933,18.3253329 C145.92933,6.73333316 145.92933,5.62799986 139.194663,4.52399989 L137.10133,4.19466656 C136.43333,3.53866658 136.65733,1.76933329 137.31733,1.43466663 C142.178663,1.65733329 146.151996,1.76933329 150.675996,1.76933329 C154.979996,1.76933329 158.734663,1.65733329 164.033329,1.43466663 C164.694663,1.76933329 164.915996,3.75466657 164.257329,4.19466656 L161.605329,4.52399989 C155.198663,5.29999987 154.979996,6.73333316 154.979996,18.3253329 L154.979996,58.0679985 C154.979996,69.6533316 155.198663,71.3106649 161.605329,71.9746649 L163.918663,72.1906649 C164.586663,72.6386649 164.365329,74.6239981 163.705329,74.9533315 C158.734663,74.7293315 154.979996,74.6239981 150.675996,74.6239981 C146.151996,74.6239981 142.394663,74.7293315 137.31733,74.9533315 C136.65733,74.6239981 136.43333,72.6386649 137.10133,72.1906649 L139.194663,71.9746649 C145.707996,71.3106649 145.92933,69.6533316 145.92933,58.0679985 L145.92933,45.3693322 C145.92933,41.9453323 145.707996,41.839999 140.40933,41.839999 L108.843997,41.839999 C103.542664,41.839999 103.319997,41.9453323 103.319997,45.3693322 L103.319997,58.0679985 C103.319997,69.6533316 103.542664,71.3106649 109.947997,71.9746649 L112.041331,72.1906649 C112.698664,72.6386649 112.486664,74.6239981 111.818664,74.9533315 C107.071997,74.7293315 103.319997,74.6239981 99.0199975,74.6239981 C94.2719976,74.6239981 90.5146644,74.8399981 85.1093312,74.9533315 C84.4426646,74.6239981 84.2253312,72.6386649 84.8853312,72.1906649 L87.7519978,71.9746649 C93.4959977,71.5333315 94.2719976,69.6533316 94.2719976,58.0679985 L94.2719976,18.3253329 C94.2719976,6.73333316 94.0479976,5.62799986 87.8666645,4.52399989 L85.9893312,4.19466656 C85.3293312,3.53866658 85.5533312,1.76933329 86.2106645,1.43466663 C90.5146644,1.54533329 94.2719976,1.76933329 99.0199975,1.76933329 C103.319997,1.76933329 107.071997,1.65733329 113.038664,1.43466663 C113.695997,1.76933329 113.918664,3.75466657 113.251997,4.19466656 L110.053331,4.52399989 C103.871997,5.18666654 103.319997,6.73333316 103.319997,18.3253329 L103.319997,33.8893325 C103.319997,37.2026657 103.542664,37.4213324 108.843997,37.4213324 L140.40933,37.4213324 Z M191.405329,18.5426662 C191.405329,6.84399983 191.185329,5.29999987 184.671995,4.52399989 L181.913329,4.19466656 C181.251995,3.53866658 181.474662,1.76933329 182.134662,1.43466663 C187.655995,1.65733329 191.405329,1.76933329 196.042662,1.76933329 C200.455995,1.76933329 204.213328,1.65733329 209.726661,1.43466663 C210.394661,1.76933329 210.614661,3.75466657 209.950661,4.19466656 L207.189328,4.52399989 C200.675995,5.29999987 200.455995,6.84399983 200.455995,18.5426662 L200.455995,57.8426652 C200.455995,69.5479983 200.675995,71.4226649 207.189328,71.9746649 L209.950661,72.1906649 C210.614661,72.6386649 210.394661,74.6239981 209.726661,74.9533315 C204.213328,74.7293315 200.455995,74.6239981 196.042662,74.6239981 C191.405329,74.6239981 187.655995,74.7293315 182.134662,74.9533315 C181.474662,74.6239981 181.251995,72.6386649 181.913329,72.1906649 L184.671995,71.9746649 C191.185329,71.4226649 191.405329,69.5479983 191.405329,57.8426652 L191.405329,18.5426662 Z M223.745328,37.7559991 C223.745328,23.5133327 230.597328,13.4666663 239.419994,7.39733315 C247.48266,1.98533328 256.977327,0 266.91466,0 C273.97466,0 281.925326,1.65733329 284.351993,2.54533327 C285.567993,2.98533326 286.889326,3.41999991 288.210659,3.64266658 C289.867993,5.73999986 292.741326,13.025333 293.511993,18.7666662 C293.070659,19.5426662 291.413326,19.7599995 290.643993,19.2066662 C288.105326,12.697333 281.813326,3.41999991 267.57066,3.41999991 C249.469327,3.41999991 234.793327,16.2279996 234.793327,39.4066657 C234.793327,62.2626651 249.139994,72.9666648 266.02666,72.9666648 C282.029326,72.9666648 287.001326,64.3533317 288.658659,56.8506652 C289.426659,56.1866653 291.083993,56.2986653 291.638659,57.0666652 C290.754659,63.8013317 290.202659,70.7573316 290.090659,73.2959982 C289.097326,73.1906648 288.322659,73.4079982 287.001326,73.7359982 C281.813326,75.1759981 273.421326,76.3866648 267.46666,76.3866648 C255.985327,76.3866648 245.713327,73.2959982 237.658661,67.0093317 C229.269328,60.4946652 223.745328,50.0066654 223.745328,37.7559991 M354.774658,12.369333 C355.654658,9.71999976 356.207991,7.73199981 356.207991,6.5146665 C356.207991,5.41199986 354.661324,4.74799988 352.349325,4.52399989 L349.143991,4.19466656 C348.369325,3.64266658 348.481325,1.88133329 349.362658,1.43466663 C352.565325,1.54533329 356.759991,1.76933329 362.059991,1.76933329 C367.025324,1.76933329 370.890657,1.65733329 375.415991,1.43466663 C375.966657,1.88133329 376.191991,3.64266658 375.415991,4.19466656 L372.435991,4.52399989 C367.689324,5.08266654 366.254658,6.73333317 363.053324,16.2279996 L347.929325,60.6066652 C346.271991,65.458665 344.510658,70.5346649 343.077325,75.3999981 C342.854658,76.1626648 342.077325,76.3866648 341.418658,76.3866648 C340.202658,74.9533315 338.329325,72.9666648 335.679992,72.1906649 C336.009325,70.4293316 335.345325,68.338665 333.798658,64.3533317 L322.541325,34.5546658 C317.906659,22.1853328 314.814659,15.0106663 312.830659,9.93599975 C311.283992,5.96399985 308.858659,4.74799988 306.207992,4.52399989 L302.565326,4.19466656 C301.901326,3.64266658 302.125326,1.88133329 302.782659,1.43466663 C305.766659,1.54533329 309.739992,1.76933329 313.381325,1.76933329 C318.570659,1.65733329 321.989325,1.65733329 324.862659,1.43466663 C325.855992,1.88133329 325.855992,3.64266658 325.079992,4.19466656 L321.435992,4.52399989 C318.786659,4.74799988 318.234659,5.41199986 318.234659,6.73333317 C318.234659,7.95066647 319.010659,10.9293331 320.667992,15.8986663 L324.527992,27.4853326 C325.305325,29.8066659 325.967992,30.1346659 328.722658,30.1346659 L345.391991,30.1346659 C348.705325,30.1346659 349.143991,29.8066659 349.915991,27.3813326 L354.774658,12.369333 Z M335.015992,56.4106653 C336.231992,59.7186652 337.337325,62.3679984 337.665325,62.9213318 L337.887992,62.9213318 C338.546658,61.5986651 339.538658,58.6146652 340.426658,55.9639986 L346.383991,37.9733324 C347.377325,34.9946658 347.159991,34.5546658 343.957325,34.5546658 L330.379992,34.5546658 C327.289325,34.5546658 327.178658,34.6653325 328.065325,37.2026657 L335.015992,56.4106653 Z M448.270655,19.2066662 C448.270655,24.8413327 448.374655,27.9333326 453.018655,28.478666 L454.781322,28.7013326 C455.557322,29.3666659 455.443989,31.0239992 454.675989,31.4626659 C451.031989,31.2399992 447.271989,31.1346659 442.971989,31.1346659 C436.461322,31.1346659 430.386656,31.2399992 427.190656,31.4626659 C426.414656,31.1346659 426.302656,29.1426659 427.190656,28.7013326 L432.042656,28.1493326 C438.887989,27.3813326 439.222656,26.7093327 439.222656,17.4453329 L439.222656,13.025333 C439.222656,9.49466643 438.670656,7.50799981 438.117322,6.73333317 C436.894656,4.85866655 432.817323,3.41999991 425.971989,3.41999991 C403.781323,3.41999991 392.853324,20.0946662 392.853324,41.2866656 C392.853324,57.8426652 402.242657,73.0719982 423.651989,73.0719982 C434.909322,73.0719982 443.194656,69.3253316 446.285322,57.4039986 C446.942655,56.7399986 448.939989,56.8506652 449.269322,57.7319986 C448.270655,64.3533317 447.606655,70.1013316 447.606655,73.7359982 C446.285322,73.5186648 442.865322,74.2946648 440.761322,74.7293315 C438.887989,75.1759981 433.041323,76.3866648 426.743989,76.3866648 C410.074656,76.3866648 399.145323,71.2039982 391.754657,63.4733317 C384.910657,56.1866653 381.818657,46.6919988 381.818657,37.3146657 C381.818657,27.5973326 385.35199,18.8773329 391.97199,12.257333 C400.473323,3.64266658 412.506656,0 425.638656,0 C431.601323,0 439.551989,1.32799997 445.403989,2.87466659 C447.494655,3.41999991 449.479989,3.86533324 450.807989,3.86533324 C451.254655,4.19466656 451.254655,4.85866655 450.913322,5.18666654 C448.939989,5.96399985 448.270655,8.61466645 448.270655,13.025333 L448.270655,19.2066662 Z M509.527987,0 C530.843987,0 547.835986,16.2279996 547.835986,38.5253324 C547.835986,57.9559986 535.027987,76.3866648 509.527987,76.3866648 C486.790654,76.3866648 470.231988,59.5013318 470.231988,37.4213324 C470.231988,17.5573329 485.027988,0 509.527987,0 M510.959987,3.41999991 C489.221321,3.41999991 481.278655,24.6173327 481.278655,40.9573323 C481.278655,65.1293317 496.173321,72.9666648 507.659987,72.9666648 C528.742653,72.9666648 536.802653,53.3199987 536.802653,35.1066658 C536.802653,13.361333 524.215987,3.41999991 510.959987,3.41999991" id="path26"></path>
            </g>
            <g id="g28" transform="translate(345.7426, 103.2489)">
                <path d="M12.398061,1.79466662 L11.102061,1.99199995 C8.71539443,2.27466661 8.60339443,2.5306666 8.60339443,7.47599981 L8.60339443,23.8546661 C8.60339443,28.8266659 8.76072776,29.1946659 11.0767277,29.3853326 L12.3247277,29.4906659 L12.398061,29.5373326 C12.6273943,29.6933326 12.746061,30.0173326 12.7207277,30.4173326 C12.706061,30.5746659 12.6473943,31.1146659 12.2593943,31.2986659 L12.1807277,31.3386659 L12.0953943,31.3319992 C9.9193944,31.2533326 8.30206111,31.1999992 6.40872782,31.1999992 C4.43539454,31.1999992 2.85006124,31.2466659 0.628727965,31.3319992 L0.542061301,31.3386659 L0.46072797,31.2986659 C0.0767279791,31.1146659 0.0167279806,30.5746659 0.00339464763,30.4106659 C-0.0219386851,30.0173326 0.0953946453,29.6933326 0.326061306,29.5373326 L0.400727971,29.4906659 L1.63806127,29.3853326 C3.96206122,29.1946659 4.11939454,28.8266659 4.11939454,23.8546661 L4.11939454,7.47599981 C4.11939454,2.5306666 4.00739455,2.27466661 1.63139461,1.99199995 L0.359394639,1.83466662 L0.272727974,1.75466662 C0.0100613141,1.49199996 -0.0299386849,1.05866664 0.0220613138,0.742666648 C0.0767279791,0.39999999 0.230061309,0.143999996 0.45272797,0.0386666657 L0.535394634,0 L0.628727965,0 C2.96606124,0.0919999977 4.50072787,0.13733333 6.40872782,0.13733333 C8.23006111,0.13733333 9.81406107,0.0919999977 12.0953943,0 L12.1807277,0 L12.2593943,0.0386666657 C12.6473943,0.222666661 12.706061,0.762666648 12.7207277,0.926666644 C12.746061,1.3213333 12.6273943,1.64399996 12.398061,1.79466662" id="path30"></path>
            </g>
            <g id="g32" transform="translate(302.7548, 102.6498)">
                <path d="M34.0394616,31.8839992 L33.9434616,31.9439992 L33.832795,31.9373325 C32.3234617,31.8519992 31.1221284,31.7986659 29.1114618,31.7986659 C27.4861285,31.7986659 25.9741285,31.8386659 23.7021286,31.9373325 L23.6301286,31.9373325 L23.5607952,31.9173325 C23.2941286,31.8119992 23.1114619,31.5693325 23.0447953,31.2199992 C22.9687953,30.8119992 23.0967953,30.3919992 23.3607952,30.1693326 L23.4501286,30.0893326 L24.3301286,29.9906659 C25.9114618,29.7933326 26.7141285,29.5573326 26.9274618,29.2279993 C27.4794618,28.3599993 27.7914618,24.9613327 27.7914618,19.9039995 L27.7914618,10.0599997 C27.7914618,9.61333309 27.7914618,9.09466644 27.7621285,8.74533311 C26.1687952,10.3959997 24.5047952,12.2639997 22.4234619,14.5839996 L16.0287954,21.7653328 C11.4754622,26.8679993 8.87146227,30.2146659 8.28612895,31.7133325 L8.18346229,31.9773325 L7.90079563,31.9306659 C7.34879564,31.8519992 6.60346233,31.7986659 5.84079568,31.7986659 C5.03012904,31.7986659 2.58879576,31.7986659 0.668795811,31.9373325 L0.576795813,31.9439992 L0.487462482,31.8973325 C0.236795822,31.7733325 0.0701291592,31.5226659 0.0167958272,31.2013326 C-0.0445375046,30.8199992 0.064795826,30.4186659 0.30079582,30.1879992 L0.386129151,30.0959992 L1.29012913,29.9906659 C2.51146243,29.8333326 3.43012908,29.4919993 3.9194624,28.9973326 C4.78612904,28.0573326 4.84479571,27.2093327 4.84479571,25.9279994 L4.84479571,12.217333 C4.84479571,9.99466642 4.85012904,4.78799988 4.27946239,3.30799992 C4.17012906,3.07199992 3.7794624,2.7546666 2.53546243,2.58399994 L1.1687958,2.43999994 L1.07946247,2.34799994 C0.879462472,2.15066661 0.776795808,1.82266662 0.803462474,1.4733333 C0.83012914,1.12533331 0.98746247,0.835999979 1.2207958,0.663999983 L1.32346246,0.591999985 L1.44479579,0.598666652 C3.04612908,0.690666649 4.27946239,0.737333315 6.21146234,0.737333315 C7.7674623,0.737333315 9.32212893,0.697333316 11.5767955,0.598666652 L11.6981289,0.591999985 L11.7941289,0.663999983 C12.0074622,0.822666646 12.1554622,1.06533331 12.2021289,1.35599997 C12.2514622,1.68933329 12.1687955,2.03866662 11.9687955,2.30799994 L11.8727955,2.43999994 L10.2847956,2.58399994 C9.17946226,2.68399993 8.40479562,2.93999993 8.21679562,3.28799992 C7.72079563,4.16266656 7.43412898,7.56933314 7.43412898,12.6319997 L7.43412898,22.6653328 C7.43412898,23.4879994 7.45146231,24.3613327 7.53012897,24.986666 C8.26212895,24.1653327 9.48346226,22.7319994 10.5741289,21.4306661 C11.3274622,20.5426662 12.0207955,19.7199995 12.4701288,19.2066662 L23.1434619,7.06266649 C26.6941285,3.03199992 28.3914618,1.03199997 29.0101284,0.151999996 L29.1181284,0 L29.2981284,0 C29.8994617,0 30.3554617,0.28266666 30.5047951,0.749333315 L30.5301284,0.822666646 L30.5247951,0.901333311 C30.4581284,1.4333333 30.3821284,3.26266659 30.3821284,8.91066644 L30.3821284,20.5226662 C30.3767951,22.8826661 30.3634617,27.7813326 31.0381284,29.2146659 C31.0967951,29.3399993 31.648795,29.7279993 33.344795,29.9906659 L34.1074616,30.0959992 L34.192795,30.1879992 C34.416795,30.4053326 34.524795,30.7666659 34.4834616,31.1213326 C34.4501283,31.4506659 34.2821283,31.7266659 34.0394616,31.8839992" id="path34"></path>
            </g>
            <g id="g36" transform="translate(262.7757, 102.6498)">
                <path d="M32.7608455,31.8839992 L32.6688455,31.9439992 L32.5541788,31.9373325 C30.9555122,31.8519992 29.7195122,31.7986659 27.7421789,31.7986659 C25.9808456,31.7986659 24.2715124,31.8453325 22.5195124,31.9373325 L22.4035124,31.9439992 L22.3048457,31.8786659 C22.0941791,31.7333325 21.9475124,31.4693325 21.9008457,31.1613326 C21.8515124,30.8119992 21.9408457,30.4839992 22.1435124,30.2466659 L22.2368457,30.1359992 L23.5288457,30.0373326 C24.586179,29.9506659 25.3075123,29.6679993 25.5515123,29.2479993 C26.0888456,28.2999993 26.386179,24.9799994 26.386179,19.9039995 L26.386179,14.6106663 C26.386179,9.1933331 24.850179,2.72933327 17.5381792,2.72933327 C11.4035127,2.72933327 8.55017942,6.51599984 8.55017942,14.657333 L8.55017942,24.5919994 C8.55017942,29.4853326 8.71151274,29.8333326 10.9861794,30.0373326 L12.176846,30.1293326 L12.2581793,30.1879992 C12.488846,30.3386659 12.5995126,30.6493326 12.572846,31.0359992 C12.5541793,31.3586659 12.4261793,31.7466659 12.1235127,31.9039992 L12.044846,31.9373325 L11.9555127,31.9373325 C9.77284605,31.8519992 8.23151276,31.7986659 6.31417947,31.7986659 C4.41951285,31.7986659 2.79817956,31.8519992 0.622179614,31.9373325 L0.534179616,31.9373325 L0.455512951,31.9039992 C0.152846292,31.7533325 0.0235129622,31.3586659 0.00484629597,31.0426659 C-0.0258203699,30.6493326 0.0901796272,30.3386659 0.320846288,30.1879992 L0.392846286,30.1293326 L1.63817959,30.0373326 C3.9168462,29.8333326 4.07151286,29.4853326 4.07151286,24.5919994 L4.07151286,13.7359997 C4.07151286,8.17333313 5.21551283,4.74133321 7.7808461,2.6106666 C9.80884605,0.881333311 12.784846,0 16.6155125,0 C20.2368458,0 23.706179,1.33466663 25.6595123,3.47199991 C27.8848456,5.85866652 28.9688456,9.53466643 28.9688456,14.7026663 L28.9688456,19.9039995 C28.9688456,22.2319994 28.9688456,27.6959993 29.5835122,29.1359993 C29.7981789,29.6026659 30.5875122,29.9586659 31.5901788,30.0373326 L32.8435121,30.1359992 L32.9355121,30.2533326 C33.1448455,30.5039992 33.2395121,30.8786659 33.1835121,31.2146659 C33.1381788,31.5026659 32.9915121,31.7399992 32.7608455,31.8839992" id="path38"></path>
            </g>
            <g id="g40" transform="translate(131.8272, 103.2485)">
                <path d="M29.4319993,32.5359992 C29.3173326,32.5359992 29.1493326,32.5226659 29.0013326,32.4559992 L28.8866659,32.4106659 L28.8239993,32.3119992 C28.2319993,31.2799992 27.982666,31.1999992 25.546666,31.1999992 L6.53333317,31.1999992 C4.47066655,31.1999992 3.54799991,31.3053326 3.35333325,32.3386659 L3.33466658,32.4426659 L3.25199992,32.5226659 C3.12399992,32.6466659 2.91599993,32.7133325 2.62133327,32.7133325 C2.51199994,32.7133325 2.13333328,32.6999992 1.93333328,32.5679992 L1.81199995,32.4826659 L1.78666662,32.3319992 C1.45999996,30.5039992 0.78399998,27.5973326 0.0466666655,25.538666 L0,25.394666 L0.066666665,25.262666 C0.342666658,24.710666 1.2853333,24.4413327 1.79333329,24.8159994 L1.86399995,24.8693327 L1.90666662,24.9599994 C2.37066661,26.018666 2.80799993,27.018666 3.88666657,28.0173326 C4.90266654,28.9453326 7.19733315,29.0639993 9.30399977,29.0639993 L11.8359997,29.0639993 C12.861333,29.0639993 12.861333,29.0639993 12.861333,27.9519993 L12.861333,7.38399982 C12.861333,2.39999994 12.5786664,2.18933328 10.3373331,1.99199995 L8.67999978,1.84799995 L8.52399979,1.80266662 C8.24933313,1.63733329 8.09466646,1.2893333 8.11466646,0.887999978 C8.12666646,0.578666652 8.24933313,0.183999995 8.55199979,0.0386666657 L8.63333312,0 L8.71999978,0 C11.533333,0.0853333312 13.237333,0.138666663 15.1039996,0.138666663 C16.8933329,0.138666663 18.3813329,0.0919999977 21.1146661,0 L21.2026661,0 L21.2853328,0.0386666657 C21.5866661,0.183999995 21.7159995,0.597333318 21.7359995,0.93333331 C21.7613328,1.33466663 21.6399995,1.65066663 21.4133328,1.79466662 L19.7759995,1.99199995 C17.4799996,2.18933328 17.3399996,2.49199994 17.3399996,7.38399982 L17.3399996,28.0053326 C17.3399996,28.4719993 17.3399996,28.9186659 17.4119996,28.9919993 C17.4946662,29.0639993 17.9906662,29.0639993 18.3226662,29.0639993 L21.5866661,29.0639993 C24.0493327,29.0639993 25.726666,28.7146659 26.7093327,27.9919993 C27.1493327,27.662666 27.5253326,26.5 27.722666,24.8693327 L27.7359993,24.7693327 L27.8013326,24.690666 C27.9679993,24.4866661 28.2813326,24.3626661 28.6359993,24.3626661 C29.0679993,24.3626661 29.4386659,24.5466661 29.5853326,24.8493327 L29.6266659,24.9413327 L29.6199993,25.038666 C29.4839993,26.3679993 29.8066659,30.0693326 30.2986659,31.9106659 L30.3319992,32.0359992 L30.2746659,32.1533325 C30.0986659,32.5079992 29.5853326,32.5359992 29.4319993,32.5359992" id="path42"></path>
            </g>
            <g id="g44" transform="translate(169.8662, 103.2489)">
                <path d="M33.7848232,1.79466662 L32.5261566,1.99199995 C30.19549,2.27466661 30.08349,2.52399994 30.08349,7.38399982 L30.08349,23.9479994 C30.08349,28.8386659 30.2168233,29.1559993 32.5194899,29.3853326 L33.4808232,29.4839993 L33.6434899,29.5373326 C33.8728232,29.6933326 33.9914899,30.0093326 33.9648232,30.4106659 C33.9594899,30.5746659 33.8928232,31.1146659 33.5154899,31.2986659 L33.4328232,31.3386659 L33.3474899,31.3319992 C31.1181566,31.2386659 29.6021566,31.1999992 27.9261567,31.1999992 C25.9328234,31.1999992 24.3328234,31.2533326 22.3861568,31.3319992 L22.2914902,31.3386659 L22.2088235,31.2986659 C21.8328235,31.1146659 21.7648235,30.5746659 21.7568235,30.4173326 C21.7314902,30.0173326 21.8474902,29.6933326 22.0781568,29.5426659 L23.1114901,29.3853326 C25.4634901,29.1559993 25.5968234,28.8386659 25.5968234,23.9479994 L25.5968234,18.6546662 C25.5968234,17.5359996 25.5968234,17.5359996 23.6514901,17.5359996 L10.5008238,17.5359996 C8.55415716,17.5359996 8.55415716,17.5359996 8.55415716,18.6546662 L8.55415716,23.9479994 C8.55415716,28.8386659 8.69015716,29.1559993 10.9994904,29.3853326 L11.8688237,29.4839993 L12.0301571,29.5426659 C12.2594904,29.6933326 12.3714904,30.0173326 12.3528237,30.4106659 C12.3381571,30.5746659 12.2728237,31.1146659 11.8941571,31.2986659 L11.8128237,31.3386659 L11.7274904,31.3319992 C9.63415713,31.2386659 8.09149051,31.1999992 6.40749055,31.1999992 C5.20082391,31.1999992 4.1594906,31.2333326 3.01549063,31.2719992 C2.27815732,31.2933326 1.49949067,31.3186659 0.61815736,31.3386659 L0.535490695,31.3386659 L0.454157364,31.2986659 C0.0794907068,31.1213326 0.0101573752,30.5826659 0.0034907087,30.4173326 C-0.021842624,30.0173326 0.0914907065,29.7013326 0.318157367,29.5426659 L0.400824032,29.4906659 L1.68615733,29.3853326 C3.71415728,29.2346659 4.07682394,28.8133326 4.07682394,23.9479994 L4.07682394,7.38399982 C4.07682394,2.59733327 3.98482394,2.39333327 1.700824,1.98533328 L0.812824022,1.82799995 L0.730157357,1.75466662 C0.467490697,1.49199996 0.426157365,1.05866664 0.47682403,0.742666648 C0.530157362,0.40799999 0.690157358,0.143999996 0.914157353,0.0386666657 L0.986157351,0 L1.08215735,0 C1.70615733,0.0186666662 2.31415732,0.0386666657 2.91949064,0.0586666652 C4.00482394,0.0986666642 5.12882391,0.13733333 6.40749055,0.13733333 C8.13015717,0.13733333 9.59949047,0.0986666642 12.2368237,0 L12.3248237,0 L12.4074904,0.0386666657 C12.7101571,0.183999995 12.8381571,0.597333318 12.8594904,0.93333331 C12.8768237,1.32666663 12.7621571,1.65066663 12.5341571,1.79466662 L11.0394904,1.99199995 C8.83815715,2.22799994 8.55415716,2.44666661 8.55415716,7.38399982 L8.55415716,13.8746663 C8.55415716,14.9919996 8.55415716,14.9919996 10.5008238,14.9919996 L23.6514901,14.9919996 C25.5968234,14.9919996 25.5968234,14.9919996 25.5968234,13.8746663 L25.5968234,7.38399982 C25.5968234,2.4986666 25.5488234,2.39333327 23.0928235,1.99199995 L22.1034902,1.83466662 L22.0221568,1.74799996 C21.7568235,1.48666663 21.7248235,1.05199997 21.7714902,0.742666648 C21.8328235,0.39999999 21.9874902,0.143999996 22.2088235,0.0386666657 L22.2914902,0 L22.3861568,0.0066666665 C24.5861568,0.0986666642 26.1901567,0.13733333 27.9261567,0.13733333 C29.7448233,0.13733333 31.3421566,0.0839999979 33.4808232,0.0066666665 L33.5674899,0 L33.6488232,0.0386666657 C34.0341565,0.222666661 34.0928232,0.762666648 34.1074899,0.926666644 C34.1341565,1.3213333 34.0141565,1.64399996 33.7848232,1.79466662" id="path46"></path>
            </g>
            <g id="g48" transform="translate(404.2936, 103.2426)">
                <path d="M24.6439609,7.53466648 C24.4079609,7.53466648 24.2106276,7.47599981 24.0532942,7.36399982 L23.9346276,7.23199982 C22.6186276,4.59466655 21.4292943,3.25999992 20.831961,2.93199993 C19.843961,2.43199994 18.4492944,2.28133328 15.0972945,2.28133328 C11.2626279,2.28133328 10.2826279,2.7346666 9.7972946,3.22133325 C9.13862795,3.9119999 9.01462795,5.41066653 9.01462795,7.76533314 L9.01462795,14.2479996 C9.01462795,15.1359996 9.01462795,15.1359996 10.1786279,15.1359996 L12.8479612,15.1359996 C14.4519611,15.1359996 15.6492945,15.0959996 16.2999611,14.9186663 C16.9386278,14.761333 17.2679611,14.3466663 17.4706277,13.433333 L17.8852944,11.6439997 L17.9506277,11.493333 C18.1212944,11.2893331 18.4492944,11.1639997 18.8186277,11.1639997 C19.2332944,11.1639997 19.5812944,11.3226664 19.7332944,11.5919997 L19.7786277,11.6706664 L19.7786277,11.7626664 C19.7786277,12.209333 19.7386277,12.809333 19.699961,13.465333 C19.6466277,14.3066663 19.5946277,15.261333 19.5946277,16.1813329 C19.5946277,17.1479996 19.6466277,18.1279995 19.699961,18.9959995 C19.7386277,19.6999995 19.7786277,20.3306662 19.7786277,20.8306661 L19.7786277,20.9159995 L19.7332944,21.0013328 C19.5812944,21.2639995 19.2332944,21.4279995 18.8186277,21.4279995 C18.4492944,21.4279995 18.1212944,21.3039995 17.9506277,21.0999995 L17.5106277,19.0479995 C17.3066277,18.0026662 17.0426278,17.8453329 16.6426278,17.7133329 C16.1492944,17.5493329 14.7692945,17.4573329 12.8479612,17.4573329 L10.1786279,17.4573329 C9.01462795,17.4573329 9.01462795,17.4573329 9.01462795,18.3906662 L9.01462795,27.590666 C9.01462795,29.0759993 9.01462795,29.0759993 10.0479613,29.0759993 L13.3466278,29.0759993 C15.2999611,29.0759993 16.7932944,29.0306659 17.7332944,28.8066659 C19.831961,28.2799993 20.2466277,26.958666 20.883961,24.946666 L20.975961,24.670666 L21.0426277,24.5586661 C21.1932943,24.3613327 21.455961,24.2626661 21.7906276,24.2626661 C22.1066276,24.2626661 22.5479609,24.3679994 22.7506276,24.670666 L22.8239609,24.782666 L22.7652943,25.4533327 C22.5212943,28.1359993 22.303961,30.4106659 22.0546276,31.1079992 L21.9492943,31.4106659 L21.639961,31.3306659 C21.1266276,31.2053326 18.2746277,31.2053326 15.5172945,31.2053326 L6.86529467,31.2053326 C5.09596138,31.2053326 3.57729475,31.2453326 1.45996147,31.3439992 L1.36662814,31.3439992 L1.28262815,31.3053326 C0.907961488,31.1199992 0.841294823,30.5813326 0.829294823,30.4239992 C0.801294824,30.0159992 0.919961488,29.6999993 1.15062815,29.5493326 L2.04529479,29.3973326 C4.39329473,29.1159993 4.53729473,28.8133326 4.53729473,23.9533327 L4.53729473,7.39599982 C4.53729473,2.41333327 4.2479614,2.18933328 2.00529479,1.99866662 L0.362628168,1.84666662 L0.275961504,1.76133329 C0.0132948438,1.49866663 -0.0267051552,1.06399997 0.0132948438,0.755999981 C0.071961509,0.414666656 0.235961505,0.157333329 0.458628166,0.0453333322 L0.525294831,0 L0.623961495,0.0066666665 C3.2866281,0.0973333309 4.87862806,0.143999996 6.86529467,0.143999996 L11.0066279,0.143999996 C15.0172945,0.143999996 19.055961,0.0973333309 23.3306276,0.0066666665 L23.5532943,0 L23.6519609,0.202666662 C24.2706276,1.49866663 25.4212942,5.06799987 25.7492942,6.67999983 L25.7759609,6.7986665 L25.7239609,6.89599983 C25.5252942,7.34399982 25.0399609,7.53466648 24.6439609,7.53466648" id="path50"></path>
            </g>
            <g id="g52" transform="translate(212.6399, 103.2426)">
                <path d="M24.641413,7.53466648 C24.4147463,7.53466648 24.2107463,7.47599981 24.049413,7.36399982 L23.9347463,7.23199982 C22.6160797,4.59466655 21.429413,3.25999992 20.8307464,2.93199993 C19.8400798,2.43199994 18.4467465,2.28133328 15.1000799,2.28133328 C11.2707466,2.28133328 10.28008,2.7346666 9.79341334,3.22133325 C9.14274669,3.9119999 9.01474669,5.41066653 9.01474669,7.76533314 L9.01474669,14.2479996 C9.01474669,15.1359996 9.01474669,15.1359996 10.1774133,15.1359996 L12.8440799,15.1359996 C14.4520799,15.1359996 15.6520799,15.0959996 16.3000798,14.9186663 C16.9387465,14.7546663 17.2707465,14.3466663 17.4694131,13.433333 L17.8814131,11.6439997 L17.9534131,11.493333 C18.1254131,11.2893331 18.4467465,11.1639997 18.8187464,11.1639997 C19.2360798,11.1639997 19.5774131,11.3226664 19.7320798,11.5919997 L19.7720798,11.6706664 L19.7720798,11.7626664 C19.7720798,12.209333 19.7387464,12.809333 19.7000798,13.465333 C19.6534131,14.3066663 19.5907464,15.261333 19.5907464,16.1813329 C19.5907464,17.1479996 19.6534131,18.1279995 19.7000798,18.9959995 C19.7387464,19.6999995 19.7720798,20.3306662 19.7720798,20.8306661 L19.7720798,20.9159995 L19.7320798,21.0013328 C19.5774131,21.2639995 19.2360798,21.4279995 18.8187464,21.4279995 C18.4467465,21.4279995 18.1254131,21.3039995 17.9534131,21.0999995 L17.5094131,19.0479995 C17.3027465,18.0026662 17.0467465,17.8453329 16.6414132,17.7133329 C16.1534132,17.5493329 14.7720799,17.4573329 12.8440799,17.4573329 L10.1774133,17.4573329 C9.01474669,17.4573329 9.01474669,17.4573329 9.01474669,18.3906662 L9.01474669,27.590666 C9.01474669,29.0759993 9.01474669,29.0759993 10.0374133,29.0759993 L13.3507466,29.0759993 C15.3040799,29.0759993 16.7960798,29.0306659 17.7267465,28.8066659 C19.8280798,28.2799993 20.2454131,26.958666 20.8827464,24.946666 L20.9720797,24.670666 L21.0374131,24.5586661 C21.1947464,24.3613327 21.4547464,24.2626661 21.7867464,24.2626661 C22.1040797,24.2626661 22.5467464,24.3679994 22.7507463,24.670666 L22.817413,24.782666 L22.757413,25.458666 C22.5200797,28.1359993 22.3040797,30.4106659 22.057413,31.1079992 L21.9480797,31.4106659 L21.6400797,31.3306659 C21.1267464,31.2053326 18.2734131,31.2053326 15.5107465,31.2053326 L6.86408008,31.2053326 C5.09608012,31.2053326 3.58008016,31.2453326 1.45874688,31.3439992 L1.36408021,31.3439992 L1.28408022,31.3053326 C0.906746892,31.1199992 0.83741356,30.5813326 0.832080227,30.4239992 C0.805413561,30.0159992 0.920080225,29.6999993 1.15074689,29.5493326 L2.0440802,29.3973326 C4.3947468,29.1159993 4.53741347,28.8133326 4.53741347,23.9533327 L4.53741347,7.39599982 C4.53741347,2.41333327 4.24674681,2.18933328 2.0040802,1.99866662 L0.361413572,1.84666662 L0.273413575,1.76133329 C0.00541358123,1.49866663 -0.0305864179,1.06399997 0.0187469142,0.749333315 C0.0707469129,0.414666656 0.232080242,0.157333329 0.456080237,0.0453333322 L0.529413568,0 L0.624080232,0.0066666665 C3.27874683,0.0973333309 4.87874679,0.143999996 6.86408008,0.143999996 L11.0067466,0.143999996 C15.0214132,0.143999996 19.0454131,0.0973333309 23.3227463,0.0066666665 L23.549413,0 L23.6520797,0.202666662 C24.269413,1.49199996 25.4227463,5.05599987 25.7454129,6.67999983 L25.7720796,6.7986665 L25.7254129,6.89599983 C25.5214129,7.34399982 25.0387463,7.53466648 24.641413,7.53466648" id="path54"></path>
            </g>
            <g id="g56" transform="translate(365.5206, 102.6509)">
                <path d="M32.8023564,31.8906659 L32.7036898,31.9426659 L32.6050231,31.9359992 C31.0663565,31.8439992 29.6463565,31.7973325 28.1610232,31.7973325 C26.3596899,31.7973325 24.6223566,31.8506659 23.4050233,31.9359992 L23.2943567,31.9426659 L23.2023567,31.8906659 C22.95169,31.7386659 22.7690233,31.4373325 22.7410233,31.0746659 C22.70369,30.7133326 22.8210233,30.3639992 23.0570233,30.1679992 L23.1370233,30.0879992 L24.0690233,29.9893326 C25.6810233,29.8066659 25.8316899,29.4706659 25.8316899,29.4706659 C25.8316899,29.1679993 25.7796899,28.6999993 25.4383566,27.7999993 C24.6490233,25.8013327 22.4530234,20.5279995 21.1690234,17.5026662 C20.8290234,16.7266662 20.4010234,15.7079996 19.9276901,14.5839996 C19.0463568,12.5186664 17.9956901,10 17.0876902,8.02133313 C14.9036902,13.0186663 12.9050236,18.0359995 10.8796903,23.1639994 C9.52635701,26.4653327 8.75569036,28.8653326 8.61835703,29.4639993 C8.68369036,29.6146659 9.07835702,29.8066659 10.4596903,29.9893326 L11.2490236,30.0946659 L11.3276903,30.1679992 C11.5636903,30.3639992 11.682357,30.6999992 11.642357,31.0746659 C11.6090236,31.4373325 11.446357,31.7386659 11.182357,31.8906659 L11.090357,31.9426659 L10.986357,31.9359992 C8.94635702,31.8439992 7.33035706,31.7973325 5.44102378,31.7973325 C3.52102383,31.7973325 2.05569053,31.8439992 0.681023897,31.9359992 L0.5690239,31.9426659 L0.470357236,31.8826659 C0.202357242,31.7119992 0.0303572467,31.4039992 0.00369058067,31.0546659 C-0.0229760853,30.6999992 0.0956905784,30.3639992 0.333023906,30.1679992 L0.418357237,30.0879992 L1.35969055,29.9893326 C3.14102384,29.7786659 3.75169049,28.9573326 4.79169046,26.4333327 L12.8916903,6.47599984 C13.8530236,4.08933323 14.5623569,2.03733328 14.9890235,0.39999999 L15.0290235,0.229333328 L15.1943569,0.163999996 C15.4570235,0.0519999987 15.7316902,0 16.0223568,0 C16.2850235,0 16.5356902,0.0653333317 16.7183568,0.195999995 L16.8250235,0.26266666 L16.8636902,0.379999991 C17.6530235,2.85333326 19.8610234,8.27733313 21.6383567,12.3479997 L24.1090233,18.0093329 C26.2476899,22.8413328 28.0276899,26.4853327 29.2450232,28.5493326 C29.8303565,29.4906659 30.4476898,29.9106659 31.3556898,29.9893326 L32.8676898,30.0879992 L32.9663564,30.1866659 C33.2170231,30.4373326 33.2570231,30.8706659 33.2170231,31.1666659 C33.1770231,31.5013325 33.0263564,31.7586659 32.8023564,31.8906659" id="path58"></path>
            </g>
            <g id="g60" transform="translate(610.9192, 102.6509)">
                <path d="M16.7293329,32.5346659 C7.19466649,32.5346659 0,25.3999994 0,15.9453329 C0,8.01466647 5.74799986,0 16.7293329,0 C26.026666,0 33.0493325,7.05466649 33.0493325,16.4053329 C33.0493325,24.1706661 27.9413326,32.5346659 16.7293329,32.5346659 M17.3333329,2.12933328 C7.83866647,2.12933328 5.3013332,11.7439997 5.3013332,17.4173329 C5.3013332,26.998666 11.0413331,30.3973326 15.9533329,30.3973326 C24.6453327,30.3973326 27.7359993,22.0919994 27.7359993,14.9786663 C27.7359993,5.4893332 22.1346661,2.12933328 17.3333329,2.12933328" id="path62"></path>
            </g>
            <g id="g64" transform="translate(653.348, 103.2482)">
                <path d="M21.5243334,24.934666 C21.4323334,26.598666 21.3803334,28.7413326 21.3803334,30.9839992 L21.3803334,31.4239992 L20.9523334,31.3319992 C20.3936668,31.1999992 17.5603335,31.1999992 14.8256669,31.1999992 L6.35633381,31.1999992 C4.62566719,31.1999992 3.08700056,31.2399992 1.04300061,31.3386659 L0.95766728,31.3453325 L0.864333949,31.3053326 C0.491000625,31.1146659 0.431000627,30.5759992 0.417667294,30.4119992 C0.391000628,30.0106659 0.509667291,29.6946659 0.739000619,29.5373326 L1.6270006,29.3919993 C3.95500054,29.1093326 4.0736672,28.8599993 4.0736672,23.9413327 L4.0736672,7.38399982 C4.0736672,2.52533327 3.95500054,2.26799994 1.6270006,1.98666662 L0.351000629,1.84133329 L0.267000631,1.74933329 C0.00833397065,1.49199996 -0.0356660283,1.06533331 0.0230006369,0.757333314 C0.0750006356,0.40799999 0.227000632,0.151999996 0.449667293,0.039999999 L0.529667291,0 L0.628333955,0 C2.7723339,0.0853333312 4.32433386,0.131999997 6.35633381,0.131999997 C8.2176671,0.131999997 9.80833373,0.0853333312 12.4630003,0 L12.5563337,0 L12.633667,0.039999999 C12.9390003,0.190666662 13.069667,0.598666652 13.089667,0.927999977 C13.1083336,1.33466663 12.9910003,1.64399996 12.7603337,1.79599996 L11.0310004,1.99199995 C8.68966709,2.18933328 8.55233376,2.49199994 8.55233376,7.38399982 L8.55233376,13.7826663 C8.55233376,14.6706663 8.55233376,14.6706663 9.71500039,14.6706663 L12.8443336,14.6706663 C14.4630003,14.6706663 15.6603336,14.637333 16.2763336,14.4599996 C16.9216669,14.2559996 17.2710002,13.8279997 17.5136669,12.9599997 L17.9990002,11.0533331 L18.0856669,10.9813331 C18.5403335,10.5933331 19.5190001,10.6133331 19.8083335,11.0533331 L19.8683335,11.1466664 L19.8683335,11.2506664 C19.8683335,11.7306664 19.8350001,12.3426664 19.7963335,13.025333 C19.7363335,13.861333 19.6843335,14.8079996 19.6843335,15.7146663 C19.6843335,16.6426663 19.7363335,17.6359996 19.7883335,18.5039995 C19.8296668,19.2133329 19.8683335,19.8653328 19.8683335,20.3639995 L19.8683335,20.4693328 L19.8083335,20.5546662 C19.5910001,20.8839995 19.1176668,20.9239995 18.9350002,20.9239995 C18.5523335,20.9239995 18.2176668,20.7919995 18.0403335,20.5813328 L17.5603335,18.5959995 C17.3030002,17.4853329 16.9950002,17.3733329 16.6456669,17.2479996 C16.1590002,17.0826662 14.7376669,16.9906662 12.8443336,16.9906662 L9.71500039,16.9906662 C8.55233376,16.9906662 8.55233376,16.9906662 8.55233376,17.8786662 L8.55233376,27.5773326 C8.55233376,29.0706659 8.55233376,29.0706659 9.5830004,29.0706659 L12.385667,29.0706659 C14.2843336,29.0706659 15.7910002,29.0706659 16.7576669,28.8079993 C18.7296668,28.2879993 19.3163335,26.9653327 19.7110001,24.710666 L19.7363335,24.5919994 L19.8350001,24.5066661 C20.0123335,24.3559994 20.2630001,24.2759994 20.5256668,24.2759994 C20.8803334,24.2759994 21.3150001,24.4213327 21.4870001,24.750666 L21.5310001,24.842666 L21.5243334,24.934666 Z" id="path66"></path>
            </g>
            <g id="g68" transform="translate(558.9072, 103.2485)">
                <path d="M28.6435687,31.2853326 L28.5515687,31.3453325 L28.4329021,31.3386659 C25.1582355,31.1479992 23.2395689,31.1479992 19.7809023,31.3386659 L19.687569,31.3453325 L19.5969023,31.2986659 C19.3462356,31.1679992 19.1689023,30.9106659 19.1089023,30.5893326 C19.0569023,30.2213326 19.1689023,29.8333326 19.4182356,29.5893326 L19.5049023,29.4973326 L20.4502356,29.3919993 C21.3435689,29.2799993 21.8969022,29.0626659 22.0622356,28.9386659 C21.9102356,28.2879993 20.3129023,25.2959994 19.3342356,23.4866661 L19.1222356,23.0933328 C18.0182357,20.9559995 16.735569,18.6479995 15.1249024,15.8733329 C13.9089024,18.0626662 12.7249025,20.4693328 11.5809025,22.8039994 C11.1275692,23.7239994 10.6795692,24.6386661 10.2329025,25.5333327 C9.9035692,26.1959993 8.8582359,28.550666 8.84490256,28.9119993 C8.84490256,29.0039993 9.05690256,29.1893326 10.4755692,29.3919993 L11.1929025,29.5039993 L11.2795692,29.5893326 C11.5222358,29.8333326 11.6262358,30.2866659 11.5342358,30.6813326 C11.4555692,31.0026659 11.2595692,31.2279992 10.9822358,31.3186659 L10.9169025,31.3453325 L10.8502358,31.3386659 C9.72623588,31.2466659 8.07690258,31.1999992 5.95823597,31.1999992 C3.82890269,31.1999992 2.14490273,31.2399992 0.65290277,31.3386659 L0.540902772,31.3453325 L0.448902775,31.2933326 C0.226236114,31.1613326 0.072902784,30.9173326 0.0142361188,30.6093326 C-0.0377638799,30.2399992 0.0542361178,29.8586659 0.264902779,29.6093326 L0.348902777,29.5039993 L1.76223608,29.2546659 C2.97956938,29.0573326 3.59156936,28.9453326 5.14223599,25.9533327 L10.5675692,15.3666663 C11.8689025,12.8626663 12.0075692,12.349333 12.0075692,9.82399975 L12.0075692,7.48266648 C12.0075692,2.49199994 11.8902358,2.23599994 9.56090255,1.98533328 L8.00356925,1.84133329 L7.91823592,1.74933329 C7.65556926,1.48666663 7.61556926,1.05866664 7.66890259,0.742666648 C7.72623593,0.40799999 7.87956926,0.150666663 8.10223592,0.0386666657 L8.18090258,0 L8.27290258,0 C10.7515692,0.0919999977 12.3622358,0.138666663 14.2822358,0.138666663 C16.151569,0.138666663 17.799569,0.0853333312 20.5289023,0 L20.6222356,0 L20.7009023,0.0386666657 C20.9169023,0.150666663 21.0809023,0.40799999 21.1355689,0.750666648 C21.1875689,1.06533331 21.1475689,1.48666663 20.8782356,1.74933329 L20.7929023,1.84799995 L18.9129023,1.99199995 C16.7822357,2.15066661 16.479569,2.4986666 16.479569,7.48266648 L16.479569,9.86933309 C16.479569,13.321333 16.5702357,13.6639997 18.595569,17.1479996 L21.4902356,22.1586661 C21.7529022,22.6133328 22.0075689,23.0533328 22.2462356,23.4746661 C24.0555689,26.6373327 25.3622355,28.9186659 27.3155688,29.2546659 L28.7022354,29.5039993 L28.7755687,29.5626659 C29.0115687,29.7733326 29.1302354,30.1026659 29.1049021,30.4573326 C29.0769021,30.8066659 28.9075687,31.1146659 28.6435687,31.2853326" id="path70"></path>
            </g>
            <g id="g72" transform="translate(473.6769, 102.6499)">
                <path d="M13.0066663,17.9906662 L9.32399977,20.2919995 C7.93066647,21.1599995 5.58399986,23.0079994 5.58399986,25.6453327 C5.58399986,27.426666 6.24799984,30.3986659 10.7039997,30.3986659 C14.7559996,30.3986659 15.9986663,27.7613326 16.6159996,25.466666 L16.6906662,25.3279994 C16.8333329,25.1573327 17.0839996,25.0519994 17.3866662,25.0519994 C17.7333329,25.0519994 18.2013329,25.1973327 18.3999995,25.5 L18.4653329,25.5919994 L18.4653329,25.6973327 C18.4653329,27.5719993 18.0706662,30.2079992 17.6093329,31.4306659 L17.5306662,31.6613325 L17.2799996,31.6613325 C16.9653329,31.6613325 16.3479996,31.7399992 15.7626663,31.9239992 C14.6626663,32.2199992 12.9399997,32.5359992 11.389333,32.5359992 C5.57733319,32.5359992 1.65733329,29.2146659 1.65733329,24.2759994 C1.65733329,20.0746662 4.86666655,17.3253329 6.7866665,16.0639996 L11.1519997,13.2106663 C14.3279996,11.1653331 14.769333,9.04799977 14.769333,7.06266649 C14.769333,4.60933322 13.0986663,2.13733328 9.37599977,2.13733328 C4.70799988,2.13733328 2.68399993,5.71999986 1.80266662,8.73199978 L1.75066662,8.83066645 C1.61866663,9.03466644 1.36799997,9.1533331 1.05333331,9.1533331 C0.751999981,9.1533331 0.302666659,9.02799977 0.066666665,8.69999978 L0,8.60133312 L0.0079999998,8.47599979 C0.0919999977,6.39866651 0.685333316,2.99866659 1.2893333,1.88799995 L1.32799997,1.79599996 L1.4213333,1.74933329 C2.32133328,1.22399997 4.83999988,0 8.77199978,0 C14.8479996,0 18.9239995,3.56399991 18.9239995,8.86399978 C18.9239995,12.5399997 16.9919996,15.5253329 13.0066663,17.9906662" id="path74"></path>
            </g>
            <g id="g76" transform="translate(437.7747, 102.8801)">
                <path d="M29.7618619,1.55866663 L29.6631952,1.57866663 C28.5645286,1.65733329 27.453862,2.10399995 26.6845286,2.78799993 C23.5205287,5.43866653 21.0031954,9.3173331 17.5178622,14.933333 C17.2751955,15.3279996 17.2418622,15.4986663 17.2471955,15.5839996 C18.7738622,16.2146663 23.0938621,18.4706662 23.0938621,23.5333327 C23.0938621,27.3933326 20.9111954,29.3399993 19.0831955,30.2866659 C16.7818622,31.5359992 13.8231956,31.7066659 11.244529,31.7066659 C7.0231958,31.7066659 3.76186254,31.5959992 0.948529282,31.3386659 L0.823195951,31.3053326 C0.553862625,31.1679992 0.381862629,30.8719992 0.356529296,30.5093326 C0.315195964,30.1159992 0.468529294,29.7346659 0.724529287,29.5439993 L0.796529285,29.4919993 L2.35519591,29.2999993 C3.86052921,29.1159993 4.07786254,28.7933326 4.07786254,24.2693327 L4.07786254,7.75866647 C4.07786254,2.89333326 3.95786254,2.63733327 1.63119593,2.35466661 L0.343195963,2.20266661 L0.251195966,2.09733328 C-0.0114706944,1.79466662 -0.0314706939,1.3613333 0.0271959713,1.05199997 C0.092529303,0.743999981 0.243195966,0.513333321 0.455195961,0.401333323 L0.533862625,0.362666658 L0.63252929,0.367999991 C2.67786257,0.453333322 4.34719586,0.506666654 6.35919581,0.506666654 C8.26586243,0.506666654 9.86452906,0.453333322 11.8231957,0.367999991 L11.916529,0.362666658 L11.9938623,0.401333323 C12.336529,0.571999986 12.4151957,1.01999997 12.4418623,1.1973333 C12.4871957,1.60533329 12.3751957,1.95999995 12.152529,2.14266661 L12.072529,2.20933328 L11.0098624,2.35466661 C8.64719576,2.68933327 8.55652909,2.88666659 8.55652909,7.75866647 L8.55652909,13.553333 C8.55652909,14.2159996 8.55652909,14.2159996 10.364529,14.2159996 C12.124529,14.2159996 12.732529,13.789333 13.3431956,12.8946663 C14.032529,11.8746664 14.8485289,10.5933331 15.6365289,9.34399977 C16.4591956,8.0479998 17.2418622,6.81199983 17.8525289,5.94399985 C21.0098621,1.44666663 23.3978621,0 27.6578619,0 C28.5445286,0 29.3271952,0.0853333312 29.7885286,0.25066666 L29.9005286,0.302666659 C30.1165286,0.474666655 30.2218619,0.749333315 30.1818619,1.01999997 C30.1431952,1.26266664 29.9845286,1.46666663 29.7618619,1.55866663 M8.55652909,28.4519993 C8.55652909,29.4919993 8.55652909,29.5693326 11.192529,29.5693326 C16.3605289,29.5693326 18.1951955,25.9479994 18.1951955,22.8426661 C18.1951955,20.2919995 17.5058622,18.5693329 16.0311956,17.4186662 C14.7245289,16.4253329 12.928529,16.2933329 11.520529,16.2933329 C9.43652907,16.2933329 8.79786242,16.3733329 8.60852909,16.4386663 C8.55652909,16.6226663 8.55652909,17.1626662 8.55652909,17.6946662 L8.55652909,28.4519993 Z" id="path78"></path>
            </g>
            <g id="g80" transform="translate(502.2122, 103.2486)">
                <path d="M11.0756967,29.3919993 L12.32503,29.4906659 L12.3983633,29.5373326 C12.6263633,29.6946659 12.7463633,30.0093326 12.7196966,30.4119992 C12.7063633,30.5759992 12.6476966,31.1146659 12.2716966,31.3053326 L12.1876966,31.3453325 L12.0956966,31.3386659 C9.91836336,31.2466659 8.30103007,31.1999992 6.40769678,31.1999992 C4.43569683,31.1999992 2.84903021,31.2466659 0.627696927,31.3386659 L0.529030263,31.3453325 L0.450363598,31.3053326 C0.0756969411,31.1146659 0.0156969426,30.5693326 0.00369694293,30.4039992 C-0.0229697231,30.0093326 0.0956969406,29.6946659 0.325030268,29.5373326 L0.397030266,29.4906659 L1.63303024,29.3919993 C3.98769684,29.1946659 4.11836351,28.8786659 4.11836351,23.8559994 L4.11836351,7.48266648 C4.11836351,2.5306666 4.00636351,2.26799994 1.63303024,1.98533328 L0.358363601,1.83999995 L0.271696936,1.74933329 C0.00903027613,1.48666663 -0.0363030561,1.06533331 0.0236969424,0.750666648 C0.0756969411,0.40799999 0.226363604,0.150666663 0.450363598,0.0386666657 L0.529030263,0 L0.627696927,0 C2.9610302,0.0919999977 4.5063635,0.131999997 6.40769678,0.131999997 C8.2343634,0.131999997 9.76236337,0.0919999977 12.0956966,0 L12.1876966,0 L12.2716966,0.0386666657 C12.6476966,0.229333328 12.7063633,0.769333314 12.7196966,0.926666643 C12.7463633,1.32799997 12.6263633,1.64399996 12.3983633,1.79466662 L11.0903633,1.98533328 C8.71436339,2.26799994 8.60369673,2.5306666 8.60369673,7.48266648 L8.60369673,23.8559994 C8.60369673,28.8786659 8.74236339,29.1946659 11.0756967,29.3919993" id="path82"></path>
            </g>
            <g id="g84" transform="translate(522.4483, 103.2485)">
                <path d="M29.4306659,32.5359992 C29.3186659,32.5359992 29.1479993,32.5226659 29.0039993,32.4559992 L28.8853326,32.4173325 L28.8199993,32.3119992 C28.2279993,31.2799992 27.9853326,31.1999992 25.538666,31.1999992 L6.52933317,31.1999992 C4.46399989,31.1999992 3.54399991,31.3053326 3.35199992,32.3386659 L3.33333325,32.4426659 L3.25333325,32.5279992 C3.12266659,32.6466659 2.91199993,32.7133325 2.62399993,32.7133325 C2.51199994,32.7133325 2.13599995,32.6999992 1.93199995,32.5679992 L1.80799995,32.4893325 L1.78133329,32.3319992 C1.4653333,30.4893326 0.782666647,27.5839993 0.0453333322,25.538666 L0,25.394666 L0.0706666649,25.262666 C0.347999991,24.7039994 1.2813333,24.4346661 1.79333329,24.8159994 L1.86666662,24.8693327 L1.90666662,24.9599994 C2.37333327,26.026666 2.8146666,27.0253327 3.88533324,28.010666 C4.89866654,28.9453326 7.19866649,29.0639993 9.30266643,29.0639993 L11.841333,29.0639993 C12.861333,29.0639993 12.861333,29.0639993 12.861333,27.9519993 L12.861333,7.38399982 C12.861333,2.39999994 12.5786664,2.18933328 10.3373331,1.99199995 L8.67999978,1.84799995 L8.52666645,1.80266662 C8.25199979,1.63733329 8.09333313,1.2893333 8.11333313,0.879999978 C8.12533313,0.571999986 8.25199979,0.183999995 8.55466645,0.0386666657 L8.63333312,0 L8.71866645,0 C11.533333,0.0853333312 13.2359997,0.138666663 15.1026663,0.138666663 C16.9039996,0.138666663 18.3786662,0.0919999977 21.1133328,0 L21.2053328,0 L21.2839995,0.0386666657 C21.6653328,0.230666661 21.7173328,0.769333314 21.7319995,0.926666643 C21.7573328,1.32799997 21.6386661,1.64399996 21.4146661,1.79466662 L19.7719995,1.99199995 C17.4839996,2.18933328 17.3386662,2.49199994 17.3386662,7.38399982 L17.3386662,28.010666 C17.3386662,28.4719993 17.3386662,28.9186659 17.4093329,28.9919993 C17.4973329,29.0639993 17.9906662,29.0639993 18.3253329,29.0639993 L21.5853328,29.0639993 C24.0519994,29.0639993 25.7293327,28.7146659 26.7159993,27.9919993 C27.1493327,27.662666 27.5239993,26.5 27.722666,24.8693327 L27.7359993,24.7693327 L27.7933326,24.690666 C27.9653326,24.4866661 28.2799993,24.3626661 28.6293326,24.3626661 C29.0693326,24.3626661 29.4373326,24.5466661 29.5813326,24.8493327 L29.6226659,24.9413327 L29.6226659,25.038666 C29.4839993,26.3613327 29.8066659,30.0693326 30.2973326,31.9106659 L30.3319992,32.0359992 L30.2733326,32.1533325 C30.1093326,32.4959992 29.6226659,32.5359992 29.4306659,32.5359992" id="path86"></path>
            </g>
        </g>
    </g>
</svg>