<svg version="1.1" id="Layer_1" xmlns:x="ns_extend;" xmlns:i="ns_ai;" xmlns:graph="ns_graphs;" xmlns="http://www.w3.org/2000/svg" xmlns:xlink="http://www.w3.org/1999/xlink" x="0px" y="0px" viewBox="0 0 46.7 47" style="enable-background:new 0 0 46.7 47;" xml:space="preserve">
 <style type="text/css">
  .st0{fill:#FFFFFF;}
 </style>
 <metadata>
  <sfw xmlns="ns_sfw;">
   <slices>
   </slices>
   <sliceSourceBounds bottomLeftOrigin="true" height="47" width="46.7" x="-28.2" y="56.4">
   </sliceSourceBounds>
  </sfw>
 </metadata>
 <g>
  <path class="st0" d="M0,0v47h46.7V0H0z M31.8,13.5c-2.2,4.3-4.5,8.6-6.8,12.9c-0.1,0.2-0.1,0.3-0.1,0.5c0,3.1,0,6.2,0,9.2
		c-1.1,0-2.2,0-3.3,0c0-3,0-6,0-9c0-0.3,0-0.7-0.2-1c-2.1-3.9-4.1-7.8-6.2-11.8c-0.5-0.9-1-1.8-1.4-2.8c0.2,0,0.4-0.1,0.6-0.1
		c1,0,2,0,3,0.1c0.2,0,0.2,0.1,0.3,0.2c1.5,3.1,3,6.3,4.6,9.5c0.3,0.7,0.6,1.3,1,1.9c0.3-0.5,0.6-1,0.9-1.6
		c1.7-3.4,3.4-6.7,5.1-10.1c1.1,0,2.2-0.1,3.4,0.1C32.5,12.4,32.1,12.9,31.8,13.5z">
  </path>
 </g>
</svg>