<?xml version="1.0" encoding="utf-8" ?>
<svg xmlns="http://www.w3.org/2000/svg" xmlns:xlink="http://www.w3.org/1999/xlink" width="638" height="127">
	<path transform="scale(0.999408 1.00173)" d="M58.668 0.243479C62.1298 0.000321404 65.951 0.416174 69.3019 1.25104C80.448 4.02805 89.1575 10.6775 95.0329 20.482C96.5577 20.5071 98.0979 20.3608 99.6252 20.3447C102.65 20.3299 105.667 20.6561 108.619 21.3172C119.098 23.7463 128.181 29.9689 133.899 39.1409C139.618 48.2323 141.5 59.2192 139.134 69.6957C136.855 79.4901 130.457 88.9452 121.857 94.2989C121.886 94.3628 121.912 94.4166 121.92 94.4874C122.111 96.1258 121.904 98.4901 121.902 100.211C121.899 102.541 122.162 106.401 121.831 108.609C121.706 109.449 121.406 110.241 120.894 110.923C120.084 112 118.839 112.788 117.497 112.974C116.142 113.161 114.781 112.691 113.714 111.864C112.643 111.034 112.044 109.985 111.878 108.644C111.571 106.173 111.792 102.298 111.798 99.6959C111.805 96.3592 111.627 92.9452 111.786 89.6177C111.801 89.3075 111.81 88.8522 112.002 88.5918C112.351 88.1203 116.461 85.824 117.329 85.2029C119.606 83.5745 121.808 81.5305 123.534 79.3138C128.578 72.8558 130.82 64.6437 129.756 56.5181C128.736 48.348 124.41 41.4411 117.941 36.445C111.584 31.5355 103.87 29.8093 95.9815 30.7865C93.7013 31.069 91.4915 31.7119 89.221 32.0048C86.3945 24.564 81.9252 18.0209 74.7425 14.237C70.1805 11.7239 66.2328 10.5548 60.998 10.4298C52.5719 10.2287 45.3371 12.7809 39.1955 18.652C34.0572 23.564 30.8808 29.7007 30.0504 36.7813C29.786 39.0352 29.7857 41.3287 29.7338 43.596C28.7406 44.1451 27.5024 44.4298 26.4288 44.8147C24.4122 45.5373 22.5518 46.4406 20.7478 47.6011C15.6344 50.8906 12.1323 56.434 10.8551 62.315C9.56802 68.2408 10.6352 74.7069 13.9376 79.8059C16.7363 84.1273 21.0615 87.8086 25.9726 89.4515C28.3616 90.2509 30.8851 90.6771 33.3439 91.2056L33.367 102.129C33.3686 104.384 33.6219 107.156 33.1356 109.336C32.963 110.109 32.5071 110.804 31.9632 111.371C31.0362 112.337 29.732 112.994 28.3792 113.009C27.0021 113.025 25.6064 112.39 24.6444 111.419C24.0613 110.83 23.6654 110.135 23.4587 109.332C22.966 107.419 23.2329 101.534 23.2288 99.2091C22.9282 99.1403 22.6359 99.051 22.3454 98.9479C13.9364 95.9661 7.04098 89.4058 3.24776 81.3728C-0.413946 73.6184 -0.777991 63.8932 2.12856 55.8266C5.16282 47.289 11.5091 40.3343 19.7339 36.5331C20.3438 34.9229 20.457 32.5707 20.8971 30.8105C22.4378 24.6479 25.499 18.625 29.7556 13.8909C37.4827 5.29678 47.1766 0.868963 58.668 0.243479Z"/>
	<path transform="scale(0.999408 1.00173)" d="M86.4168 90.8089C87.5142 90.7394 88.5837 90.961 89.5352 91.5246C90.5489 92.1259 91.4717 93.2205 91.7483 94.3814C92.2569 96.5189 92.0042 100.218 92.0034 102.506C92.0022 104.397 92.1312 106.406 91.927 108.282C91.8477 109.009 91.6977 109.883 91.3075 110.506C90.4446 111.883 89.0581 112.638 87.5203 112.998C86.306 113.074 85.2304 112.801 84.1948 112.14C83.1811 111.494 82.3505 110.593 82.095 109.393C81.6005 107.071 81.8564 103.309 81.8576 100.852C81.8584 99.0805 81.7052 97.1412 81.9409 95.3923C82.0529 94.5602 82.264 93.7333 82.7359 93.0289C83.6679 91.6366 84.8301 91.1191 86.4168 90.8089Z"/>
	<path transform="scale(0.999408 1.00173)" d="M58.516 90.8089C59.6134 90.7394 60.683 90.961 61.6344 91.5246C62.6482 92.1259 63.5709 93.2205 63.8471 94.3814C64.3562 96.5189 64.1034 100.218 64.1026 102.506C64.1014 104.397 64.2304 106.406 64.0262 108.282C63.9469 109.009 63.7969 109.883 63.4067 110.506C62.5438 111.883 61.1573 112.638 59.6199 112.998C58.4052 113.074 57.3296 112.801 56.2941 112.141C55.2803 111.494 54.4498 110.593 54.1942 109.393C53.6997 107.071 53.9556 103.309 53.9569 100.852C53.9577 99.0805 53.8044 97.1412 54.0402 95.3923C54.1522 94.5602 54.3632 93.7333 54.8351 93.0289C55.7672 91.6366 56.9293 91.1191 58.516 90.8089Z"/>
	<path transform="scale(0.999408 1.00173)" d="M198.405 103.22L198.405 29.7632L243.974 29.7632L243.974 39.2813L209.501 39.2813L209.501 61.6709L240.694 61.6709L240.694 71.189L209.501 71.189L209.501 103.22L198.405 103.22ZM256.033 103.22L256.033 48.1336L266.414 48.1336L266.414 56.8872L267.006 56.8872Q268.51 52.4488 272.308 49.8843Q276.13 47.2952 280.963 47.2952Q281.974 47.2952 283.33 47.3692Q284.711 47.4431 285.525 47.5664L285.525 57.8242Q284.883 57.6516 283.231 57.4051Q281.604 57.1585 279.927 57.1585Q276.154 57.1585 273.171 58.7613Q270.187 60.364 268.461 63.1751Q266.76 65.9861 266.76 69.5862L266.76 103.22L256.033 103.22ZM316.603 104.33Q308.466 104.33 302.572 100.828Q296.704 97.3267 293.523 90.9649Q290.366 84.6031 290.366 76.0467Q290.366 67.5642 293.523 61.1284Q296.704 54.668 302.424 51.0432Q308.145 47.4185 315.814 47.4185Q320.499 47.4185 324.863 48.9473Q329.252 50.4761 332.705 53.7803Q336.181 57.0845 338.203 62.3614Q340.225 67.6136 340.225 75.1096L340.225 78.8824L296.432 78.8824L296.432 70.8438L329.696 70.8438Q329.696 66.6519 327.97 63.3723Q326.269 60.0681 323.162 58.1695Q320.08 56.2708 315.912 56.2708Q311.375 56.2708 308.022 58.49Q304.693 60.6846 302.868 64.2354Q301.043 67.7615 301.043 71.8794L301.043 78.1426Q301.043 83.666 302.991 87.5374Q304.964 91.4087 308.466 93.4554Q311.992 95.4773 316.677 95.4773Q319.759 95.4773 322.25 94.6143Q324.765 93.7266 326.589 91.9759Q328.414 90.2251 329.4 87.6114L339.535 89.4361Q338.327 93.9239 335.195 97.2774Q332.063 100.631 327.329 102.48Q322.595 104.33 316.603 104.33ZM375.926 104.33Q367.789 104.33 361.895 100.828Q356.027 97.3267 352.846 90.9649Q349.69 84.6031 349.69 76.0467Q349.69 67.5642 352.846 61.1284Q356.027 54.668 361.748 51.0432Q367.468 47.4185 375.137 47.4185Q379.822 47.4185 384.186 48.9473Q388.576 50.4761 392.028 53.7803Q395.505 57.0845 397.527 62.3614Q399.549 67.6136 399.549 75.1096L399.549 78.8824L355.756 78.8824L355.756 70.8438L389.019 70.8438Q389.019 66.6519 387.293 63.3723Q385.592 60.0681 382.485 58.1695Q379.403 56.2708 375.236 56.2708Q370.698 56.2708 367.345 58.49Q364.016 60.6846 362.191 64.2354Q360.367 67.7615 360.367 71.8794L360.367 78.1426Q360.367 83.666 362.315 87.5374Q364.287 91.4087 367.789 93.4554Q371.315 95.4773 376 95.4773Q379.082 95.4773 381.573 94.6143Q384.088 93.7266 385.913 91.9759Q387.737 90.2251 388.724 87.6114L398.858 89.4361Q397.65 93.9239 394.518 97.2774Q391.387 100.631 386.652 102.48Q381.918 104.33 375.926 104.33ZM452.781 61.597L443.041 63.2984Q442.449 61.449 441.118 59.7722Q439.811 58.0708 437.592 56.9859Q435.372 55.9009 432.019 55.9009Q427.482 55.9009 424.424 57.9475Q421.367 59.9695 421.391 63.1751Q421.367 65.9368 423.413 67.6136Q425.485 69.2657 430.022 70.3753L438.8 72.3726Q446.395 74.1233 450.118 77.7974Q453.841 81.4468 453.866 87.2908Q453.841 92.2471 450.981 96.1184Q448.145 99.9651 443.066 102.16Q438.011 104.33 431.329 104.33Q422.057 104.33 416.213 100.384Q410.394 96.4143 409.038 89.0908L419.394 87.4881Q420.405 91.5813 423.413 93.6526Q426.422 95.6992 431.255 95.6992Q436.531 95.6992 439.688 93.5047Q442.844 91.2854 442.844 88.1045Q442.844 85.4908 440.921 83.74Q439.022 81.9893 435.027 81.1016L425.731 79.0303Q418.013 77.3042 414.339 73.4575Q410.665 69.5862 410.69 63.7422Q410.665 58.8599 413.377 55.1858Q416.114 51.5117 420.923 49.4651Q425.731 47.4185 431.945 47.4185Q440.871 47.4185 446 51.2898Q451.129 55.1365 452.781 61.597ZM491.344 48.1336L491.344 56.7393L461.237 56.7393L461.237 48.1336L491.344 48.1336ZM469.3 34.9414L480.026 34.9414L480.026 87.0442Q480.026 90.1512 480.939 91.7293Q481.876 93.3074 483.38 93.8499Q484.884 94.3924 486.635 94.3924Q487.942 94.3924 488.879 94.2198Q489.84 94.0471 490.383 93.9485L492.355 102.801Q491.394 103.146 489.668 103.516Q487.942 103.91 485.377 103.96Q481.136 104.034 477.462 102.456Q473.812 100.853 471.544 97.5733Q469.3 94.2691 469.3 89.2635L469.3 34.9414ZM509.934 123.884Q507.518 123.884 505.545 123.489Q503.597 123.119 502.611 122.7L505.2 113.897Q508.159 114.711 510.452 114.587Q512.746 114.464 514.496 112.837Q516.272 111.234 517.652 107.585L518.984 103.935L498.814 48.1336L510.304 48.1336L524.236 90.8909L524.828 90.8909L538.785 48.1336L550.3 48.1336L527.565 110.568Q526.012 114.883 523.57 117.867Q521.129 120.851 517.751 122.355Q514.373 123.884 509.934 123.884ZM571.087 29.7632L571.087 103.22L560.361 103.22L560.361 29.7632L571.087 29.7632ZM609.273 104.33Q601.136 104.33 595.243 100.828Q589.374 97.3267 586.193 90.9649Q583.037 84.6031 583.037 76.0467Q583.037 67.5642 586.193 61.1284Q589.374 54.668 595.095 51.0432Q600.816 47.4185 608.484 47.4185Q613.169 47.4185 617.534 48.9473Q621.923 50.4761 625.375 53.7803Q628.852 57.0845 630.874 62.3614Q632.896 67.6136 632.896 75.1096L632.896 78.8824L589.103 78.8824L589.103 70.8438L622.367 70.8438Q622.367 66.6519 620.641 63.3723Q618.939 60.0681 615.833 58.1695Q612.75 56.2708 608.583 56.2708Q604.046 56.2708 600.692 58.49Q597.364 60.6846 595.539 64.2354Q593.714 67.7615 593.714 71.8794L593.714 78.1426Q593.714 83.666 595.662 87.5374Q597.635 91.4087 601.136 93.4554Q604.662 95.4773 609.347 95.4773Q612.43 95.4773 614.92 94.6143Q617.435 93.7266 619.26 91.9759Q621.085 90.2251 622.071 87.6114L632.206 89.4361Q630.997 93.9239 627.866 97.2774Q624.734 100.631 620 102.48Q615.265 104.33 609.273 104.33Z"/>
</svg>
